<?xml version="1.0" encoding="utf-8"?>
<!-- Generator: Adobe Illustrator 21.0.2, SVG Export Plug-In . SVG Version: 6.00 Build 0)  -->
<svg version="1.1" id="Layer_1" xmlns="http://www.w3.org/2000/svg" xmlns:xlink="http://www.w3.org/1999/xlink" x="0px" y="0px"
	 viewBox="0 0 357.7 73.2" style="enable-background:new 0 0 357.7 73.2;" xml:space="preserve">
<style type="text/css">
	.st0{fill:#3A4AA5;}
	.st1{font-family:'sketches-Bold';}
	.st2{font-size:69px;}
	.st3{fill:#74D1F5;}
	.st4{fill:#71431B;}
	.st5{fill:#2E2E2E;}
	.st6{fill:#454545;}
	.st7{fill:#D2D3C8;}
	.st8{fill:#616467;}
	.st9{fill:#5D6164;}
	.st10{fill:#474951;}
</style>
<title>logo</title>
<text transform="matrix(1 0 0 1 0 58.66)" class="st0 st1 st2">SKETCHED</text>
<g id="lod8hf">
	<path class="st3" d="M244.5,58.3c-0.1-0.4-0.5-0.6-0.5-1.1c0,0,0.1,0,0.1,0c0.4,0.4,0.4,0.4,0.8,0.1c0.7-0.4,1.4-0.9,2.1-1.4
		c0.1-0.1,0.3-0.2,0.3-0.4c0.2-0.2,0.4-0.4,0.6-0.5c0,0,0.1,0,0.1,0c0,0.1,0,0.2,0,0.2c0.2-0.1,0.4-0.5,0.8-0.4c0,0.1,0,0.2,0,0.3
		c-0.1,0.2-0.3,0.4-0.5,0.5c0.4,0.2,0.8,0.5,1.2,0.8s0.9,0.6,1.4,0.9c0.1,0.1,0.3,0.2,0.2,0.4s-0.3,0.1-0.4,0.1
		c-0.5-0.1-0.7,0.1-0.9,0.6c-0.1,0.3-0.2,0.5-0.3,0.8c0,0.2,0,0.3,0.2,0.3c0.5,0,1,0,1.5,0c0.1,0,0.4-0.1,0.4,0.2
		c-0.1,0.1-0.3,0.1-0.5,0.1h-3c-0.5,0-0.5,0-0.6-0.6c0-0.1,0-0.2,0-0.3c-0.1-0.9,0-1.8,0-2.8C246.5,56.9,245.5,57.5,244.5,58.3z"/>
	<path class="st3" d="M266.4,57.9c0.1,0.3-0.1,0.6-0.3,0.7c0-0.3-0.1-0.6-0.4-0.7c-0.8-0.4-1.5-1-2.3-1.4c-0.1-0.1-0.2-0.2-0.3-0.1
		c-0.1,0.9,0,1.8,0,2.7c0,0.2,0,0.3,0,0.5c0,0.2-0.1,0.3-0.2,0.3s-0.2-0.2-0.2-0.3c0-0.8,0-1.5,0-2.3c0-0.3,0-0.6-0.1-0.9
		c-0.4,0-0.6,0.3-0.9,0.5c-0.7,0.5-1.5,0.9-2.1,1.4c-0.2,0.2-0.1,0.5-0.1,0.8s0.1,0.6-0.1,0.8s-0.3,0-0.3-0.2c0-0.1,0-0.3-0.1-0.4
		c-0.1-0.3,0-0.7-0.2-0.9s-0.8-0.4-1-0.8c0-0.1,0-0.2,0-0.3c0.2-0.1,0.3,0,0.4,0.1s0.5,0.3,0.7,0.4c0.2,0.1,0.4,0.1,0.6,0
		c0.9-0.6,1.7-1.1,2.6-1.7c0.3-0.2,0.3-0.2,0-0.5c-0.9-0.6-1.7-1.2-2.6-1.7c-0.1-0.1-0.3-0.1-0.4-0.2c-0.1-0.1-0.1-0.3-0.1-0.4
		c0.2-0.4,0.2-0.5,0.5-0.1c1,0.7,2,1.4,3.1,2c0,0,0.1,0,0.1,0c0-0.8,0-1.6,0-2.4c-0.1-0.5,0-1.1,0.1-1.6c0.1-0.1,0.2-0.1,0.3,0
		c0.1,0.2,0.1,0.3,0.1,0.5c0,1,0,2,0,3c0,0.2,0,0.3,0.1,0.5c0.3,0.1,0.4-0.2,0.6-0.3c0.5-0.3,1.1-0.7,1.6-1c0.3-0.3,0.8-0.4,1-0.8
		c0-0.7,0-1.3,0-2c0-0.2,0-0.4,0-0.6s0-0.4,0.2-0.4s0.2,0.2,0.2,0.4c0,0.7,0,1.4,0,2.1c0,0.2,0,0.4,0,0.6c0,0.1,0.1,0.1,0.1,0.2
		c0.1,0.1,0.1,0.1,0.2,0.2c0,0.8,0,1.6,0,2.4c0,0.1,0,0.3-0.1,0.4c-0.1-0.2-0.2-0.4-0.1-0.6c0-0.5,0-0.9,0-1.4
		c0-0.3-0.1-0.5-0.3-0.6s-0.3,0.2-0.5,0.3s-0.2,0.2-0.4,0.2c-0.7,0.5-1.4,0.9-2,1.4c-0.3,0.2-0.3,0.2,0,0.4c0.5,0.3,0.9,0.6,1.4,0.9
		s0.9,0.6,1.4,0.9C266.4,57.8,266.4,57.8,266.4,57.9z"/>
	<path class="st3" d="M247.4,55.6c0.1,0.1,0.1,0.2,0,0.2l-2.8,1.8c-0.2,0.2-0.4,0.1-0.5-0.2c0-0.1,0-0.2-0.1-0.2
		c-0.3-1.2-0.3-2.4-0.2-3.6c0.2-0.3,0.4-0.4,0.7-0.1c0.5,0.4,1,0.7,1.6,1c0.3,0.3,0.7,0.5,1,0.7C247.2,55.3,247.3,55.4,247.4,55.6z"
		/>
	<path class="st3" d="M263,56l2.5,1.6c0.1,0.1,0.2,0.1,0.3,0.2c0.3,0.1,0.5,0.3,0.2,0.7c-0.4,0.5-1,0.9-1.6,1.1
		c-0.2,0.2-0.5,0.3-0.7,0.2h-0.2c-0.6,0.1-0.6,0.1-0.6-0.6c0-0.9,0-1.9,0-2.8C263,56.3,263,56.2,263,56z"/>
	<path class="st3" d="M267.1,37.6v5.6c0,0-0.1,0-0.1,0c-0.1-0.2-0.1-0.4-0.1-0.6c0-1,0-2,0-3c0-0.1,0-0.3,0-0.4
		c-0.1-0.3-0.3-0.4-0.5-0.2c-0.9,0.6-1.9,1.2-2.8,1.9c-0.2,0.1-0.1,0.2,0,0.3c0.7,0.5,1.5,1,2.3,1.5c0.1,0.1,0.3,0.2,0.4,0.3
		c0.1,0.1,0.2,0.2,0.4,0.1c0.2-0.1,0.3,0,0.3,0.3c-0.1,0.3-0.1,0.6-0.1,0.9c-0.1,0.1,0,0.4-0.2,0.4s-0.2-0.3-0.2-0.5
		c0-0.2,0-0.4,0-0.6c-1-0.8-2-1.3-3-2c-0.2-0.1-0.2-0.1-0.2,0.1c0,0.4,0,0.8-0.1,1.2c0,0.1-0.2,0.1-0.3,0.1
		c-0.2-0.2-0.1-0.5-0.1-0.7s0-0.5-0.1-0.8c-0.9,0.5-1.6,1.1-2.5,1.6c-0.1,0.1-0.2,0.1-0.3,0.1c-0.3-0.1-0.2-0.3,0-0.5
		c0.4-0.3,0.8-0.6,1.2-0.8c0.4-0.2,0.7-0.5,1.1-0.7c0.2-0.1,0.2-0.2,0-0.4s-0.8-0.5-1.1-0.7c-0.1-0.2-0.4-0.3-0.3-0.6
		c0.2-0.1,0.3,0,0.5,0.1c0.4,0.2,0.7,0.4,1.1,0.7s0.4,0.2,0.4-0.2c0-0.8,0-1.6,0-2.4c0-0.2,0-0.5,0.2-0.6s0.3,0.2,0.3,0.5
		c0,0.8,0,1.6,0,2.5c0,0.2,0,0.3,0.1,0.5c0.1,0.1,0.2,0,0.3-0.1c0.8-0.6,1.6-1.1,2.5-1.6c0.3-0.2,0.5-0.5,0.4-0.8
		c-0.1-0.6-0.1-1.1,0-1.7c0-0.4,0.2-0.4,0.4-0.3c0.1,0.5,0.1,1,0.1,1.5c0,0.2,0,0.5,0,0.7c0.1-0.2,0-0.3,0.1-0.4c0,0,0-0.1,0-0.1
		C267,37.5,267.1,37.6,267.1,37.6z"/>
	<path class="st3" d="M244.5,58.3c0-0.1,0-0.3,0.1-0.3l3-2v2.9c0,0.2,0,0.5,0,0.7c0,0.1,0,0.2-0.2,0.2c-0.3,0-0.6,0-0.9-0.2
		c-0.7-0.1-1.4-0.5-1.9-1L244.5,58.3z"/>
	<path class="st3" d="M267,23.9v0.4c-0.7-0.2-1.2,0.4-1.7,0.7l-0.1,0.1c-0.1,0.1-0.4,0.2-0.5,0.3c-0.4,0.3-0.9,0.6-1.4,0.8
		c0.4,0.2,0.8,0.6,1.3,0.8s0.7,0.4,1,0.7c0.2,0.1,0.3,0.2,0.2,0.5c-0.1,0.1-0.3,0.1-0.4,0c-0.8-0.4-1.6-0.9-2.4-1.5
		c-0.3-0.2-0.5-0.5-0.5-0.9c0-1.2,0-2.5,0-3.7c0-0.2,0-0.5-0.2-0.7c-0.6-0.5-1.2-0.8-1.8-1.2c-0.2-0.1-0.5-0.2-0.3-0.5
		s0.4-0.1,0.6,0c0.6,0.3,1.1,0.7,1.7,1.1c0.2,0.2,0.5,0.2,0.7,0c0.8-0.6,1.6-1.1,2.5-1.6c0.2-0.1,0.4-0.3,0.7,0
		c0,0.3-0.3,0.4-0.5,0.6c-0.8,0.5-1.5,1-2.3,1.5c-0.3,0.2-0.5,0.5-0.4,0.9c0.1,1,0.1,2.1,0,3.1c0,0.1,0,0.4,0.1,0.4s0.2-0.1,0.3-0.2
		c0.8-0.5,1.6-1,2.4-1.6c0.3-0.2,0.4-0.5,0.4-0.8c0-1.3,0-2.7,0-4c0.1-0.2-0.1-0.6,0.2-0.6s0.3,0.4,0.3,0.6c0,1.3,0,2.5,0,3.8
		C266.7,23.2,266.8,23.6,267,23.9z"/>
	<path class="st3" d="M265.1,24.9c0.4-0.3,0.9-0.5,1.3-0.9s0.4,0.1,0.6,0.2v1c-0.3,0.1-0.3,0.4-0.4,0.6c-0.2,0.4-0.5,0.7-0.9,0.8
		c-0.4,0.2-0.8,0.3-1.2,0.4c-0.5-0.3-0.9-0.6-1.3-0.9c0.5-0.3,1-0.7,1.5-0.9C264.8,25.2,265,25.2,265.1,24.9z"/>
	<path class="st3" d="M246,54.6c-0.5-0.3-1-0.6-1.5-1c-0.3-0.2-0.5-0.3-0.7,0c-0.1-0.2-0.1-0.4-0.1-0.7c0-1.5,0-3,0-4.4
		c0-1.7,0-3.5,0-5.2V43c0,0,0.1,0,0.1,0c0.2,0.1,0.5,0,0.7-0.1c0.2-0.2,0.5-0.3,0.7-0.4s0.3-0.2,0.4,0c0.1,0.2,0,0.4-0.2,0.4
		c-0.3,0.2-0.5,0.3-0.8,0.5c-0.1,0.1-0.2,0.1-0.2,0.2c0,0.1-0.1,0.1-0.1,0.2c-0.1,1.3-0.1,2.6-0.1,3.9c0,0.1,0,0.1,0,0.2l0.1,0.1
		c0.1,0.1,0.1,0.3,0,0.4c-0.1,0.4-0.2,0.7-0.1,1.1c0.1,0.6,0,1.3,0.1,1.9c-0.1,0.4,0,0.9,0,1.4c0,0.3,0.1,0.4,0.3,0.5
		c0.5,0.3,1,0.6,1.5,1C246.2,54.5,246.2,54.6,246,54.6z"/>
	<path class="st3" d="M264.5,27.1c0,0,0.1-0.1,0.1-0.1c0.5-0.1,1-0.5,1.5-0.6c0.3,0,0.1-0.4,0.4-0.5s0-0.4,0.3-0.4c0,0,0,0,0-0.1
		c0-0.4,0-0.4,0.3-0.2v2.1c0.1,0.7,0,1.3-0.3,1.9c-0.1,0.2-0.3,0.2-0.5,0.1c0,0-0.1-0.1-0.1-0.2c0.1-0.3,0-0.6-0.3-0.8
		c-0.1,0-0.1-0.1-0.1-0.2c-0.1-0.4-0.5-0.4-0.7-0.6S264.7,27.2,264.5,27.1z"/>
	<path class="st3" d="M267,43.3L267,43.3c0.1,1.6,0.1,3.1,0.1,4.7c0,0.3,0,0.5,0,0.8l0,0l-0.1,0.1c-0.2,0.2-0.1,0.4-0.1,0.6
		c0,1.1,0,2.2,0,3.2c0,0.2,0,0.3-0.1,0.5c-0.1-0.1-0.1-0.3-0.1-0.4c0-0.9,0-1.8,0-2.8c-0.2,0.1-0.1,0.3-0.1,0.4c0,0.8,0,1.6,0,2.4
		c0,0.1,0,0.3-0.1,0.4c-0.1-0.1-0.2-0.3-0.1-0.4c0-0.6,0-1.2,0-1.8s0-1.2,0-1.8c0-0.1,0-0.3-0.1-0.4c0-0.1-0.1-0.2-0.1-0.2
		c-0.1-0.1-0.1-0.2-0.1-0.4c0-0.1,0.1-0.2,0.1-0.3c0.1-0.1,0.1-0.3,0.1-0.4c0-1.1,0-2.1,0-3.2c0-0.2,0-0.4,0-0.6c0,0,0-0.1,0.1-0.1
		c0.2,0.2,0.1,0.4,0.1,0.6s0,0.3,0.1,0.5c0.1-0.1,0-0.3,0.1-0.4c0.1,0.1,0.2,0.2,0.1,0.4c0,1,0,2.1,0,3.1c0-0.2,0-0.4,0-0.7
		c0-1,0-2.1,0-3.1C266.8,43.7,266.9,43.5,267,43.3L267,43.3z"/>
	<path class="st3" d="M266.7,19.1C266.7,19.1,266.7,19.1,266.7,19.1c-0.1-0.2,0-0.5-0.2-0.5s0,0.2,0,0.3s-0.1,0.1-0.2,0.1
		c0,0-0.1,0-0.1,0c0,0,0,0,0,0c-0.2-0.2-0.4,0.1-0.6,0.1c0-0.2,0-0.5,0-0.7c0.1-0.1,0.3-0.1,0.4-0.2c0.1,0,0.2-0.1,0.2-0.2
		c0-0.5,0.1-1,0.1-1.5c0.1-0.3,0.1-0.6,0-0.9c0-0.3,0-0.7,0-1c0-0.3,0-0.6-0.2-0.9c0-0.1,0-0.2,0.1-0.3c0.2,0,0.4,0,0.6,0
		s0.3,0.2,0.2,0.4c-0.1,0.2-0.2,0.4-0.2,0.6c0,1.1,0,2.3,0,3.5c0,0.2,0.1,0.4,0.2,0.6v0.7C266.8,19.4,266.8,19.2,266.7,19.1z"/>
	<path class="st3" d="M266.3,29.3c0.1-0.1,0.5,0.2,0.4-0.3c0-0.2,0.3-0.4,0.3-0.6s0.2-0.7,0.1-1.1c0.1,0.1,0.1,0.3,0.1,0.5
		c0,1,0,2-0.1,2.9c0,0.8,0,1.7,0,2.5c0,0.1-0.1,0.3-0.2,0.3c0,0-0.1,0-0.1,0c-0.2-0.4-0.1-0.9-0.1-1.3c0-0.6,0-1.1,0-1.7
		c0-0.1,0-0.3-0.1-0.4s-0.2,0-0.3,0s-0.2,0-0.2-0.1c-0.1-0.1,0-0.2,0.1-0.3C266.2,29.6,266.2,29.4,266.3,29.3z"/>
	<path class="st3" d="M263.8,59.7l0.7-0.1c0.4,0.2,0.9,0,1.4,0.2c-0.1,0.2-0.3,0.2-0.4,0.2c-5.8,0.2-11.6,0-17.5,0.1
		c-0.1,0-0.2,0-0.3-0.1c0,0,0.1-0.1,0.1-0.1c1.3,0,2.5,0.1,3.8,0c2.4-0.1,4.8,0,7.2-0.1c1.2,0,2.3,0,3.5,0c0.4,0,0.9,0,1.3,0
		C263.6,59.8,263.7,59.8,263.8,59.7z"/>
	<path class="st3" d="M266.5,53.5c0.4-0.1,0.5,0.1,0.6,0.5c0,0.7,0,1.5,0,2.2c-0.1,0.5-0.2,1-0.4,1.4c-0.1,0.1-0.1,0.2-0.2,0.2v-0.1
		c0-0.4,0-0.9,0.2-1.3c0-0.5,0.1-0.9,0.1-1.4c0-0.2-0.1-0.3-0.2-0.4c-0.1-0.1-0.2-0.2-0.3-0.4c-0.1-0.2-0.1-0.4,0-0.5c0,0,0,0,0,0
		C266.4,53.7,266.4,53.6,266.5,53.5z"/>
	<path class="st3" d="M266.7,19.1l0.3,0.2c0,1.5,0,3.1,0,4.6c-0.2-0.1-0.3-0.3-0.3-0.6c0-1,0-2,0-2.9
		C266.7,20,266.7,19.5,266.7,19.1z"/>
	<path class="st3" d="M267,18.6c-0.3-0.1-0.3-0.3-0.3-0.6c0-1.1,0-2.3,0-3.4c0-0.3,0.1-0.6,0.3-0.7l0,0c0.1,0.2,0.1,0.3,0,0.5v0.2
		c0.1,0.3,0.2,0.6,0.1,0.9c-0.1,1,0,2-0.1,3L267,18.6L267,18.6z"/>
	<path class="st3" d="M266.8,33.5c0.2-0.3,0.3-0.6,0.2-0.9c0-0.7,0-1.3,0-2c0.1,0.1,0.1,0.2,0.1,0.3c0,1.4,0,2.9,0,4.3
		c0,0-0.1,0-0.1,0c0,0,0,0,0,0c0-0.1,0-0.1,0-0.2C267,34.5,266.9,34,266.8,33.5z"/>
	<path class="st3" d="M267.1,53.3c-0.1,0-0.2,0-0.2-0.1c0-1.4,0-2.7,0-4c0-0.2,0-0.3,0.1-0.4l0,0c0,0.1,0.1,0.2,0.1,0.2
		C267.1,50.4,267.1,51.9,267.1,53.3z"/>
	<path class="st3" d="M247.7,59.9h-0.1h-1.3c0.1-0.3,0.3-0.1,0.4-0.3c0.3-0.1,0.6,0.1,0.8,0.1C247.6,59.8,247.7,59.8,247.7,59.9z"/>
	<path class="st3" d="M267,35.3L267,35.3c0.1,0.8,0.1,1.6,0.1,2.3H267c-0.1-0.1-0.1-0.2-0.1-0.3c0-0.6,0-1.2,0-1.8
		C266.9,35.5,267,35.3,267,35.3z"/>
	<path class="st3" d="M243.7,12.9c0-0.9,0-1.8,0.2-2.7c0.2-1,0.9-1.9,1.9-2.3c0.6-0.2,1.2-0.3,1.8-0.4c0,0,0.1,0,0.1,0c0,0,0,0,0,0
		c0,0.3,0,0.6,0,0.9c0,0.2-0.1,0.4-0.3,0.4c0,0,0,0,0,0c-0.6,0.1-1.1,0.5-1.5,0.9c-0.5,0.5-0.7,1.2-0.7,1.9c0,0.5,0,1-0.1,1.4
		c-0.2,0.3-0.5,0.4-0.7,0.6c0.1,0,0.3-0.1,0.4-0.2c0.1-0.1,0.3-0.1,0.4,0.1c0.1,1.1,0.1,2.3-0.1,3.4c0,0.3,0,0.7-0.1,1
		c0,0,0,0.1,0,0.1c-0.1,0.1-0.4,0-0.4,0.3c-0.1,0.2-0.2,0.3-0.4,0.4c-0.2,0.1-0.3-0.1-0.2-0.3s0.2-0.2,0.2-0.3
		c-0.2,0.1-0.1,0.5-0.4,0.6l0,0c0-0.5,0-1,0-1.6c0-1.3,0-2.6,0-3.9C243.7,13.1,243.7,13,243.7,12.9z"/>
	<path class="st3" d="M251.8,7.3c0,0.2,0.1,0.3,0.3,0.3c0.2,0,0.5,0,0.7,0c0.7-0.1,1.5-0.1,2.2-0.1c0.1,0,0.1,0,0.2,0
		c0.4-0.2,0.8-0.2,1.2-0.2c0.7,0,1.5-0.1,2.2-0.1c0.2,0,0.5,0.1,0.7,0.2c-0.1,0.1-0.2,0.1-0.3,0.1c-1,0-1.9,0-2.9,0
		c-0.3,0-0.5,0.2-0.5,0.4c-0.1,0.3-0.1,0.5-0.1,0.8c0,0.4,0,0.8,0,1.2c0,0.1,0,0.3,0,0.4c0,0.2,0,0.4,0,0.6s-0.3,0.1-0.4,0
		c-0.4-0.2-0.8-0.5-1.2-0.8c-0.1-0.1-0.2-0.2-0.4-0.2c-0.5-0.3-0.9-0.6-1.4-0.9c-0.2-0.1-0.3-0.4-0.2-0.6c0.1-0.3,0-0.6-0.1-0.8
		c0,0,0-0.1-0.1-0.1C251.5,7.3,251.5,7.2,251.8,7.3z"/>
	<path class="st3" d="M243.7,24.3v-5c0.2-0.2,0.3-0.5,0.6-0.3c0,0.1,0.1,0.2,0.1,0.2c0.1,1,0.2,2,0.2,3c0,0.6-0.2,1.1-0.2,1.6
		C244.3,24,244,24.2,243.7,24.3L243.7,24.3z"/>
	<path class="st3" d="M247.8,7.5L247.8,7.5c0-0.2,0.1-0.3,0.2-0.1s0.3,0.1,0.4,0.1h2.1c0.3,0,0.6,0,0.9,0.1l0,0
		c0.1,0.1,0.1,0.2,0.1,0.3c-0.2,0.6-0.4,0.6-0.9,0.5c-0.4-0.1-0.7-0.2-1.1-0.3c-0.2-0.1-0.4,0-0.5,0.2c-0.3,0.4-0.7,0.3-0.9-0.2
		c0-0.1-0.1-0.1-0.1-0.2C247.9,7.7,247.8,7.6,247.8,7.5z"/>
	<path class="st3" d="M243.7,12.9c0,2,0,4,0,5.9c-0.1-0.1-0.1-0.2-0.1-0.4c0-1.7,0-3.4,0-5.2C243.7,13.1,243.6,13,243.7,12.9z"/>
	<path class="st3" d="M244.3,18.9c-0.2,0-0.3,0.3-0.5,0.3v-0.4c0-0.3,0.4-0.4,0.2-0.8c0,0,0.1-0.1,0.1-0.1c0.1,0,0.1,0.1,0.1,0.1
		c0.1,0.1,0.1,0.2,0,0.2c0,0.1-0.1,0.1-0.2,0.2s0,0.2,0.1,0.2C244.2,18.7,244.3,18.7,244.3,18.9C244.3,18.8,244.3,18.8,244.3,18.9z"
		/>
	<path class="st3" d="M243.7,28.2v-1.8c0,0,0.1,0,0.1,0c0,0,0,0,0,0c0.1,0.6,0.1,1.1,0.1,1.7c0,0.2,0,0.4,0,0.6c0,0-0.1,0-0.1,0
		c0,0,0,0,0,0c-0.1-0.1-0.1-0.2-0.1-0.4L243.7,28.2z"/>
	<path class="st3" d="M243.7,26.4L243.7,26.4c-0.1-0.6-0.1-1.2-0.1-1.8c0-0.1,0-0.3,0.1-0.4l0,0c0.1,0.2,0.2,0.3,0.1,0.5
		c0,0.5,0,1,0,1.4C243.9,26.3,243.8,26.4,243.7,26.4z"/>
	<path class="st3" d="M258,4.4c-0.1,0-0.2,0-0.2-0.2c0-0.1,0.1-0.2,0.2-0.2c0,0,0,0,0,0c0.1,0,0.2,0,0.2,0.1c0,0,0,0.1,0,0.1
		C258.1,4.3,258.1,4.3,258,4.4z"/>
	<path class="st3" d="M243.8,38.9c-0.1-0.4-0.1-0.8-0.1-1.2c0-2.6,0-5.1,0-7.7c0-0.2,0-0.3,0.1-0.5c0.2,0.2,0.1,0.4,0.1,0.6
		c0,0.4,0,0.9,0,1.3s0,1,0,1.6c0.1-0.4,0-0.6,0.2-0.9s0.3,0.1,0.3,0.3c0,0.2,0,0.3,0,0.5c0,0.2,0.3-0.1,0.3,0.1s-0.1,0.4-0.2,0.6
		c-0.1,0.2-0.1,0.4,0,0.6c0,1.1,0,2.1,0,3.2c0,0.5,0,1,0.5,1.2c0.1,0,0.1,0.1,0.1,0.2c0,0.3-0.1,0.3-0.3,0.2
		C244.4,39,244.1,38.9,243.8,38.9z"/>
	<path class="st3" d="M243.8,38.9c0.2-0.3,0.5-0.1,0.8,0s0.3,0.3,0.5,0.1l0,0c0,0.1,0,0.2,0,0.2c-0.4,0-0.5,0.3-0.5,0.7
		c0,0.1,0,0.2,0,0.3c0.1,0.5,0.1,0.9,0,1.4c0,0,0,0.1-0.1,0.1c-0.4,0-0.4,0-0.3-0.5c0,0.6-0.1,1.1-0.2,1.7h-0.1L243.8,38.9z"/>
	<path class="st3" d="M243.8,31.6v-2.9h0.1c0.1-0.1,0.2,0,0.3,0.1c0.1,0.4,0.1,0.9,0.1,1.3c0,0.3,0,0.5,0.3,0.7
		c0.1,0.6,0.1,1.3,0,1.9c0,0.2,0,0.4-0.3,0.4c0-0.2,0-0.4,0-0.6s0-0.3-0.2-0.3S244,31.8,243.8,31.6z"/>
	<path class="st3" d="M259,7.5h0.3c1.3,0,2.6,0,3.8,0c0.8,0,1.5,0.2,2.2,0.5c0.7,0.4,1.2,1.1,1.5,1.9c0.2,0.6,0.3,1.3,0.3,2
		c-0.1,0.5,0,1.1,0.1,1.6c0.1,0.1,0.1,0.3-0.1,0.4l0,0c0-0.2,0-0.4-0.2-0.2s-0.4,0.1-0.6-0.1c-0.4-0.1-0.7-0.3-1-0.5
		c-0.6-0.4-1.1-0.8-1.8-1.1c-0.1-0.1-0.3-0.2-0.3-0.4s0.2-0.3,0.3-0.4c0.3-0.2,0.6-0.6,1-0.6c-0.4,0-0.6,0.3-0.9,0.5
		c-0.5,0.3-0.5,0.3-0.7-0.3c0,0.2,0,0.5-0.3,0.5c0,0-0.1,0,0,0.1c0.2,0.3,0,0.4-0.2,0.5c-0.8,0.5-1.5,1-2.3,1.5
		c-0.2,0.1-0.3,0.2-0.5,0.3c-0.4,0.3-0.6,0.3-1-0.1l-0.1-0.1c-0.4-0.2-0.8-0.5-1.2-0.8c-0.4-0.3-0.8-0.6-1.2-0.7
		c-0.1,0-0.2-0.1-0.2-0.2s-0.1-0.4,0.1-0.6c0.2-0.1,0.4-0.3,0.6-0.4c0.5-0.4,1.1-0.7,1.6-1.1c0.2-0.1,0.5-0.3,0.7-0.4
		c0.1-0.1,0.3-0.1,0.4-0.1c0.4,0.2,0.8,0.5,1.1,0.7c-0.3-0.2-0.6-0.4-0.9-0.7c-0.2-0.1-0.3-0.3-0.3-0.5c0-0.3,0-0.7-0.2-0.9
		C258.9,7.7,258.9,7.6,259,7.5z"/>
	<path class="st3" d="M267.1,18.4c-0.1-0.1-0.1-0.2-0.1-0.4c0-1.2,0-2.4,0-3.5c0.2,0.3,0.5,0.7,0.2,1.1c0,0.2,0,0.4,0,0.6
		c0,0.7,0,1.4,0,2.1C267.2,18.4,267.1,18.4,267.1,18.4z"/>
	<path class="st3" d="M267,13.8c0.1-0.1,0.1-0.2,0.1-0.4c0.3,0.3,0,0.6-0.1,0.9V13.8z"/>
	<path class="st3" d="M251.2,57.7l-1.7-1.2c0.3-0.6,0.6-0.7,1.1-0.5c0.2,0.1,0.3-0.1,0.5-0.2l0.1-0.1c0.2,0,0.5,0.2,0.7-0.2
		c0,0,0.1,0,0.1,0s0.3,0.1,0.4-0.2s0.3-0.2,0.4,0s0.3,0.1,0.4-0.1c0.1-0.2,0.3-0.4,0.5-0.5c0.1,0,0.1,0,0.1,0.1
		c0.1,0.3,0.1,0.6,0.1,0.9c0-0.5,0.1-0.6,0.4-0.4c0.1,0.1,0.3,0.1,0.4,0.1c0.2,0,0.3,0.1,0.3,0.3c0,0.2-0.1,0.3-0.2,0.4
		c-0.3,0.2-0.7,0.4-1,0.7c-0.2,0.1-0.4,0.2-0.6,0.4c-0.4,0.3-0.9,0.6-1.3,0.9S251.4,58,251.2,57.7z"/>
	<path class="st3" d="M247.7,59.9l-0.2-0.1c0.2-0.1,0.1-0.3,0.1-0.4s0-0.3,0-0.5c0,0.1,0,0.2,0,0.2c0,0.7,0,0.7,0.6,0.7h2.9
		c0.1,0,0.3,0.1,0.4-0.1l0-0.1c0,0,0.1,0,0.1,0c0.9-0.1,1.8,0.1,2.7,0c0.4,0,0.5,0,0.5-0.5c0-1,0.1-2,0-3.1c0.1-0.2,0.2-0.2,0.3,0
		c0,0.1,0,0.3,0,0.4c0,0.9,0,1.9,0,2.9c0-1,0-1.9,0-2.9c0-0.6,0.1-0.7,0.6-0.4c0.4,0.3,0.8,0.5,1.1,0.7c0.1,0.1,0.3,0.2,0.3,0.4
		c0,0.2-0.1,0.3-0.2,0.5s-0.2,0.3-0.4,0.1c-0.2-0.1-0.5-0.2-0.8-0.1c-0.2,0-0.3,0.1-0.3,0.4c0,0.4,0,0.8,0,1.2
		c0,0.2,0.1,0.3,0.3,0.3c0.8,0,1.7,0,2.5,0c0.1,0,0.2-0.1,0.3-0.2c0.1-0.2,0-0.4,0.2-0.5c0.1,0.1,0.1,0.3,0,0.5
		c0,0.2,0.1,0.3,0.2,0.2c0.1-0.1,0.3-0.2,0.5-0.1c0.8,0.1,1.5,0,2.3,0c0.5,0,0.5,0,0.5-0.6c0-0.8,0-1.6,0-2.4c0-0.2,0-0.4,0-0.6
		c0.3-0.1,0.2,0.1,0.2,0.2c0,1,0,2,0,3.1c0,0.1-0.1,0.4,0.1,0.4s0.1-0.2,0.1-0.4c0-1,0-2,0-3c0-0.1-0.1-0.3,0.1-0.4
		c0,1.1,0,2.2,0,3.2c0,0.4,0,0.6,0.4,0.4c0.1,0,0.3,0,0.4,0c0,0.3-0.2,0.2-0.3,0.2h-4.2L247.7,59.9z"/>
	<path class="st3" d="M251.2,57.7c0.2,0.2,0.6,0.2,0.8,0c0,0,0,0,0,0c0.4-0.3,0.8-0.5,1.2-0.8c0.1-0.1,0.2,0,0.3,0.1
		s-0.2,0.3-0.3,0.4c-0.4,0.3-0.8,0.5-1.2,0.8c-0.1,0.1-0.2,0.3-0.1,0.4c0.1,0.3,0.1,0.7,0,1h-2.2c0-0.6,0.1-1.2,0.4-1.7
		c0.1-0.3,0.5-0.3,0.8-0.3S251,57.9,251.2,57.7z"/>
	<path class="st3" d="M250.6,56.2c-0.1,0-0.2,0-0.3-0.1c-0.1-0.1-0.2-0.1-0.3,0c-0.1,0.3-0.4,0.3-0.6,0.5l-1.3-0.8l0.6-0.5
		c0.5-0.5,1.1-0.9,1.8-1.2c0.2,0.3,0.5,0.5,0.8,0.6l0,0c0.2,0.1,0.1,0.2,0.1,0.4s0.3-0.1,0.3,0.1s-0.1,0.3-0.2,0.4s-0.4,0.1-0.6,0.2
		l0,0C251,56,250.8,56,250.6,56.2z"/>
	<path class="st3" d="M248.8,54.9c-0.3,0.2-0.6,0.4-0.9,0.6l0-0.4c-0.2-0.3-0.2-0.6-0.1-0.9c0.1-0.2,0-0.5-0.1-0.6
		c0-0.1,0-0.3,0-0.4c0.3-0.1,0.5-0.3,0.7,0.2c0,0.1,0.1,0,0.2,0c0.2-0.2,0.5-0.2,0.7,0c0.1,0.1,0.1,0.2,0.2,0.3
		c0.1,0.2,0.3,0.5,0.4,0.7C249.6,54.6,249.2,54.8,248.8,54.9z"/>
	<path class="st3" d="M248.8,54.9l1.1-0.7c0.3-0.4,0.7-0.6,1.1-0.6c0.1,0,0.1-0.2,0.2-0.2c0.1,0,0.1,0.1,0.1,0.2
		c-0.2,0.3-0.5,0.5-0.8,0.6l-1.8,1.1V54.9z"/>
	<path class="st3" d="M246,54.6c0.1-0.1,0.1-0.1,0.1-0.2c0.1-0.1,0.2,0,0.3,0.1c0.3,0.2,0.6,0.3,0.8,0.5s0.4,0.2,0.4-0.2
		c0-0.1,0-0.1,0.1-0.1c0,0,0.1,0,0.1,0c0.1,0.1,0.2,0.2,0.1,0.4s-0.4,0.3-0.5,0.5C246.9,55.3,246.4,55,246,54.6z"/>
	<path class="st3" d="M248,55c0-0.2-0.2-0.2-0.2-0.4c-0.2-0.4-0.2-0.8,0-1.1c0.2,0.1,0.3,0.1,0.2,0.4C247.9,54.3,248,54.6,248,55
		L248,55z"/>
	<path class="st3" d="M261,40c0.4,0.2,0.8,0.5,1.2,0.8c0.3,0.2,0.3,0.3,0,0.5c-0.8,0.5-1.6,1-2.4,1.6c-0.1,0.1-0.2,0.2,0,0.3
		c0,0.1,0,0.2-0.1,0.2c-0.4,0.2-0.3,0.6-0.3,1s0.1,0.9-0.2,1.3l0,0c0.3,0.4,0.1,0.9,0.2,1.3c0,0,0,0.1,0,0.1c0,0.2-0.1,0.5,0,0.7
		s0.3-0.1,0.5-0.1h0.1c0,0.1,0,0.2,0,0.2c-0.1,0.2-0.2,0.4-0.4,0.5c0.2,0.1,0.4,0.1,0.4,0.4s0.1,0.3-0.1,0.4
		c-0.5-0.2-0.5-0.2-0.5,0.5c0,0.4,0,0.8,0,1.2c0,0.6,0,1.2,0,1.8c0.1,0.2,0,0.4-0.1,0.6l-0.2-0.3l-0.1,0.3h-0.1c0,0,0-0.1-0.1-0.1
		c0-0.1,0-0.2,0-0.4c-0.1-1,0-2,0-3c0-0.3,0-0.6,0-0.9c0-0.2,0-0.4-0.2-0.4c-0.5-0.2-0.8-0.6-1.3-0.8c-0.1-0.1-0.2-0.2-0.2-0.3
		c0-0.1,0.1-0.2,0.2-0.2c0.4,0,0.6,0.4,1,0.5c0.1,0.1,0.3,0.2,0.4,0.2s0.1,0,0.1,0c0-1.4,0.1-2.8,0-4.2c0-0.3-0.2-0.4-0.4-0.5
		c-0.5-0.4-1-0.8-1.6-1.1c-0.2-0.1-0.3,0-0.4,0c-0.3-0.2-0.6-0.4-0.9-0.6c-0.1-0.2,0.1-0.4,0.1-0.7c0,0,0-0.1,0-0.1
		c0.1-0.1,0.2-0.2,0.4-0.1c0,0.3,0.3,0.5,0.5,0.6c0.7,0.3,1.4,0.4,2.1,0.4c0.4,0,0.9,0.2,1.4-0.2c0.3-0.2,0.5-0.5,0.6-0.8
		C260.8,40.2,260.8,40,261,40z"/>
	<path class="st3" d="M259,53.5c0.1-0.1,0.2-0.1,0.3,0l3.1,2.1l0.2,0.1l-3.2,2.1c-0.1,0.1-0.3,0.1-0.5,0c-0.4-0.3-0.7-0.5-1.1-0.7
		c-0.1,0-0.1-0.1-0.2-0.2c0-0.1-0.1-0.2-0.1-0.4c-0.2-0.4,0-0.8,0.4-1c0,0,0,0,0,0c0.5-0.2,0.5-0.2,0.5-0.8c0-0.2,0-0.4,0.2-0.6
		c0.1-0.1,0.2-0.3,0.1-0.4C258.7,53.6,258.8,53.5,259,53.5z"/>
	<path class="st3" d="M259.2,53.2v-0.6c-0.1-0.1,0-0.2,0.1-0.2c0.3,0.1,0.5-0.1,0.7-0.3s0.4-0.3,0.8,0c0.3,0.2,0.6,0.3,1,0.3
		c0.6,0.1,0.8,0.2,0.8,1s0,1.1,0,1.7c0,0.1,0.1,0.3-0.1,0.3L259.2,53.2z"/>
	<path class="st3" d="M262.5,56c0.1,0.1,0.1,0.3,0.1,0.4c0,0.9,0,1.9,0,2.8c0,0.3-0.1,0.5-0.4,0.4c-1,0-2,0-3,0c0-0.4,0-0.8,0-1.2
		c0-0.2,0.1-0.4,0.2-0.4c0.1,0,0.3,0,0.4,0.1c0.2,0.3,0.6,0.4,0.9,0.2c0,0,0.1-0.1,0.1-0.1c0.2-0.1,0.4-0.2,0.6-0.2
		c0.2,0,0.4-0.1,0.3-0.4s-0.1-0.7-0.1-1L262.5,56z"/>
	<path class="st3" d="M266.5,53.5c0.3,0.1,0,0.2,0,0.3c-0.4,0.2-0.2,0.5,0,0.6c0.4,0.2,0.6,0.8,0.3,1.2c0,0,0,0,0,0
		c-0.1,0.3,0,0.7-0.1,1c-0.1,0.4-0.2,0.7-0.3,1.1c-0.5-0.2-1-0.5-1.4-0.9c0.2-0.8,0.2-0.8-0.5-1.1c-0.3-0.1-0.6-0.2-0.9-0.4
		c0.7-0.5,1.4-0.9,2.1-1.4c0.1,0,0.3-0.1,0.3-0.2C266.2,53.6,266.3,53.6,266.5,53.5z"/>
	<path class="st3" d="M262.6,55.3c0.1-0.2,0.1-0.4,0.1-0.7c0-0.4,0-0.9,0-1.3s-0.2-0.8-0.8-0.8c-0.3,0-0.7-0.2-1-0.2
		c0,0-0.1,0-0.1-0.1c-0.2-0.6-0.4-0.3-0.7,0c-0.2,0.2-0.5,0.4-0.9,0.3v-1.8c0.1-0.2,0.4-0.3,0.6-0.1c0.3,0.1,0.5,0.1,0.7-0.3
		s0.6-0.4,0.8,0c0.1,0.2,0.1,0.5,0.4,0.5c0.2,0,0.4,0,0.6-0.1c0.2,0,0.4,0.1,0.3,0.4c0,1.3,0,2.7,0,4
		C262.7,55.2,262.8,55.4,262.6,55.3z"/>
	<path class="st3" d="M265.3,53.9c-0.5,0.4-1.1,0.7-1.6,1c-0.3-0.2-0.4-0.6-0.3-0.9c0.1-0.9,0.1-1.8,0-2.7c0-0.2-0.2-0.3-0.3-0.4
		c0-0.1,0-0.1,0.1-0.2c0.4-0.3,0.9-0.6,1.4-0.8c0.1,0,0.2,0.1,0.2,0.3c0,0.1,0,0.3,0.1,0.4c0,0.5,0,1.1-0.2,1.6
		c-0.1,0.6,0.1,0.8,0.4,1.1C265.3,53.3,265.3,53.6,265.3,53.9z"/>
	<path class="st3" d="M257.6,57l0.1,0.1c0,0.1,0,0.2,0,0.3c-0.2,0.1-0.3,0-0.4-0.2l-1.6-1.1c-0.2-0.2-0.3-0.1-0.3,0.2
		c0,1,0,1.9,0,2.9c0,0.1,0,0.2,0,0.4s0,0.2-0.1,0.2s-0.1-0.1-0.1-0.2c0-0.7,0-1.5,0-2.2c0-0.4,0-0.7,0-1.1c0-0.2,0-0.3-0.2-0.1
		c-0.3,0.4-0.7,0.6-1.1,0.8c-0.1,0-0.2,0-0.2-0.2l1-0.7c0.1-0.1,0.2-0.1,0.2-0.2s-0.1-0.2-0.3-0.2s-0.4-0.1-0.5-0.4
		c0-0.1,0.1-0.2,0.2-0.2c0.2,0,0.4,0.3,0.6,0.2c0-0.1,0.1-0.1,0-0.2c0-1.2,0-2.4,0-3.6c0-0.1,0-0.1,0-0.2c-0.1-0.3-0.4-0.3-0.5-0.6
		c0-0.1,0.1-0.2,0.2-0.3c0,0,0,0,0,0h0.1c0.1,0,0.1,0.1,0.2,0.1c0.2,0.1,0.3,0.1,0.5,0s0.3-0.3,0.5-0.4c0.2-0.1,0.3-0.2,0.4-0.1
		c0.1,0.1,0.1,0.2,0.1,0.3c-0.2,0.2-0.4,0.4-0.7,0.6c-0.3,0.2-0.4,0.4-0.4,0.7c0,1.1,0,2.1,0,3.2c0,0.1-0.1,0.4,0.1,0.4
		s0.2-0.1,0.3-0.1l0.1-0.1c0.2-0.2,0.5-0.3,0.7-0.4c0.2,0.1,0.2,0.2,0.1,0.4c-0.2,0.3-0.6,0.4-0.9,0.7c-0.3,0.2-0.3,0.2,0,0.4
		c0.3,0.2,0.7,0.5,1.1,0.7C257.4,56.8,257.5,56.9,257.6,57z"/>
	<path class="st3" d="M257.3,57.2l0.4,0.2l1,0.7c0,0.1,0,0.3,0,0.4c0,0.3-0.1,0.4-0.4,0.3c-0.5-0.2-1-0.2-1.4,0
		c-0.2,0.1-0.4,0.1-0.5,0.2c-0.1,0-0.2,0.1-0.2,0.2s0.1,0.1,0.2,0.1c0.7,0.2,1.4,0.3,2.1,0.3c0.1,0,0.3,0,0.5,0
		c0,0.2-0.2,0.2-0.3,0.2h-2.7c-0.2,0-0.3-0.1-0.3-0.3c0-0.5,0-1.1,0-1.6c0-0.2,0-0.2,0.2-0.3c0.4-0.1,0.8-0.2,1.2,0.3
		C257,57.6,257.2,57.4,257.3,57.2z"/>
	<path class="st3" d="M265.3,53.9c-0.1,0-0.2,0-0.2-0.2s-0.1-0.3-0.1-0.4c-0.1-0.8,0-1.5,0.2-2.2c0.3-0.2,0.1-0.5,0.2-0.8
		s-0.1-0.6-0.1-0.9c0.1-0.2,0.2-0.3,0.4-0.3c0.2,0.1,0.2,0.2,0.2,0.4c0,0.3,0,0.6,0,0.9c-0.1,0.3,0,0.5,0.3,0.5c0.1,0,0.2,0,0.2,0.1
		v2.4L265.3,53.9z"/>
	<path class="st3" d="M259,59.7c-0.3,0.2-0.5,0.1-0.8,0.1s-0.7,0-1,0s-0.6-0.3-1-0.3c-0.1,0-0.1-0.1-0.1-0.2c0-0.1,0.1-0.3,0.3-0.3
		s0.4-0.2,0.7-0.2c0.1,0,0.2-0.1,0.2-0.2c0-0.1,0.1-0.1,0.1-0.1c0.2,0.5,0.6,0,0.9,0.2c0.1,0.1,0.2,0.2,0.3,0.1s0.1-0.2,0-0.4
		c0-0.1,0-0.2,0.1-0.3c0,0,0,0,0,0c0.5,0.2,0.2,0.6,0.2,0.9L259,59.7z"/>
	<path class="st3" d="M261.6,56.7c0.4,0.3,0.1,0.9,0.3,1.3c0.1,0.2-0.3,0.4-0.5,0.3c-0.2-0.1-0.4,0-0.5,0.2
		c-0.1,0.2-0.4,0.1-0.6,0.2s-0.4-0.1-0.5-0.3c-0.1-0.1-0.2-0.2-0.3-0.3L261.6,56.7z"/>
	<path class="st3" d="M263.1,50.8c0.5,0,0.4,0.4,0.4,0.8c0.1,0.4,0.1,0.9,0.1,1.4c0,0.3,0,0.6-0.1,0.8c-0.1,0.4-0.1,0.8,0.1,1.2
		c-0.2,0.2-0.4,0.3-0.6,0.4c-0.2,0-0.1-0.2-0.1-0.4c0-1.2,0-2.3,0-3.5c0-0.2,0-0.3,0-0.5C263,50.9,263,50.8,263.1,50.8z"/>
	<path class="st3" d="M263.1,50.8L263.1,50.8c-0.1,0.1-0.1,0.2-0.1,0.3h-0.2c0-0.2-0.1-0.3-0.3-0.4c-0.2,0-0.4-0.1-0.5-0.2
		c-0.6-0.4-1.1-0.7-1.7-1.1c-0.1-0.1-0.2-0.1-0.2-0.3s-0.1-0.2,0-0.3c0.2,0,0.4,0.1,0.6,0.2c0.6,0.4,1.3,0.9,2,1.3
		c0.2,0.1,0.4,0.1,0.6,0c0.8-0.6,1.7-1.1,2.5-1.7c0.2-0.1,0.4-0.3,0.6-0.2v0.3c0,0.4-0.3,0.4-0.5,0.4l-0.4,0.3
		c-0.2,0.3-0.5,0.5-0.8,0.5L263.1,50.8z"/>
	<path class="st3" d="M263.6,55.4c0.5,0,1,0.2,1.5,0.5c0.4,0.1,0.3,0.6-0.1,1c-0.6-0.3-1.2-0.8-1.8-1.2
		C263.3,55.6,263.4,55.5,263.6,55.4z"/>
	<path class="st3" d="M267,48.8c0.1,1.4,0,2.9,0,4.3c0,0.1,0,0.2-0.2,0.2l-0.1-0.1v-3.9c0.1-0.1,0-0.4,0.2-0.5L267,48.8z"/>
	<path class="st3" d="M257,54.8c-0.1-0.1,0-0.2-0.1-0.3c0-0.2,0.2-0.3,0.4-0.4s0.5-0.3,0.7-0.4s0.6-0.5,1-0.5l0,0
		c0,0.1-0.1,0.2,0,0.4l-0.3,0.2c-0.1,0.2-0.2,0.3-0.4,0.4c-0.3,0.2-0.6,0.4-0.9,0.6C257.2,54.8,257.1,54.9,257,54.8z"/>
	<path class="st3" d="M263,51l0.1-0.2c0,1.3,0,2.6,0,4c0,0.2,0,0.4,0.1,0.5c-0.3,0.1-0.1-0.2-0.1-0.3c0-1.2,0-2.4,0-3.5
		C263,51.4,263,51.2,263,51z"/>
	<path class="st3" d="M266,53.8c0,0.3-0.1,0.4-0.3,0.2L266,53.8z"/>
	<path class="st3" d="M266.8,33.5c0.1,0,0.2,0,0.2,0.1c-0.1,0.5,0.1,0.9,0,1.4c-0.1,0-0.2-0.1-0.3,0c0,0.3,0.2,0.6,0,0.8
		c-0.2,0-0.2,0.2-0.3,0.4c-0.1,0.7,0,1.3,0,2c0,0.2-0.1,0.3-0.2,0.4c-1,0.6-1.9,1.2-2.8,1.9c-0.1,0.1-0.2,0.1-0.3,0.1
		c-0.1-0.6,0-1.3,0-1.9c0-0.7,0-1.4-0.1-2.1c-0.1-0.3,0-0.6,0.2-0.8c0.1-0.2,0.4-0.1,0.5-0.3c0.1,0,0.1-0.1,0.2-0.1
		c0.6-0.3,1.2-0.7,1.7-1.1C266,34.1,266.4,33.8,266.8,33.5L266.8,33.5z"/>
	<path class="st3" d="M261,40c-0.1,0.2-0.3,0.4-0.3,0.6c-0.2,0.5-0.7,0.6-1,1c0,0-0.1,0-0.1,0c-0.5-0.3-1.1,0-1.6-0.1
		c-0.4-0.1-0.8-0.2-1.2-0.3c-0.1,0-0.3-0.1-0.4-0.1c-0.4-0.1-0.5-0.3-0.4-0.7c0.1-0.4,0.5-0.4,0.7-0.6c0.6-0.4,1.1-0.8,1.7-1.1
		c0.2-0.1,0.4-0.4,0.3-0.7c0-0.6,0-1.3,0-1.9c0.1-0.3,0.1-0.6,0.1-0.8c0-0.1,0-0.1,0-0.2c0-0.1,0-0.3,0.2-0.3s0.2,0.2,0.2,0.3
		c0,0.1,0,0.1,0,0.2c0,0.9,0,1.9,0,2.8c0,0.3,0.1,0.6,0.4,0.8c0.2,0.1,0.4,0.3,0.6,0.4s0.3,0.2,0.3,0.4S260.9,39.8,261,40z"/>
	<path class="st3" d="M266.9,43.4c0-0.1,0-0.3-0.2-0.2s-0.3,0.1-0.5-0.1c-0.2-0.2-0.5-0.4-0.8-0.6l-2-1.3c-0.1-0.1-0.2-0.1-0.2-0.2
		s0.1-0.1,0.2-0.2l2.8-1.9c0.1-0.1,0.2-0.3,0.5-0.1c0.2,0.1,0.3,0.4,0.3,0.6c0,1.3,0,2.6,0,3.9l0,0C267,43.3,267,43.4,266.9,43.4z"
		/>
	<path class="st3" d="M266.4,43.5C266.4,43.5,266.4,43.5,266.4,43.5c-0.1,0.3-0.1,0.5-0.1,0.7c0,0.6-0.3,0.9-0.8,0.9
		c-0.3,0-0.6-0.1-0.9-0.3c-0.4-0.1-0.4-0.1-0.5,0.3c0,0.2-0.1,0.3-0.3,0.2c-0.3-0.2-0.5-0.5-0.4-0.8c0,0,0-0.1-0.1-0.1
		c-0.1,0.2-0.1,0.4-0.1,0.6c0,0.2,0,0.4,0,0.6c0,0.1,0,0.3-0.2,0.1c-0.1-0.1-0.1-0.3-0.1-0.5c0-0.6,0-1.2,0-1.9c0-0.2,0-0.4,0.1-0.5
		v-1.7L266.4,43.5z"/>
	<path class="st3" d="M259.2,47c0-1.1,0-2.1,0-3.2c0-0.2,0.1-0.3,0.2-0.4c0.1-0.1,0.2-0.2,0.3-0.3L260,43c0,0,0.1,0,0.1,0
		c0,0,0,0,0,0c0,0.5,0.4,0.5,0.7,0.6c0.4,0.2,0.8,0.4,1.1,0.6c0.1,0.1,0.2,0.2,0.4,0.1s0.3,0.1,0.3,0.2c0,0.1,0,0.2,0.1,0.3
		c0.1,0.3,0,0.4-0.3,0.4c0,0-0.1,0-0.1,0c0.2,0.2,0,0.4,0,0.7c-0.2,0.3-0.5,0.4-0.8,0.6c-0.4,0-0.8-0.1-1.1-0.3
		c-0.1-0.1-0.3-0.1-0.5-0.2c-0.1,0-0.2,0-0.2,0.2S259.6,47,259.2,47z"/>
	<path class="st3" d="M260.7,39.4c-0.4-0.3-0.8-0.6-1.2-0.8c-0.2-0.1-0.3-0.3-0.3-0.5c0-1,0-2.1,0-3.1c0.4-0.3,0.9-0.3,1.4-0.1
		c0.1,0,0.3,0.1,0.4,0.1c0.3,0,0.6,0.2,0.6,0.6c0,0.3-0.2,0.6-0.6,0.6c-0.2,0-0.4-0.1-0.5-0.2c-0.1,0-0.3,0-0.4-0.1
		c0,0.1,0.1,0.1,0.1,0.2c0,0.4,0.1,0.7,0.3,1c0.1,0.2-0.1,0.4-0.1,0.7c0.3-0.3,0.5-0.2,0.8-0.1c0.3,0.1,0.7,0.1,1,0
		c0.1,0,0.3-0.1,0.4,0.2s0,0.5-0.3,0.5c-0.3,0-0.6,0-0.8-0.1c0.5,0.2,0.5,0.4,0.1,0.8c-0.2,0.2-0.3,0.5-0.6,0.5
		C261,39.6,260.8,39.5,260.7,39.4z"/>
	<path class="st3" d="M261.1,39.6c0.3-0.2,0.4-0.6,0.7-0.8c0.1-0.1,0.1-0.1,0-0.2c0-0.1-0.1-0.2-0.2-0.1c0,0,0,0,0,0
		c-0.1,0-0.2,0.1-0.3-0.1s0-0.1,0.1-0.2s0.2-0.1,0.3,0s0.5,0,0.8,0.1s0.1-0.2,0.1-0.4s-0.1-0.2-0.2-0.1c-0.4,0.2-1,0.2-1.4-0.1
		c-0.1-0.1-0.3-0.1-0.3,0.1s-0.2,0.1-0.3,0s-0.2-0.2-0.1-0.3c0.3-0.3,0.3-0.5,0-0.7c-0.1-0.1-0.1-0.2-0.1-0.4c0-0.3,0.1-0.7-0.5-0.3
		c0.1-0.3,0.3-0.4,0.5-0.4c0.5,0.2,0.9,0,1.3-0.4c0.9,0.2,1.5,0.8,1.1,1.6c0,1.1,0,2.2,0,3.2c0,0.4,0,0.4-0.3,0.2L261.1,39.6z"/>
	<path class="st3" d="M262.2,46c0-0.1-0.1-0.1,0-0.2c0.1-0.3,0-0.5-0.3-0.5c0.1-0.2,0.2,0,0.3-0.1s0.7,0.2,0.3-0.4c0,0,0-0.1,0-0.1
		c0.1-0.3,0-0.4-0.2-0.2s-0.2,0.1-0.3-0.1c-0.3-0.3-0.7-0.5-1.1-0.7c-0.1-0.1-0.1,0-0.2,0s-0.3,0.3-0.2-0.1c0-0.1,0-0.1-0.1-0.1
		c-0.5,0.2-0.3-0.2-0.4-0.5c0-0.1,0-0.1,0-0.2l2.5-1.6c0.1-0.1,0.2-0.2,0.2,0.1c0,0.5,0,1,0,1.5c0.2,0.9,0.2,1.8,0,2.8
		c0,0.2-0.2,0.4-0.4,0.4C262.3,46.1,262.3,46.1,262.2,46z"/>
	<path class="st3" d="M262.2,46c0.3-0.1,0.5-0.4,0.5-0.8c0-0.8,0-1.5,0-2.3l0.2-0.1c0,0.8,0,1.6,0,2.4c0,0.2,0,0.3,0.1,0.5
		c0.2,0,0.3,0.1,0.4,0.2l2.5,1.7c0.1,0.1,0.2,0.1,0.2,0.3l-0.1,0.2c-0.2,0.1-0.3,0-0.5-0.1c-0.9-0.5-1.7-1.1-2.5-1.6
		c-0.2-0.1-0.4-0.1-0.6,0c-0.7,0.4-1.4,0.9-2.1,1.4c-0.1,0.1-0.3,0.2-0.5,0.1v-0.2c0.3-0.5,0.8-0.8,1.3-1c0.1,0,0.1,0,0.2-0.1
		L262.2,46z"/>
	<path class="st3" d="M262.7,37c0.2-0.5-0.1-1.1-0.6-1.3c-0.2-0.1-0.3-0.2-0.4-0.3l-0.5-0.4c-0.2-0.1-0.5-0.2-0.6-0.4
		c-0.1-0.1-0.1-0.2-0.1-0.3c0.1-0.1,0.2-0.1,0.3-0.1c0.1,0,0.2,0.1,0.3,0.2c0.5,0.3,0.9,0.6,1.4,0.9c0.2,0.2,0.4,0.3,0.7,0.2
		c0.1,0,0.2,0,0.1,0.1c-0.2,0.3-0.2,0.7-0.2,1c0,1.3,0,2.6,0,3.9c-0.1-0.1-0.1-0.3-0.1-0.4c0-0.9,0-1.9,0-2.8
		C263,37.2,263,37,262.7,37z"/>
	<path class="st3" d="M266.9,43.4l0.1-0.1c0,1.4,0,2.8,0,4.2c0,0.2-0.1,0.5-0.3,0.6c0-1.3,0-2.6,0-3.8
		C266.8,43.9,266.6,43.6,266.9,43.4z"/>
	<path class="st3" d="M266.7,35.8c0-0.3,0.1-0.6-0.1-0.8c0,0-0.1-0.1,0-0.2c0,0,0,0,0,0c0.1-0.1,0.1-0.1,0.2,0
		c0.1,0.1,0.2,0.2,0.2,0.2v0.2c0,0.8,0,1.6,0,2.4c0,0.2,0,0.4,0,0.6s0,0.3-0.1,0.3s-0.2-0.1-0.2-0.3c0-0.7,0-1.4,0-2.1
		C266.7,36,266.7,35.9,266.7,35.8z"/>
	<path class="st3" d="M265.7,18.5c0.1,0.2,0.1,0.5-0.1,0.7c-0.5,0.4-0.9,0.7-1.5,1c-0.4,0.3-0.8,0.5-1.1,0.7c-0.2,0.1-0.4,0.1-0.5,0
		c-0.6-0.4-1.2-0.8-1.9-1.2c-0.1-0.1-0.3-0.3-0.4,0s0.1,0.2,0.3,0.3l1.9,1.2c-0.5,0.4-1,0.1-1.4-0.1c-0.2-0.1-0.4-0.1-0.5,0
		c-0.4,0.3-0.9,0.2-1.1-0.2c0,0,0-0.1-0.1-0.1c-0.1-0.2-0.2-0.4-0.1-0.6c0-0.2,0-0.4,0-0.6c0-0.1,0,0,0,0c0-0.6,0-0.6,0.5-0.4h0.1
		c0-0.1,0,0-0.1-0.1c-0.4-0.4-0.4-0.5,0.1-0.8c0.3-0.1,0.5-0.4,0.8-0.5c0.6-0.4,1.2-0.8,1.8-1.2c0.3-0.2,0.7-0.2,1,0
		c0.8,0.5,1.5,1,2.2,1.5C265.6,18.3,265.7,18.4,265.7,18.5z"/>
	<path class="st3" d="M266.3,19.1h0.1c0,0.6,0,1.1,0,1.7c0,0.9,0,1.7,0,2.6c0,0.2-0.1,0.4-0.3,0.5c-0.9,0.6-1.9,1.2-2.8,1.9
		c-0.2,0.1-0.3,0.3-0.4-0.2s0.1-0.7,0.1-1c0-0.8,0-1.6-0.1-2.4c-0.1-0.4,0.1-0.8,0.5-1c0.8-0.5,1.5-1,2.2-1.5
		C265.9,19.5,266.1,19.3,266.3,19.1z"/>
	<path class="st3" d="M259.2,20.8c0.1,0,0.2-0.1,0.2,0c0.1,0.5,0.4,0.4,0.7,0.3s0.6-0.3,1,0c0.4,0.2,0.8,0.3,1.2,0.1
		c0.2,0.1,0.3,0.3,0.3,0.5c0,1.3,0,2.6,0,3.9c0,0.1,0,0.2-0.1,0.3c-0.1,0-0.1,0-0.2,0c-0.3-0.2-0.7-0.4-1-0.6
		c-0.6-0.4-1.1-0.8-1.8-1.2c-0.3-0.2-0.5-0.4-0.8-0.7c-0.1-0.1-0.1-0.3,0-0.4c0.2-0.2,0.3-0.5,0.2-0.8
		C259,21.7,259.1,21.2,259.2,20.8z"/>
	<path class="st3" d="M266.3,29.3c0,0.2,0.1,0.3,0.1,0.4h-0.1c-0.1,0-0.2,0-0.2,0.2c0,0,0,0.1,0,0.1c0,0.2,0.2,0.1,0.3,0.1
		c0,0,0.1,0,0.1-0.1c0.1,0.1,0.1,0.2,0.1,0.3c-0.1,0.1-0.1,0.3,0,0.4c0,0.7,0,1.3,0.1,2c0,0.2,0,0.4-0.1,0.6
		c-0.1,0.2-0.2,0.1-0.4,0.1l-0.8-0.5c-0.3-0.3-0.7-0.5-1.1-0.7c-0.2-0.1-0.3-0.2-0.4-0.4c0.1-0.1,0.2-0.1,0.3-0.1s0.2,0,0.2-0.1
		c0-0.6,0.6-0.7,0.9-1.1c0-0.1,0-0.1,0-0.2c-0.1,0.1-0.2,0.3-0.3,0.2c-0.5-0.3-0.8,0.3-1.1,0.4c-0.2,0.1-0.4,0.1-0.6,0
		c-0.2-0.1-0.3-0.3-0.3-0.6c0-0.2,0-0.4-0.2-0.4c-0.1-0.1-0.1-0.2-0.1-0.4c0-0.5,0-0.9,0-1.4s0.1-0.8,0.1-1.2c0-0.1,0-0.2,0.2-0.2
		c0.7,0.6,1.6,1,2.3,1.5c0.1,0.1,0.2,0.1,0.4,0.1l0.2,0.1c0,0,0,0.1,0,0.1c-0.2,0.4,0,0.6,0.3,0.7L266.3,29.3z"/>
	<path class="st3" d="M263.1,26.6l-0.1,1.6c-0.1,0.1-0.2,0-0.3-0.1c-0.1-0.2-0.1-0.4,0-0.5c0.2-0.2,0.2-0.5,0-0.6c0,0,0,0,0,0
		c-0.2-0.3-0.3,0-0.4,0c-0.1,0.1-0.2,0.1-0.3,0.1c-0.1,0-0.1-0.1-0.1-0.2c0-0.3,0.3-0.3,0.4-0.5s0-0.1,0-0.2c0-0.1,0.1-0.2,0.2-0.2
		l0.1,0.1C262.7,26.1,262.9,26.4,263.1,26.6z"/>
	<path class="st3" d="M265.1,24.9c0,0.4-0.2,0.3-0.5,0.4C264.7,25,265,25.1,265.1,24.9z"/>
	<path class="st3" d="M247.7,54.6c0,0.7,0,0.7-0.6,0.4l-1.1-0.6l-1.6-1.1c-0.1-0.1-0.2-0.2-0.2-0.4c0-0.5,0-1,0-1.5
		c0.2-0.2,0.2-0.6,0.4-0.7s0.5,0.1,0.7,0.2c0.3,0,0.6,0.2,0.8,0.5c0.1,0.2,0.3,0.3,0.5,0.3c0.3,0,0.7-0.1,1,0.2
		c0.1,0.1,0.1,0.2,0.1,0.3C247.8,53,247.7,53.8,247.7,54.6z"/>
	<path class="st3" d="M244.4,43.4c0.3-0.2,0.5-0.6,0.9-0.6c0.1,0,0.3-0.2,0.3-0.4c-0.4,0.1-0.7,0.4-1.1,0.6c-0.2,0-0.2-0.1-0.2-0.3
		c0-0.3-0.1-0.6,0.1-0.9l0,0c0.1-0.1,0-0.2,0.2-0.2c0.3,0.1,0.5,0.1,0.6-0.4c0.1-0.3,0.3-0.5,0.6-0.6c0.3-0.2,0.6,0,0.6,0.4
		c0,0.1,0.1,0,0,0s0,0,0,0c0-0.2,0.2-0.3,0.3-0.3c0,0,0,0,0,0c0.2,0,0.2,0.2,0.2,0.4c0,0.1,0,0.2,0.1,0.3c0.1,0.2,0.2,0.4-0.2,0.5
		c-0.2,0-0.2,0.4-0.4,0.3c-0.2-0.2-0.4,0-0.5,0.1c0.1-0.1,0.3-0.1,0.5-0.1c0.2,0.2,0.2,0.4,0.1,0.6c0,0-0.1,0.1-0.1,0.1
		c-0.2,0.1-0.4,0.2-0.6,0.2c0.2,0,0.3,0.1,0.5,0.2c0.2,0.1,0.5-0.1,0.7-0.3s0.2-0.3,0.4-0.4c0.1-0.1,0.2-0.1,0.4-0.1
		c0.3,0.1,0.4,0,0.3-0.3c0-0.1,0-0.1,0-0.2c0,0,0-0.1,0-0.1c0.1-0.2,0-0.4,0.3-0.5s0.3,0.2,0.3,0.4c0,0.1,0.1,0.2,0.2,0.3
		c0.2,0.2,0.1,0.3,0,0.5c-0.2,0.1-0.3,0.2-0.4,0.3c0,0.1-0.2,0.2-0.3,0.2c0,0,0,0,0,0c0.1,0,0.1,0.1,0.2,0.1c0.2,0.3,0,0.6,0,0.9
		c-0.1,0.1-0.2,0.1-0.3,0.1c-0.2-0.1-0.5-0.1-0.7,0c-0.2,0.1-0.4,0.2-0.6,0.2c-0.2,0-0.4,0.1-0.5,0.3c-0.4,0.4-0.9,0.2-1.4,0.2
		c-0.1,0-0.1-0.1-0.2-0.2C244.3,44.2,244.4,43.8,244.4,43.4z"/>
	<path class="st3" d="M244.4,44.7c0.5,0,1.1,0.3,1.5-0.4c0.1-0.1,0.2-0.1,0.3-0.1c0.3,0,0.6,0,0.8-0.2c0.3-0.2,0.4,0,0.6,0.1
		s0.1,0.3,0.2,0.4c0,0,0,0.1,0,0.1c-0.1,0.3,0,0.5,0,0.8c0,0.3-0.2,0.6-0.5,0.8c-0.4,0.3-0.9,0.6-1.3,0.8c-0.4,0.2-0.7,0.5-1.1,0.7
		c-0.2,0.1-0.4,0.2-0.6,0.3h0c-0.1-0.3-0.1-0.6,0-0.9c0-0.6,0.1-1.3,0-1.9C244.3,45,244.4,44.8,244.4,44.7z"/>
	<path class="st3" d="M247.7,51.9c-0.3-0.3-0.7-0.2-1-0.1s-0.5-0.2-0.7-0.5c0-0.1,0-0.2-0.1-0.2c-0.4-0.1-0.7-0.2-1.1-0.3
		c-0.1,0-0.2,0.1-0.2,0.2s-0.1,0.3-0.3,0.4c0-0.4,0-0.9,0-1.3c0-0.2-0.1-0.4,0-0.6c0-0.2,0-0.4,0-0.6c0-0.4,0.1-0.4,0.4-0.2
		s0.5,0.3,0.8,0.5c0.7,0.4,1.3,0.9,1.9,1.2c0.4,0.2,0.6,0.6,0.5,1C247.8,51.6,247.9,51.9,247.7,51.9z"/>
	<path class="st3" d="M243.7,45.7c0-0.7,0-1.3,0-2c0-0.1,0-0.2,0.1-0.2s0.2,0.1,0.2,0.2c0,1,0,2,0,3c0,0.4,0,0.8,0,1.1
		c0,0.1,0,0.2-0.1,0.2s-0.2-0.1-0.2-0.2c0-0.1,0-0.2,0-0.3C243.7,46.9,243.7,46.3,243.7,45.7L243.7,45.7z"/>
	<path class="st3" d="M245.4,49.3l-1-0.7c-0.2,0.3,0,0.6-0.1,0.8c0-0.5,0-1,0.1-1.5c0.5-0.4,1.1-0.8,1.6-1.1c0.1,0.1,0.1,0.3,0,0.4
		c-0.3,0.4-0.7,0.5-1,0.8s-0.4,0.3,0,0.5s0.5,0.2,0.6,0.6C245.6,49.3,245.5,49.4,245.4,49.3z"/>
	<path class="st3" d="M244,48.6c0,1.4,0,2.9,0,4.3c0,0.1,0,0.3-0.2,0.3s-0.1-0.2-0.1-0.3c0-1.3,0-2.6,0-3.9
		C243.7,48.9,243.7,48.7,244,48.6z"/>
	<path class="st3" d="M244.4,41.8c0.1,0.4-0.1,0.8,0.2,1.1c-0.2,0.2-0.5,0.4-0.8,0c-0.1-0.8,0.2-1.5,0.2-2.2h0.1c0,0.2,0,0.5,0,0.7
		S244.1,41.8,244.4,41.8z"/>
	<path class="st3" d="M244.4,44.7c0.1,1.1-0.2,2.2-0.1,3.4c-0.1-0.1-0.1-0.3-0.1-0.4c0-1.3,0-2.6,0.1-3.9c0-0.1,0-0.3,0.1-0.4
		L244.4,44.7z"/>
	<path class="st3" d="M266.2,29.1c-0.2,0.1-0.4,0-0.5-0.2c-0.2-0.3,0.1-0.4,0.2-0.7c0.2,0.1,0.3,0.3,0.4,0.5
		C266.4,28.9,266.4,29,266.2,29.1z"/>
	<path class="st3" d="M260,47.9c0.2,0,0.4-0.1,0.5-0.2l2-1.4c0.2-0.2,0.5-0.2,0.6,0c1,0.6,1.9,1.3,3,1.9l0.1,0.2l-3.2,2.1
		c-0.1,0.1-0.3,0.1-0.5,0c-0.9-0.6-1.8-1.2-2.6-1.7c-0.1-0.2-0.3-0.2-0.5-0.4L260,47.9z"/>
	<path class="st3" d="M266.2,47.9l-2.8-1.9c-0.1-0.1-0.2-0.2-0.3-0.2c0-0.5,0-1,0-1.4c0-0.1,0-0.2,0-0.2s0.1,0,0.2,0.1
		s0.5,0.3,0,0.5c-0.1,0,0,0.1,0.1,0.2l0.5,0.4c0.1,0,0.1-0.1,0.1-0.2s-0.1-0.3,0-0.4c0.1-0.1,0.3-0.1,0.5-0.1l0.6,0.2
		c0.3,0.1,0.6,0.1,0.9-0.1c0.2-0.1,0.3-0.3,0.2-0.6c-0.1-0.3,0-0.5,0.2-0.7c0.1,1.4,0,2.9,0,4.3C266.4,48.1,266.3,47.9,266.2,47.9z"
		/>
	<path class="st3" d="M265.7,49c0.2-0.2,0.4-0.2,0.5-0.4s0.2-0.1,0.2,0.1c0,0.7,0,1.4,0,2c-0.1,0-0.3,0.1-0.4,0s-0.4-0.2-0.3-0.5
		C265.8,49.8,265.8,49.4,265.7,49z"/>
	<path class="st3" d="M267,48.8c0,0.1,0,0.3,0,0.4s-0.1,0.1-0.2,0.1s0-0.3,0-0.4S266.8,48.7,267,48.8z"/>
	<path class="st3" d="M266.2,13.8c0.2,0.1,0.3,0.3,0.2,0.5c0,0.5,0,1,0,1.4c0.1,0.1,0.1,0.2,0,0.3c-0.3,0.4-0.5,0.8-0.8,1.2
		c-0.1,0.2-0.3,0.3-0.5,0.2c0,0-0.1,0-0.1,0c-0.2-0.1-0.4-0.1-0.5-0.1c-0.5-0.2-1-0.5-1.4-0.9c-0.2-0.1-0.3-0.4-0.3-0.6
		c0.1-1.2,0-2.4,0-3.6c0-0.6,0.2-0.7,0.6-0.4c0.8,0.5,1.6,1,2.4,1.5C266,13.6,266.1,13.7,266.2,13.8z"/>
	<path class="st3" d="M266.2,13.8c-0.4-0.3-0.8-0.6-1.3-0.8s-0.9-0.6-1.4-0.9c-0.1-0.1-0.2-0.1-0.3-0.2c-0.1,0-0.2-0.1-0.2,0.1
		c0,0.6,0,1.1,0,1.6c0.1,0.6,0.1,1.3,0,1.9c-0.1,0.4,0,0.8,0.4,0.9l1.2,0.8c0.5,0.2,1,0.5,1.4,0.9c0.1,0.1,0.2,0.1,0.1,0.3
		s-0.2,0.1-0.4,0.1c-0.9-0.7-1.8-1.3-2.7-1.8c-0.4-0.2-0.6,0.2-1,0.3c-0.5,0.3-1,0.7-1.5,0.9c-0.1,0-0.2-0.1-0.2-0.2
		c0.1-0.2,0.3-0.3,0.5-0.4c0.3-0.2,0.6-0.4,0.9-0.6c0.1-0.1,0.3-0.1,0.4-0.2c0.3-0.2,0.5-0.5,0.5-0.9c0-0.4,0-0.8,0-1.1
		c0-0.7,0-1.5,0-2.2c0-0.3-0.1-0.3-0.3-0.2c-0.7,0.4-1.3,0.9-2,1.3c-0.1,0.1-0.3,0.2-0.5,0.1s0-0.2,0.1-0.4l2.6-1.7
		c0-0.1-0.1-0.1-0.2-0.2s-0.1-0.1-0.1-0.2c0-0.1,0.1-0.1,0.2-0.1c0,0,0,0,0.1,0c0.2,0.2,0.3,0,0.3-0.2s0-0.1,0-0.2s0-0.2,0.1-0.2
		s0.1,0.1,0.1,0.2s0.1,0.4,0.1,0.6c0.5-0.3,1-0.6,1.5-0.9c0.1,0,0.1-0.1,0.2,0c0,0.1,0,0.1-0.1,0.2c0,0,0,0,0,0
		c-0.2,0.1-0.3,0.2-0.5,0.3s-0.6,0.4-0.9,0.6s0,0.3,0.1,0.3c0.8,0.5,1.7,1,2.4,1.6c0.1,0.1,0.4,0,0.5,0.3
		C266.2,13.6,266.2,13.7,266.2,13.8z"/>
	<path class="st3" d="M266.1,18.4c-0.4-0.3-0.8-0.6-1.2-0.9c-0.1-0.1-0.3-0.1-0.3-0.3c0.2-0.1,0.4-0.2,0.6,0.1s0.3,0.1,0.4-0.1
		c0.2-0.5,0.5-0.9,0.9-1.4c0,0,0-0.1,0-0.1c0.3,0.3,0.1,0.7,0.1,1.1c0,0.4,0,0.8-0.1,1.2C266.4,18.4,266.4,18.6,266.1,18.4z"/>
	<path class="st3" d="M266.5,30.3c-0.1-0.1-0.1-0.2-0.1-0.4c0.3,0,0.3,0.1,0.3,0.4c0,0.9,0,1.8,0,2.7c0,0.1,0,0.3,0.1,0.4
		s0.1,0.2,0,0.2c-0.9,0.5-1.8,1.1-2.7,1.7c-0.1,0.1-0.3,0.1-0.4,0.1c-0.1,0.1-0.2,0-0.1-0.1c0-0.1,0.1-0.2,0.2-0.3
		c0.2-0.1,0.4-0.3,0.6-0.4c0.5-0.3,0.9-0.7,1.4-0.9c0.2-0.1,0.1-0.2,0-0.4c-0.4-0.3-0.8-0.5-1.2-0.8s-1-0.6-1.5-1
		c-0.2-0.2-0.4-0.2-0.6,0c-0.2,0.2-0.4,0.3-0.7,0.4c-0.2,0.1-0.4,0.3-0.5,0.4s-0.4,0.1-0.5-0.1c0-0.3,0.3-0.4,0.5-0.5
		c0.4-0.2,0.8-0.5,1.2-0.9c0.1-0.3,0.1-0.7,0.1-1c0-0.2,0-0.4,0.1-0.6c0.2-0.2,0.2,0,0.3,0.1v0.4c0.1,0.2,0.1,0.4,0.1,0.6
		c0,0.3,0.1,0.6,0.4,0.8c0.2,0.1,0.5,0.2,0.5,0.5l2.4,1.6c0.1-0.9-0.1-1.8,0-2.7C266.5,30.6,266.4,30.4,266.5,30.3z"/>
	<path class="st3" d="M247.8,7.5c0.2,0,0.2,0.1,0.2,0.3l0,0c0,0.6,0.2,0.9,0.8,0.8c0.1,0,0.2,0,0.3,0.2c-0.2,0.3-0.6,0.2-0.9,0.2
		c-0.6,0-1.2,0.2-1.6,0.5c-0.7,0.5-1.1,1.3-1.1,2.2c0,0.4,0,0.7,0,1c0,0.2,0,0.4-0.2,0.4c0,0-0.1,0-0.1-0.1c0.1-0.6,0.1-1.1,0.1-1.7
		c0-0.5,0.3-1,0.3-1.5V9.7c0.5,0.1,0.6-0.5,0.9-0.7c0.3-0.2,0.6-0.3,1-0.4c0.2,0,0.3-0.1,0.3-0.4C247.7,8,247.7,7.7,247.8,7.5z"/>
	<path class="st3" d="M245.1,13h0.1c0.2,0.1,0.3,0.3,0.3,0.5c0,1.3,0,2.6,0,3.9c0,0.1,0,0.3-0.1,0.4c0,0-0.1,0-0.1,0c0,0,0,0,0,0
		c-0.1-0.6-0.1-1.2,0-1.8c0-0.8,0-1.7,0-2.5c-0.2,0-0.4,0.1-0.6,0.3c-0.1,0.1-0.2,0.1-0.3,0s0.1-0.2,0.2-0.2L245.1,13z"/>
	<path class="st3" d="M245.2,13.5c0.1,0.1,0.1,0.2,0.1,0.3c0,1.3,0,2.7,0,4.1c0,0.2-0.1,0.3-0.3,0.2c0.1-0.7,0.1-1.4,0.2-2.2
		c0.1-0.6,0.1-1.2,0-1.8C245.2,13.9,245.2,13.7,245.2,13.5z"/>
	<path class="st3" d="M245,18c0.1,0,0.2-0.2,0.3-0.2l0,0c0.1,0.1,0.1,0.3,0,0.4c-0.1,0.1-0.3,0.3-0.4,0.4c-0.2,0.1-0.3,0.3,0,0.4
		c0.2,0.1,0.3,0.2,0.4,0.4c0,0.1,0,0.2-0.1,0.2c-0.3,0.2-0.4-0.1-0.6-0.2s-0.3-0.2-0.4-0.3v-0.3l-0.1-0.2c0.1-0.1,0.2-0.2,0.3-0.3
		C244.6,18.1,244.8,18,245,18z"/>
	<path class="st4" d="M245,18l-0.5,0.3C244.6,18,244.7,17.9,245,18z"/>
	<path class="st3" d="M259,7.5c0.2,0.4,0.4,0.8,0.3,1.3c0,0.1,0.1,0.2,0.2,0.3c0.4,0.2,0.8,0.6,1.2,0.9c0.1,0,0.1,0.1,0.1,0.2
		s-0.1,0-0.2,0c-0.5-0.2-0.9-0.5-1.4-0.9c-0.3-0.2-0.4-0.6-0.4-0.9c0-0.2,0-0.4-0.2-0.5s-0.4,0.1-0.5,0.2c-0.1,0.1-0.1,0.4,0,0.6
		s0.3,0.6,0.1,1c-0.3,0.3-0.7,0.6-1.1,0.6c-0.1-0.1-0.4-0.1-0.5,0c0,0-0.1,0.1-0.1,0.1c-0.1,0.2-0.3,0.3-0.4,0.1
		c-0.2-0.2-0.6-0.3-0.9-0.2c0-0.5,0-1,0-1.5c0-0.4,0.1-0.7,0.3-1.1c0-0.2,0.2-0.1,0.3-0.1L259,7.5z"/>
	<path class="st3" d="M255.2,10.2c0.3-0.3,0.5-0.3,0.8,0.1c0.1,0.2,0.3,0.1,0.4-0.1s0.4-0.4,0.6,0c0,0.3-0.2,0.3-0.4,0.4
		c-0.4,0.1-0.6,0.5-0.9,0.6c-0.3,0.1-0.2,0.4,0,0.6c0,0.1,0,0.1-0.1,0.2c-0.2,0.1-0.2,0.3-0.2,0.5c0,0.3,0,0.7,0,1
		c-0.4,0.3-0.9,0.5-1.4,0.6c-0.1,0-0.3-0.1-0.3-0.2c0-0.3-0.1-0.6-0.4-0.7c0-0.1,0-0.1,0-0.2c0-0.2,0.2-0.2,0.3-0.3s0.3-0.3,0.5-0.4
		s0.2-0.2,0.2-0.3c0.1-0.2,0.3-0.3,0.5-0.4c0.3,0.1,0.5-0.1,0.4-0.5c0-0.2-0.1-0.3-0.1-0.5S255.2,10.3,255.2,10.2z"/>
	<path class="st3" d="M253.3,9.9c0.5,0.4,1.1,0.7,1.6,1.1c0.1,0.1,0.2,0.2,0.3,0.1c0.2,0.2,0.1,0.3-0.2,0.5c-0.6-0.3-1.1-0.6-1.6-1
		c-0.1,0-0.2-0.1-0.2-0.2C253.2,10.2,253.2,10,253.3,9.9z"/>
	<path class="st3" d="M251.5,7.9V7.6c0.1-0.1,0.3-0.1,0.3,0.1c0,0.3,0,0.5,0,0.8c-0.1,0.2,0,0.4,0.2,0.5c0,0.1-0.1,0.2-0.2,0.3
		c-0.2,0.1-0.3,0.2-0.5,0.3c-0.1,0-0.2,0-0.3-0.1c0-0.1,0-0.2,0-0.3c0.5-0.2,0.4-0.7,0.5-1.1C251.4,8,251.4,8,251.5,7.9z"/>
	<path class="st3" d="M251.7,9.2c0-0.1,0.1-0.2,0.3-0.2l1.4,0.9c0,0.1,0,0.2-0.1,0.3s-0.3-0.1-0.4-0.2c-0.3-0.2-0.6-0.4-0.9-0.6
		C251.8,9.4,251.7,9.4,251.7,9.2z"/>
	<path class="st3" d="M255,11.5c0.2-0.1,0.3-0.2,0.2-0.4s-0.1-0.4,0-0.5c0.3,0.1,0.3,0.7,0,1.1s-0.2,0.2-0.4,0S255,11.5,255,11.5z"
		/>
	<path class="st3" d="M244.3,19.1c0.1,0,0.2,0.1,0.3,0.1s0.1,0.1,0.1,0.2c0,0.4,0.2,0.7,0.5,0.8c0.3,0.2,0.6,0.4,0.9,0.6
		c0.3,0.2,0.5,0.6,0.9,0.6c0.2,0,0.3,0.1,0.3,0.3c0,0,0,0,0,0c0,0.2-0.2,0.2-0.3,0.2c-0.4,0.1-0.8,0.2-1.2,0.2
		c-0.4,0.1-0.8,0.4-1,0.7c-0.1,0.1-0.1,0.2-0.1,0.4c0,0.2,0,0.4-0.1,0.6c-0.1,0.1-0.2,0.2-0.3,0c-0.1-0.7,0.2-1.4,0.2-2.1
		s0-1.2,0-1.8c0,0,0-0.1,0-0.1c-0.2-0.1-0.2-0.3-0.1-0.5c0,0,0-0.1,0.1-0.1C244.5,19.3,244.3,19.2,244.3,19.1z"/>
	<path class="st3" d="M244.3,23.8c0.1,0.1,0.1,0,0.2,0c0.2,0,0.4,0.2,0.5,0.3c0,0.1,0.1,0.1,0.1,0.2c0.1,0.3,0.1,0.4-0.2,0.4
		s-0.3,0.1-0.3,0.3c0,0.9-0.2,1.7-0.2,2.5c0,0.4,0.1,0.7,0.1,1c0,0,0,0.1-0.1,0.1c-0.2-0.1-0.3,0.1-0.4,0.2l-0.2-0.1
		c-0.1-0.2-0.1-0.3-0.1-0.5c0.2-0.1,0.2-0.3,0.2-0.5c0-0.6,0-1.2,0-1.8c0,0.1,0,0.2-0.2,0.2c0-0.7,0-1.3,0-2L244.3,23.8z"/>
	<path class="st3" d="M251.7,9.2l0.2,0.2c-0.5,0.5-1.1,0.7-1.8,0.7c0,0-0.1,0-0.1-0.1c-0.1-0.5-0.5-0.9-0.9-1.2
		c-0.2-0.2-0.4-0.1-0.6-0.1c-0.4,0-0.5-0.1-0.5-0.5c0-0.1,0-0.3,0-0.4c0,0.1,0.1,0.1,0.1,0.2c0.1,0.1,0,0.5,0.3,0.4s0.5,0,0.6-0.4
		c0-0.1,0.1-0.2,0.1-0.1c0.2,0.2,0.5,0.1,0.8,0.2c0.4,0.2,0.8,0.3,1.2,0.3c0.2,0,0.2-0.3,0.3-0.4c0,0.2,0,0.4,0,0.6
		c0,0.4-0.1,0.7-0.4,0.8c-0.1,0-0.1,0.1-0.1,0.2s0.1,0.1,0.2,0.1C251.3,9.3,251.5,9.3,251.7,9.2z"/>
	<path class="st3" d="M243.8,26.2c0.2-0.2,0-0.5,0.2-0.6c0.1,0.1,0.1,0.2,0.1,0.3c0,0.7,0,1.4,0,2.2c0,0.3-0.1,0.4-0.3,0.2
		L243.8,26.2L243.8,26.2z"/>
	<path class="st3" d="M244.4,28.6L244.4,28.6c0.3-0.1,0.4-0.3,0.5-0.6c0,0,0-0.1,0-0.1c0.4-0.1,0.6-0.6,1-0.7c0.3-0.1,0.7-0.2,1-0.4
		c0.2-0.1,0.3-0.2,0.5-0.2s0.4,0,0.5,0.3c0,0.6,0,1.3,0,1.9c0,0.3,0,0.6,0,0.9s0,0.4-0.1,0.5c-0.2-0.1-0.5-0.2-0.7-0.2
		c-0.2,0-0.4,0-0.5-0.1c-0.1-0.1-0.3-0.1-0.4,0.1c0,0.1-0.1,0.1-0.1,0.2c0,0.5-0.2,0.3-0.4,0.2c0.3,0.6-0.2,0.9-0.3,1.5
		c0.2,0,0.7-0.6,0.8,0.1c-0.4,0.5-0.9,0.8-1.5,1c-0.3,0.2-0.3,0.2-0.4,0c0.2-0.1,0.1-0.3,0.1-0.4c0-0.7,0-1.3,0-2
		c-0.3-0.6-0.3-1.3-0.1-1.9C244.2,28.7,244.3,28.6,244.4,28.6z"/>
	<path class="st3" d="M245,39c0,0,0-0.1-0.1-0.1c-0.6-0.2-0.7-0.8-0.6-1.4c0.1-1.1,0-2.1,0.1-3.2c0-0.4,0.1-0.4,0.4-0.3
		c0.1,0.1,0.3,0.2,0.4,0.3c0.8,0.4,1.5,0.9,2.2,1.4c0.5,0.4,0.6,0.6,0.4,1.4c-0.2,0.1-0.3,0.3-0.2,0.5c0,0.1-0.1,0.3-0.2,0.3
		c-0.1,0-0.2,0-0.2-0.1c-0.1-0.1-0.2-0.2-0.3-0.2c-0.4-0.1-0.4-0.1-0.5,0.3c0,0.2-0.1,0.2-0.3,0.1c0.2,0.3,0.2,0.6,0.1,0.9
		c-0.2,0.4,0,0.5,0.2,0.7s0.2,0.2,0.2,0.4c-0.3,0.1-0.6,0-0.7-0.2c-0.1-0.2-0.1-0.4-0.4-0.4S245.1,39.1,245,39L245,39z"/>
	<path class="st3" d="M245.1,34.4l-0.3-0.3c-0.2-0.2-0.3-0.1-0.4,0.2c-0.1-0.3-0.1-0.7,0.1-1c0-0.1,0.1-0.1,0.1-0.2
		c0.5-0.3,1-0.6,1.5-1c0.3-0.3,0.8-0.6,1.2-0.8c0.2-0.1,0.3,0.1,0.3,0.3c-0.3,0.3-0.7,0.6-1.1,0.8c-0.6,0.4-1.3,0.8-1.9,1.3
		c0.2,0.3,0.6,0.2,0.7,0.6C245.3,34.4,245.2,34.4,245.1,34.4C245.1,34.4,245.1,34.4,245.1,34.4z"/>
	<path class="st3" d="M244,33.9c0.2,0.3,0,0.6,0,0.8c0,1.1,0,2.2,0,3.3c0,0.1,0,0.2,0,0.3s0,0.2-0.1,0.2s-0.1-0.1-0.1-0.2
		s0-0.2,0-0.3c0-1.2,0-2.5,0-3.7C243.8,34.2,243.7,34,244,33.9z"/>
	<path class="st3" d="M243.8,31.6c0.2,0,0.3,0,0.2,0.3c0,0.1,0,0.2,0.1,0.3c0,0.2,0,0.5-0.1,0.8s0.1,0.3-0.1,0.3s-0.2-0.2-0.2-0.3
		C243.7,32.5,243.8,32,243.8,31.6z"/>
	<path class="st3" d="M245.7,39.7c0.2,0.2,0.4,0.3,0.7,0.3c0.2,0.1,0.1,0.3,0.1,0.5s0,0.2-0.1,0.2c-0.4-0.1-0.8,0-1.1-0.4
		c-0.2,0.5-0.1,1.2-0.8,1.4l-0.1,0.2c0.1-0.5,0.1-1.1,0-1.6c0-0.3,0-0.6,0.1-0.8c0-0.1,0.1-0.2,0.2-0.1c0.1,0.1,0.3,0.1,0.4,0
		C245.3,39.3,245.6,39.3,245.7,39.7z"/>
	<path class="st3" d="M245.7,39.7c-0.2-0.2-0.4-0.3-0.7-0.4V39c0.2,0.1,0.3,0.2,0.5,0.3S245.7,39.5,245.7,39.7z"/>
	<path class="st3" d="M244.4,28.6c-0.1,0.5-0.1,1.1,0,1.6c0,0.1,0,0.3,0,0.4c-0.1,0.1-0.1,0.3-0.3,0.3c-0.1-0.7-0.1-1.4,0-2.1
		c0-0.1,0-0.3,0.1-0.4S244.3,28.5,244.4,28.6z"/>
	<path class="st3" d="M258.2,9.5c0.1-0.4-0.1-0.6-0.2-1s-0.2-0.4,0-0.6c0.2-0.2,0.5-0.4,0.8-0.3c0.2,0,0.3,0.3,0.3,0.6
		c-0.1,0.4,0.2,0.7,0.3,1c-0.4,0-0.7,0.4-1.1,0.6C258.1,9.7,258.1,9.6,258.2,9.5z"/>
	<path class="st3" d="M260,13.2l-0.1,0.3c0,0.1,0,0.1,0,0.2c-0.5,0.3-0.5,0.8-0.5,1.3c0,0.1,0,0.3,0,0.4c0,0.1,0,0.1,0,0.2
		c0,0.2-0.1,0.4-0.3,0.4s-0.2-0.2-0.2-0.4c0-0.3,0-0.7,0-1c0-0.4,0-0.7-0.4-0.8c-0.1,0-0.2-0.1-0.2-0.2c0-0.2,0.1-0.2,0.2-0.3
		c0.1,0.1,0.2,0.1,0.3,0.2c0.1,0.2,0.3,0.3,0.5,0.2c0,0,0.1-0.1,0.1-0.1C259.6,13.4,259.8,13.3,260,13.2z"/>
	<path class="st3" d="M258.2,9.5c0.1,0.1,0,0.2,0,0.3l-1.6,1.1c-0.1,0.1-0.2,0-0.2-0.1s0.1-0.1,0.1-0.2c0.1,0,0.2-0.1,0.2-0.2
		c0.2-0.1,0.3-0.2,0.4-0.4C257.5,9.9,257.8,9.7,258.2,9.5z"/>
	<path class="st3" d="M255.8,11.9v-0.2c0,0,0-0.1,0.1-0.1c0.1,0.3,0.5,0.2,0.7,0.4s0.5,0.4,0.8,0.6c0,0.1,0,0.2-0.1,0.3
		c-0.1,0.1-0.2,0.1-0.3,0c-0.4-0.2-0.7-0.5-1-0.7C255.8,12.1,255.8,12,255.8,11.9z"/>
	<path class="st3" d="M257.2,12.9c0-0.1,0-0.2,0.1-0.3l1.1,0.7c0,0.1-0.1,0.2-0.1,0.2C257.9,13.5,257.5,13.3,257.2,12.9z"/>
	<path class="st3" d="M255.8,11.6L255.8,11.6c-0.1,0-0.3,0.1-0.3-0.1s0-0.5,0.2-0.5c0.4-0.1,0.6-0.5,1-0.6c0,0.1-0.1,0.1-0.2,0.2
		s-0.1,0.2,0.1,0.2c-0.2,0.1-0.5,0.2-0.7,0.4C255.7,11.4,255.7,11.5,255.8,11.6z"/>
	<path class="st3" d="M250.5,54.1l0.8-0.5c0.1-0.3,0.3-0.2,0.6-0.1c0.5,0.3,0.9,0.6,1.3,0.9c0.2,0.1,0.4,0.1,0.4,0.4
		c-0.2,0.2-0.4,0.5-0.6,0.8c-0.1,0.1-0.2,0.3-0.3,0c0-0.1-0.1-0.3-0.3-0.2s0,0.2,0,0.3c0,0.1,0,0.1,0,0.2c-0.1,0-0.1,0-0.2-0.1
		c-0.2-0.2-0.4-0.2-0.5,0.1c-0.1,0.2-0.2,0.2-0.3,0.1c-0.1-0.1-0.2-0.2-0.3-0.2c0-0.2,0.1-0.2,0.2-0.2c0.3,0,0.5-0.2,0.5-0.4
		c-0.1-0.1-0.2,0.1-0.2,0.1s-0.2,0-0.2,0s0-0.2,0.1-0.2s0.1-0.2-0.1-0.2C251,54.7,250.6,54.6,250.5,54.1z"/>
	<path class="st3" d="M253.6,54.8c-0.1-0.1-0.3-0.3-0.5-0.4c-0.1-0.1,0-0.2,0.1-0.3c0,0,0,0,0,0c0.5,0.1,0.9,0.4,1.2,0.8l-0.2,0.2
		C254,55.2,253.8,55.1,253.6,54.8L253.6,54.8z"/>
	<path class="st3" d="M253.7,54.9l0.5,0.3l0.5,0.3c-0.2,0.1-0.3,0.1-0.5-0.1c-0.1-0.1-0.2-0.1-0.2-0.1s-0.1,0.2,0,0.3
		c0,0.2,0,0.3-0.1,0.4C253.8,55.7,253.7,55.3,253.7,54.9z"/>
	<path class="st3" d="M253.7,56.6l0.2,0.2c-0.1,0.3-0.3,0.4-0.5,0.4c0-0.1-0.1-0.2-0.2-0.2C253.3,56.8,253.5,56.7,253.7,56.6z"/>
	<path class="st3" d="M250.6,56.2c0-0.3,0.2-0.3,0.5-0.4C251,56,251,56.3,250.6,56.2z"/>
	<path class="st3" d="M253.4,57.2c0.2-0.1,0.4-0.2,0.5-0.4l1.1-0.7c0.2,0,0.1,0.2,0.1,0.3c0,1,0,2,0,3.1c0,0.3-0.1,0.4-0.4,0.4
		c-0.7,0-1.5,0-2.2-0.1c-0.3,0-0.5,0.1-0.8,0c-0.1-0.5-0.1-1,0-1.6L253.4,57.2z"/>
	<path class="st3" d="M251.8,58.2c0,0.5,0,1,0,1.6h-0.1c-0.1-0.4,0.1-0.8-0.1-1.2C251.5,58.4,251.7,58.4,251.8,58.2z"/>
	<path class="st3" d="M247.7,51.9c0.1-0.1,0-0.3,0.1-0.4s0.1-0.4,0.1-0.5c0.1-0.5,0.1-0.5,0.5-0.3c0.2,0.2,0.4,0.3,0.6,0.4
		c0.2,0.1,0.3,0.3,0.3,0.5c0.1,0.3,0.3,0.6,0.6,0.7c0.4,0.2,0.8,0.3,1.2,0.3c0.1,0,0.2,0,0.3,0.1c0-0.2-0.1-0.3,0.1-0.4
		s0.2,0,0.3,0.2c0,0.2,0,0.5,0,0.7c-0.1,0.4-0.4,0.3-0.6,0.3l-1.4,0.8c-0.2-0.2-0.3-0.4-0.4-0.6c-0.2-0.5-0.5-0.5-0.8-0.1
		s-0.3,0-0.4-0.2s-0.1-0.4-0.3,0c0,0.1-0.1,0-0.2-0.1c0.1-0.3,0-0.6,0-1L247.7,51.9z"/>
	<path class="st3" d="M247.7,52.1c0,0.1,0,0.2,0,0.2c0.2,0.2,0.1,0.5,0,0.7v1.6h-0.1c0-0.8,0-1.6,0-2.3
		C247.7,52.2,247.7,52.2,247.7,52.1z"/>
	<path class="st3" d="M251.2,53.4c0-0.1,0.1-0.2,0.2-0.1s0.2,0,0.3-0.1s0.2,0,0.3,0.1c0.4,0.2,0.7,0.5,1.1,0.7
		c0.1,0.1,0.2,0.1,0.2,0.3l-0.1,0.2l-1.3-0.8c-0.2-0.1-0.4-0.1-0.6,0L251.2,53.4z"/>
	<path class="st3" d="M259,36c0,0.7,0,1.4,0,2.1c0,0.2-0.1,0.5-0.3,0.6c-0.6,0.4-1.2,0.8-1.9,1.2c-0.1-0.1-0.3-0.3-0.4-0.3
		c-0.2-0.1-0.3-0.3-0.2-0.6c0,0,0-0.1,0.1-0.1c-0.6,0.4-0.6,1-0.4,1.7c0,0,0,0.1,0,0.1c-0.3,0.1-0.3-0.1-0.4-0.4c0-1.2,0-2.4,0-3.6
		c0-0.3,0-0.6,0.3-0.8s0.4-0.1,0.5-0.3c0.1-0.1,0.2-0.2,0.4-0.3c0.1-0.1,0.3-0.1,0.4-0.3c0.3-0.2,0.5-0.5,0.8-0.7
		c0.2,0,0.4,0,0.5-0.1c0.2-0.2,0.4-0.3,0.7-0.4c0.1,0,0.2,0,0.2,0.1c0,0,0,0,0,0c0.1,0.2,0.1,0.5,0,0.8C258.9,35.1,259,35.5,259,36z
		"/>
	<path class="st3" d="M258.8,43.4c0.3,0.4,0.1,0.8,0.1,1.3c0.1,1.1,0,2.2,0,3.4l-1.6-1c-0.2,0-0.4-0.1-0.6-0.3s-0.5-0.4-0.8-0.6
		c-0.2-0.1-0.3-0.2-0.5-0.4c-0.1-0.8-0.1-1.5,0-2.3c0-0.1,0-0.2,0.1-0.2c0.1,0,0.2,0.1,0.2,0.1c0,0,0,0,0,0c0.1,0.3,0.2,0.5,0.4,0.7
		c0.2,0.2,0.1,0.4,0,0.4c0.2,0,0.3-0.2,0.2-0.4s0-0.3,0.2-0.3c0.1,0,0.3,0,0.4,0c0.2,0,0.4,0,0.5-0.2c0.1-0.1,0.2-0.2,0.3-0.2
		s0.1,0.2,0.1,0.4c0.1,0.4-0.1,0.9,0,1.4c0.2-0.1,0.3-0.4,0.2-0.6c0-0.1,0-0.3-0.1-0.4c0-0.4,0-0.7,0.4-0.8c0.1,0,0.1-0.1,0.2-0.2
		S258.8,43.3,258.8,43.4z"/>
	<path class="st3" d="M258.6,43.3c0.1,0.2,0.1,0.4-0.2,0.3s-0.3,0.2-0.3,0.4c0,0.2,0,0.4,0.1,0.6c0.2,0.4-0.2,0.5-0.3,0.8
		c0,0.1-0.1,0-0.2,0c-0.1-0.1-0.1-0.2,0-0.3c0.1-0.1,0.1-0.3,0-0.4c0,0,0-0.1,0-0.1c0.4-0.3,0-0.7,0.1-1c-0.1,0-0.1,0-0.1,0
		c-0.2,0.5-0.6,0.4-1,0.4c-0.1,0-0.2-0.1-0.2,0s0.1,0.1,0.1,0.2c0,0,0.1,0.1,0.1,0.1c0,0.1,0.1,0.2,0,0.3s-0.1-0.1-0.2-0.2
		c-0.1,0.3-0.2,0.5-0.5,0.2c-0.1,0-0.2-0.1-0.1-0.2s0.1-0.1,0.2-0.1c0.1,0.1,0.1,0.1,0.2,0s0-0.2-0.1-0.2c-0.3-0.2-0.4-0.5-0.4-0.9
		h-0.1v2.4c-0.2,0-0.2-0.2-0.2-0.4c0-0.4,0-0.8,0-1.1c0-0.7,0-1.3,0-2c0-0.1,0-0.2,0-0.4c0-0.1,0-0.3,0-0.4c0-0.2,0-0.4,0.3-0.3
		c0.3,0.2,0.6,0.4,0.8,0.6c0.6,0.2,1.2,0.5,1.6,0.9C258.3,43,258.6,43,258.6,43.3z"/>
	<path class="st3" d="M255.1,50.4l-0.1-0.1c0-0.3-0.1-0.5-0.2-0.8c-0.3-0.3-0.3-0.8-0.1-1.2c0.1-0.2,0.1-0.4-0.1-0.6
		c0-0.1-0.1-0.3,0-0.4c0.1-0.1,0.3-0.1,0.4,0c0,0,0,0,0,0c0.2,0.2,0.5,0.3,0.6,0.5c0.1,0.2,0.3,0.2,0.4,0.2c0,0,0,0,0.1,0
		c0.1-0.1,0.3-0.1,0.4-0.1c0.3,0.1,0.7,0.1,1,0c-0.4-0.1-0.8-0.3-0.9-0.8c0-0.1-0.1-0.2,0-0.3c0.3,0,0.5,0.1,0.6,0.4
		c0.5,0.3,1,0.7,1.5,0.9c0.2,0.3,0,0.4-0.1,0.4c-0.4,0.3-0.8,0.6-1.3,0.8c-0.2,0.1-0.4,0.4-0.8,0.4c-0.1,0-0.2,0.2-0.4,0.2
		c-0.2,0-0.3-0.1-0.3-0.3s-0.1-0.2-0.2-0.1c-0.1,0-0.2,0.1-0.2,0.2c0,0,0,0,0,0C255.5,50,255.4,50.3,255.1,50.4
		C255.1,50.4,255.1,50.4,255.1,50.4z"/>
	<path class="st3" d="M259,49.6v3.1c-0.5,0.3-0.6,0.3-0.8-0.1c0-0.1,0-0.2,0-0.3c0.1-0.2,0.1-0.4,0.1-0.6c0-0.2,0-0.4,0-0.6
		c0,0.3-0.1,0.5-0.1,0.8s0,0.5-0.3,0.6s-0.4-0.2-0.5-0.5c-0.1-0.2-0.1-0.5-0.2-0.7c0-0.1,0-0.2,0-0.3c0.2-0.4,0.3-0.9,0.2-1.4
		c0-0.2,0.2-0.3,0.4-0.3C258.1,49.6,258.6,49.7,259,49.6z"/>
	<path class="st3" d="M257.5,51.9c0,0.1,0.1,0.1,0.1,0.2s0.2,0.3,0.4,0.2s0.1-0.3,0.1-0.4c0-0.3,0.1-0.7,0.1-1c0-0.1,0-0.2,0.2-0.2
		s0.2,0.1,0.1,0.3s-0.1,0.3-0.1,0.4s0,0.5-0.1,0.8s0,0.4,0.1,0.6s0.2,0.1,0.4,0s0.2-0.1,0.2,0v0.3c-0.2,0.2-0.5,0.2-0.6,0
		c-0.2-0.2-0.4-0.4-0.6-0.1c-0.1,0.3,0,0.6,0.2,0.7c0,0,0.1,0.1,0.1,0.1c-0.4,0.2-0.7,0.5-1.1,0.8l-0.7,0.4
		c-0.4-0.1-0.3-0.5-0.3-0.7s0.3-0.3,0.5-0.4c-0.2,0-0.5,0-0.7-0.1c-0.2-0.2-0.3-0.5-0.2-0.7c0.1-0.2,0.3-0.1,0.4-0.1
		c0.4,0,0.7,0,1,0.1c0.2,0.1,0.2-0.2,0.2-0.3s0-0.3,0-0.4S257.2,51.8,257.5,51.9z"/>
	<path class="st3" d="M260,49l2.5,1.7c-0.3,0.2-0.7,0.2-1,0.1c-0.1-0.1,0-0.2,0-0.3c0-0.3-0.2-0.3-0.4-0.4c-0.1,0-0.3,0.1-0.3,0.2
		c0,0,0,0,0,0.1c0,0.6-0.4,0.5-0.6,0.4c-0.2-0.1-0.5-0.1-0.8,0c0-0.6,0-1.2,0-1.9c0-0.2,0.1-0.2,0.2-0.1S259.8,48.9,260,49z"/>
	<path class="st3" d="M261.5,46.6l-1.5,1h-0.1c-0.2,0.1-0.4,0.4-0.6,0.3s0-0.5,0-0.7c0-0.1,0-0.1,0-0.2c0.2-0.2,0.4-0.4,0.4-0.7
		c0-0.3,0.1-0.4,0.4-0.2C260.5,46.3,261,46.5,261.5,46.6z"/>
	<path class="st3" d="M255.7,40.6c-0.2,0-0.2-0.2-0.2-0.3s0-0.6,0-0.9c0-0.1-0.1-0.5,0.2-0.2c0.1,0.1,0.1-0.1,0.1-0.1
		s0.2-0.4,0.4-0.2c-0.3,0.4-0.3,0.5,0.2,0.7c0.2,0,0.1,0.3,0.2,0.4c-0.3,0.1-0.5,0.3-0.8,0.5C255.9,40.4,255.8,40.5,255.7,40.6z"/>
	<path class="st3" d="M258,53.8c-0.4-0.1-0.6-0.5-0.5-0.9c0.1-0.1,0.6-0.2,0.7-0.1c0.2,0.2,0.5,0.4,0.7,0.3c0,0,0,0.1,0,0.1
		C258.6,53.4,258.3,53.6,258,53.8z"/>
	<path class="st3" d="M257.9,49.3c-0.1,0.1-0.3,0.1-0.4,0.3c-0.2,0.3-0.5,0.5-0.9,0.5l-0.1-0.3c0.5-0.5,1.2-0.8,1.8-1.2
		c0.2-0.1,0.4-0.2,0.4-0.5c0.2,0,0.2,0.3,0.2,0.4C258.7,49,258.3,49.2,257.9,49.3z"/>
	<path class="st3" d="M258.6,43.3c-0.7-0.5-1.4-1-2.2-1.5c0.1-0.1,0.2-0.2,0.4-0.1c0.6,0.4,1.2,0.8,1.8,1.3c0.1,0.1,0.3,0.1,0.2,0.4
		L258.6,43.3z"/>
	<path class="st3" d="M257.9,49.3c0.3-0.3,0.7-0.5,1.1-0.7c0,0.3,0,0.6,0,0.9c-0.3,0.2-0.8,0.2-1-0.1
		C257.9,49.4,257.9,49.4,257.9,49.3z"/>
	<path class="st3" d="M255.6,41.3c-0.4,0.2,0,0.5-0.1,0.8s-0.3,0.1-0.3-0.2s0-0.4-0.2-0.6c0,0-0.1-0.1-0.1-0.1c0-0.1,0-0.1,0-0.2
		c0-0.1,0.1-0.2,0.1-0.2c0-0.1,0.1-0.2,0.1-0.2c0-0.1,0.1-0.1,0.1-0.1c0.1,0,0.1,0,0.2,0c0,0.2,0,0.4,0.2,0.4
		C255.9,40.9,255.6,41,255.6,41.3z"/>
	<path class="st3" d="M257.2,47.3l-0.6-0.4c-0.4-0.1-0.7-0.3-0.9-0.6c0-0.2,0.1-0.2,0.2-0.2l1.4,0.9L257.2,47.3z"/>
	<path class="st3" d="M257,54.8l1.7-1.1c0.1,0.2,0.2,0.3-0.1,0.5c-0.2,0.2-0.3,0.4-0.2,0.6c0.1,0.3,0,0.6-0.3,0.8c0,0,0,0,0,0
		c-0.8,0.3-0.8,0.3-0.5,1.2c0,0.1,0,0.1,0,0.2l-1.7-1.1c-0.1,0-0.1-0.1-0.3-0.2L257,54.8z"/>
	<path class="st3" d="M265.3,51c-0.1,0.2-0.1,0.5-0.1,0.7c0,0.2,0,0.4-0.1,0.6c-0.1,0.1-0.1,0.3,0,0.4c0.3,0.2,0,0.4,0,0.7
		c-0.1,0-0.3,0-0.3-0.3c0-0.1,0-0.1-0.1-0.1c-0.2-0.2-0.3-0.4-0.1-0.7c0.1-0.2,0.1-0.3,0.1-0.5c-0.1-0.4,0.2-0.8,0.1-1.2
		c0.1-0.1,0.1-0.1,0.2-0.1C265.4,50.4,265.3,50.7,265.3,51z"/>
	<path class="st3" d="M265,50.5h-0.2c-0.1-0.1-0.3-0.2-0.1-0.5c0-0.1,0-0.1-0.1-0.1l0.8-0.5c0.1,0.3,0.2,0.6,0.1,0.9
		C265.4,50.4,265.1,50.3,265,50.5z"/>
	<path class="st3" d="M255.8,46.3l0.9,0.6c0,0.4,0.3,0.7,0.7,0.9c0.2,0.1,0.1-0.1,0.3-0.1c0,0.4,0,0.4-0.3,0.4
		c-0.3,0.1-0.6,0.1-0.9-0.1c-0.1-0.1-0.3,0-0.4,0.1c-0.1,0.1-0.3,0.1-0.4,0s-0.5-0.4-0.6-0.6s-0.2-0.2-0.4-0.1s0.1,0.2,0.1,0.3
		c0.1,0.3,0.1,0.5,0,0.8c-0.1,0.3-0.1,0.6,0.1,0.9c0.1,0.2,0.2,0.4,0.3,0.6c0.1,0.1,0.1,0.3-0.1,0.4c0,0,0,0,0,0h-0.1
		c-0.3-0.1-0.5-0.2-0.7-0.4c-0.5-0.3-1-0.6-1.5-1c-0.2-0.1-0.4-0.1-0.5-0.3c-0.3-0.2-0.3-0.5,0-0.7c0.5-0.3,0.9-0.6,1.4-1
		s1-0.7,1.5-1C255.4,45.9,255.5,46,255.8,46.3z"/>
	<path class="st3" d="M253.3,54.2l-1.5-1c-0.1-0.2,0-0.5-0.1-0.7s-0.2-0.5,0-0.8c0-0.1,0.1-0.1,0.1-0.1c0.3,0,0.3,0.3,0.4,0.6
		c0,0,0,0.1,0,0.2c0,0,0.1,0,0.1,0c0.3-0.2,0.5,0.3,0.8,0c0,0,0.1-0.1,0.1-0.1c0.5,0.2,0.9-0.5,1.4-0.5c0.3,0,0.5,0.1,0.5,0.4
		c0,1,0,2,0,3c0,0.1,0,0.2-0.1,0.1l-0.6-0.4L253.3,54.2z"/>
	<path class="st3" d="M256.6,50.1l0.9-0.5c0.1,0.1,0.2,0.3,0.1,0.4c-0.1,0.2-0.1,0.3,0,0.5c0,0.1,0,0.1,0,0.2
		c-0.4,0.4-0.3,0.7,0,1.1c0,0-0.1,0.1-0.1,0.1c-0.2,0-0.1,0.2-0.2,0.3s0,0.2-0.1,0.3s-0.2,0.3-0.4,0.1s-0.5-0.2-0.7-0.1
		c-0.1,0.1-0.3,0.1-0.4,0c-0.2-0.1,0,0.2-0.2,0.2c0,0.6,0.3,0.9,0.8,0.8c0.1,0,0.3-0.2,0.4,0.1s-0.2,0.2-0.3,0.2
		c-0.5,0.2-0.5,0.2-0.3,0.7c0,0.1,0.1,0.2,0.1,0.2c-0.2,0.2-0.5,0.5-0.7,0.4s0-0.6-0.1-0.9c0-1.1,0-2.1,0-3.2c0-0.3,0.1-0.5,0.3-0.6
		C256.1,50.5,256.4,50.3,256.6,50.1z"/>
	<path class="st3" d="M251.8,51.7L251.8,51.7c-0.2,0.1-0.2-0.1-0.2-0.2c0-0.9,0-1.9,0.1-2.8c0.2-0.2,0.3,0,0.5,0.1
		c0.6,0.4,1.2,0.8,1.8,1.2c0.2,0.1,0.4,0.3,0.6,0.5l0.5,0.4c0,0.1,0,0.2,0,0.3c0,0.2,0,0.4-0.3,0.3c-0.3,0-0.5,0-0.8,0
		c-0.3,0.1-0.6-0.1-0.8-0.4c-0.2,0.4-0.3,0.5-0.7,0.3C252.4,51.4,252,51.4,251.8,51.7z"/>
	<path class="st3" d="M251.8,51.7c0.1-0.3,0.3-0.5,0.6-0.4c0,0,0.1,0,0.1,0c0.1,0,0.1,0.1,0.2,0.1c0.4,0.2,0.5,0.1,0.6-0.3
		c0-0.1,0-0.2,0.1-0.2s0.1,0.1,0.1,0.2c0,0.3,0.3,0.4,0.6,0.4c0,0,0.1,0,0.1,0c0.2-0.1,0.4-0.1,0.6-0.1c0.5,0.2,0.4-0.2,0.4-0.5
		c0.1,0.6,0.1,1.3,0,1.9c0,0.8,0,1.5,0,2.3c0,0.1,0.1,0.3-0.1,0.2c0.1-0.5,0.1-1,0.1-1.5c0-0.4,0.1-0.8-0.1-1.1c0,0,0.1-0.2,0.1-0.2
		c0.1-0.2,0-0.4-0.2-0.5c-0.1-0.1-0.3-0.1-0.3,0.1c0,0-0.1,0.1-0.1,0.1c-0.4-0.3-0.5,0.1-0.7,0.3s-0.5-0.3-0.6,0s-0.3,0.1-0.5,0
		s-0.5,0-0.7,0C252.3,52.1,252,51.9,251.8,51.7z"/>
	<path class="st3" d="M255.1,50.4c0.1-0.2,0.5-0.3,0.2-0.7c0-0.1,0.1-0.2,0.2-0.2c0.2,0,0.4-0.1,0.6-0.1c-0.2,0.4,0,0.5,0.2,0.6
		c-0.2,0.1-0.4,0.3-0.6,0.5S255.2,50.6,255.1,50.4z"/>
	<path class="st3" d="M254.6,50.5c-0.2-0.1-0.5-0.3-0.6-0.4c0-0.2,0.1-0.2,0.2-0.2l0.7,0.4C254.7,50.3,254.6,50.3,254.6,50.5z"/>
	<path class="st3" d="M265,50.5c0-0.4,0.3-0.2,0.5-0.3c0,0.1-0.1,0.2,0,0.4c0.2,0.3,0,0.4-0.2,0.4c-0.1-0.1-0.1-0.2,0-0.3
		C265.3,50.5,265.1,50.5,265,50.5z"/>
	<path class="st3" d="M259,36v-2.1c0.3-0.1,0.6,0,0.8,0.1c0,0,0,0,0-0.1s-0.4-0.1-0.4-0.4c0-0.2,0.2-0.4,0.5-0.5
		c0.4-0.1,0.8-0.4,1-0.8c0,0,0.1,0,0.1,0c0,0,0,0,0,0c0.1,0.1,0.3,0.2,0.4,0c0,0,0,0,0,0c0.2-0.1,0.3-0.4,0.5-0.4
		c0.3,0.2,0.6,0.5,1,0.6c0.1,0,0.1,0.2,0.1,0.3c0,0.3,0.2,0.7,0.4,0.9c0.1,0.1,0.2,0.2,0.2,0.3c0.1,0.4,0.4,0.7,0.8,0.7
		c-0.1,0.2-0.3,0.3-0.5,0.4c-0.2,0.1-0.3-0.1-0.4-0.2s-0.3,0-0.4,0.1s0.1,0.2,0.2,0.2c0.1,0.1,0.2,0.2,0.2,0.3
		c0,0.3-0.2,0.3-0.4,0.2c-0.6,0.1-1.1-0.5-1.6-0.7c-0.3-0.2-0.6-0.3-0.8-0.6c-0.1-0.1-0.2-0.2-0.3-0.1s0.1,0.2,0.1,0.3
		s0.3,0.2,0.5,0.4c-0.3,0.1-0.5-0.1-0.8-0.2s-0.7,0.1-1,0.1l-0.1-0.4C258.9,35,259.2,35.6,259,36z"/>
	<path class="st3" d="M263.6,35.6l-0.5-0.2c-0.1,0-0.2,0-0.2-0.2c0-0.1,0.1-0.2,0.2-0.3c0.3-0.2,0.6,0,0.8,0.2l-0.2,0.2
		c-0.1,0.1-0.1,0.1,0,0.2L263.6,35.6z"/>
	<path class="st3" d="M260.4,17.8l0.2,0.2c-0.2,0.3-0.5,0.5-0.9,0.6c-0.3,0.1-0.4,0.2-0.1,0.4c0.1,0.1,0.1,0.1,0.1,0.2
		c0,0,0,0.1,0,0.1c-0.2,0-0.4-0.1-0.5-0.2v0.6c-0.1,0.1,0,0.4-0.2,0.5c0,0,0,0-0.1-0.1c-0.1-0.3-0.1-0.6-0.2-0.9c0-0.1,0-0.2,0-0.3
		c0-0.2-0.3-0.1-0.3-0.3c-0.1-0.1-0.1-0.2,0-0.4c0.3,0.1,0.4-0.1,0.4-0.4c0-0.4,0-0.8,0-1.2c0-0.1,0-0.3,0.1-0.3s0.3,0.1,0.3,0.3
		s0,0.5,0,0.8s0,0.6,0,1c0.2-0.1,0.4-0.2,0.6-0.3C260.1,17.9,260.2,17.7,260.4,17.8z"/>
	<path class="st3" d="M259,20L259,20c0.1,0,0.1,0.1,0.2,0.2l0.1,0.5l-0.1,1.4c-0.1,0-0.2-0.1-0.3-0.2c-0.1-0.6-0.1-1.2,0-1.8
		C258.9,20.2,258.9,20,259,20z"/>
	<path class="st3" d="M259.2,20.2l-0.1-0.2c0-0.1,0-0.2,0-0.4c0-0.1,0.1-0.1,0.1-0.1C259.2,19.8,259.2,20,259.2,20.2z"/>
	<path class="st3" d="M259.7,19.3L259.7,19.3c0.1-0.1,0.2-0.2,0.2-0.1s0,0.1,0,0.2S259.7,19.4,259.7,19.3z"/>
	<path class="st3" d="M259,20c-0.1,0.6-0.1,1.3,0,1.9c0.1,0.3,0.1,0.7-0.1,0.9v0.5c0.2,0.3-0.1,0.4-0.3,0.6
		c-0.7,0.4-1.4,0.9-2.1,1.4c-0.2,0.1-0.3,0.2-0.5,0.3c-0.5,0.3-0.7,0.2-0.7-0.4c0-0.9,0-1.8,0-2.7c0-0.3,0-0.5,0-0.8
		c0-0.2,0.1-0.5,0.2-0.6c0.1-0.1,0.3-0.2,0.4-0.3c0.1-0.1,0.3-0.2,0.4-0.3c0.1-0.1,0.2,0,0.3-0.1c0.6-0.5,1.3-0.8,1.9-1.3
		c0.1-0.1,0.1-0.1,0.2-0.1C258.9,19.4,259,19.7,259,20z"/>
	<path class="st3" d="M255.7,21.2c-0.2,0.1-0.2,0.4-0.2,0.6c0,1.1,0,2.3,0,3.4c0,0.5,0.1,0.6,0.5,0.3l2.7-1.7
		c0.1-0.1,0.3-0.2,0.3-0.4c0.1-0.1,0.2-0.1,0.3,0.1c0.2,0.3,0.4,0.5,0.7,0.6c0.5,0.4,1.1,0.7,1.6,1.1c0,0.1,0,0.2-0.1,0.2
		c-0.2,0.1-0.4,0-0.5-0.1c-0.5-0.4-1-0.6-1.5-1c-0.2-0.2-0.5-0.2-0.6,0c-0.8,0.5-1.5,1.1-2.3,1.5l-0.1,0.1c-0.4,0.3-0.4,0.4,0,0.6
		c0.2,0.1,0.4,0.3,0.5,0.5c0.1,0.1,0.2,0.3-0.1,0.4c-0.3,0-0.6-0.2-0.8-0.4c-0.4-0.2-0.4-0.2-0.4,0.3c0,0.7,0,1.4,0,2.1
		c0,0.2,0,0.5-0.2,0.5s-0.3-0.3-0.3-0.5c0-0.9,0-1.8,0-2.8c0-0.1,0-0.2-0.1-0.3c-0.4-0.3-0.8-0.6-1.2-0.9c-0.1-0.1-0.3-0.2-0.3-0.4
		s0.3-0.2,0.4-0.1c0.4,0.2,0.8,0.5,1.2,0.9c0.2-0.1,0.1-0.2,0.1-0.4c0-0.7,0-1.4,0-2c0-0.4,0.1-0.9,0-1.3c0-0.4-0.2-0.7-0.5-0.9
		c-0.2-0.1-0.4-0.3-0.1-0.6c0,0,0.1,0,0.1,0c0.3,0.2,0.7,0.4,1.1,0.4C255.7,21,255.7,21.1,255.7,21.2z"/>
	<path class="st3" d="M261.4,25.4l0.1-0.2l1,0.6l-0.1,0.3C261.9,26,261.5,25.8,261.4,25.4z"/>
	<path class="st3" d="M259,22.9c0.1-0.3,0.1-0.6,0.1-0.9c0.1,0,0.1,0.1,0.2,0.2C259.2,22.5,259.3,22.8,259,22.9z"/>
	<path class="st3" d="M264,31.7c-0.3-0.2-0.6-0.4-0.9-0.6c-0.2-0.1-0.3-0.2-0.2-0.4c0,0,0,0,0,0c0.1-0.3-0.1-0.6,0-0.8
		c0-0.1,0.1-0.2,0.1-0.2s0.1,0.1,0.1,0.2c0,0.1,0,0.2,0,0.3c-0.2,0.4,0.1,0.5,0.4,0.7s0.3-0.1,0.5-0.2s0.5-0.2,0.6-0.5
		c0-0.1,0.2,0,0.3,0.1s0.3,0.3,0.4-0.1c0-0.1,0.1-0.2,0.1-0.1s0.1,0.1,0.1,0.2s0,0.3-0.1,0.4s-0.3,0.5-0.6,0.4c-0.1,0,0,0.1,0,0.1
		C264.6,31.8,264.6,31.8,264,31.7z"/>
	<path class="st3" d="M263,29.5l-0.2-0.2c-0.1-0.2-0.2-0.4-0.1-0.6c0-0.2,0-0.4,0.1-0.6l0.2,0.1L263,29.5z"/>
	<path class="st3" d="M265.8,29.3c0.1,0,0.1,0.1,0.1,0.2c0,0,0,0.1,0,0.1c0,0,0,0,0,0c-0.1,0-0.1-0.1-0.2-0.2S265.7,29.3,265.8,29.3
		z"/>
	<path class="st3" d="M266.5,30.3c0,0.1,0.3,0.3-0.1,0.4C266.4,30.5,266.1,30.3,266.5,30.3z"/>
	<path class="st3" d="M255.5,29.4c0-0.8,0-1.6,0-2.4c0-0.1,0-0.3,0.1-0.3s0.2,0,0.3,0.1c0.3,0.2,0.6,0.4,1,0.6
		c0.2,0,0.4,0.3,0.8,0.3c-0.2-0.1-0.4-0.1-0.3-0.3c0-0.2,0.2-0.3,0.4-0.2c0.6,0.1,1-0.4,1.4-0.8c0.1-0.1,0.1-0.2,0.2-0.2
		c0.4,0.1,0.9-0.1,1.3,0s0.9,0.3,1.4,0.1c0.1-0.1,0.2-0.1,0.3,0c-0.1,0.3-0.5,0.2-0.5,0.5c-0.1,0.2-0.3,0.3-0.5,0.4
		c-0.2,0.1-0.4,0.3-0.4,0.5c0,0.1-0.1,0.1-0.1,0.1c-0.2-0.1-0.3,0-0.3,0.2c-0.1,0.2-0.3,0.2-0.5,0.2c-0.1-0.3-0.2,0-0.2,0.1
		c-0.2,0.2-0.4,0.4-0.7,0.5c-0.3,0.1-0.3,0-0.4-0.2s-0.1-0.4-0.3-0.4h-0.1c0,0,0,0,0,0s0,0.1,0.1,0.1s0.1,0,0.1,0
		c0.3,0.4,0.1,0.7,0,1s-0.4,0.3-0.7,0.4s-0.8,0.2-1.2-0.2c0-0.1-0.2,0-0.3,0.1C256,29.5,255.7,29.5,255.5,29.4z"/>
	<path class="st3" d="M262.4,26.2c-0.5,0.4-1,0.1-1.5,0.1c0,0-0.1,0-0.1,0c-0.4-0.5-0.9,0-1.4-0.2c-0.1,0-0.1,0-0.1,0.1
		c-0.1,0.3-0.3,0.5-0.6,0.5c0,0,0,0-0.1,0c-0.2,0.3-0.5,0.6-0.9,0.3c0,0-0.3,0-0.2,0.2s0.1,0,0.2,0s0.2,0,0.1,0.1s0,0.3-0.2,0.3
		c-0.3,0-0.6-0.2-0.8-0.4c0-0.3-0.3-0.4-0.5-0.6s-0.5-0.2-0.5-0.5s0.3-0.4,0.5-0.5c0.8-0.5,1.6-1,2.4-1.6c0.1-0.1,0.3-0.1,0.5,0
		l1.8,1.2c0.1,0.1,0.2,0.1,0.3,0.1c0.2,0.4,0.6,0.4,0.9,0.7L262.4,26.2z"/>
	<path class="st3" d="M260,28c0.2,0,0.4,0,0.5-0.2c0.1-0.1,0.2-0.2,0.3-0.2l0.1-0.1c0.3-0.3,0.7-0.6,1.1-0.7l0.3-0.1
		c0.1,0.2,0,0.4,0.2,0.5s0,0.3-0.2,0.3c-0.3,0.1-0.6,0.2-0.9,0.4c-0.1,0-0.2,0.1-0.1,0.2s0.1,0.1,0.2,0.1c0.2,0,0.3-0.1,0.5-0.1
		c0.4-0.1,0.6,0,0.8,0.4v0.6c0,0.5,0,0.9,0,1.4c0,0.2,0,0.3-0.2,0.4c-0.2,0-0.3,0-0.5-0.1c-0.2-0.1-0.2-0.4-0.1-0.6
		c0.1-0.1,0.2-0.2,0.2-0.3s0.2-0.3-0.1-0.4s-0.5,0-0.8,0s-0.4-0.1-0.5,0.2c0,0-0.1,0.1-0.1,0.1c-0.5-0.1-0.3,0.4-0.5,0.6
		c0.2,0.2,0.4-0.1,0.5,0.2s-0.2,0.4-0.4,0.5c-0.1,0.1-0.2,0.1-0.3,0.2c0.3,0.2,0.2,0.4,0,0.6c-0.2,0.2-0.2,0.4-0.4,0.6
		s-0.2,0.2-0.4,0c0-0.2,0-0.4,0-0.6c0-0.2,0-0.3,0-0.5c0-0.6,0-1.2,0-1.8c0-0.2,0-0.3-0.1-0.5c0-0.1,0.1-0.2,0.1-0.3
		c0.1-0.3,0.4-0.4,0.5-0.7C259.7,28,259.8,28,260,28C259.9,28,259.9,28,260,28z"/>
	<path class="st3" d="M262.7,28.7c-0.2-0.3-0.7-0.4-1-0.2h-0.1c-0.2,0-0.5,0.2-0.5-0.1s0.2-0.4,0.4-0.4s0.5-0.4,0.9-0.4
		c0.1,0,0.1-0.2,0-0.2c-0.3-0.1-0.1-0.4-0.1-0.6l0.2-0.2c0.2-0.2,0.3-0.1,0.3,0.2c0.1,0.2,0.1,0.4,0,0.6L262.7,28.7L262.7,28.7z"/>
	<path class="st3" d="M262,26.9c-0.3,0.3-0.7,0.5-1.1,0.7c-0.1-0.1,0-0.2,0.1-0.3c0.3-0.3,0.6-0.4,0.9-0.6L262,26.9z"/>
	<path class="st3" d="M262.7,27.5v-0.6c0.3,0,0.2,0.3,0.2,0.4S262.8,27.4,262.7,27.5z"/>
	<path class="st3" d="M244.5,41.6v-0.1c0.5-0.1,0.4-0.7,0.6-1c0.1-0.1,0.2-0.3,0.2-0.5l0.2,0.4c0.2-0.1,0-0.2,0.1-0.3
		c0.1,0.1,0.2,0.5,0.5,0.2c0.1-0.1,0.1,0.1,0.2,0.2c0-0.2,0-0.4,0-0.6c0-0.1-0.1-0.2-0.2-0.3c0-0.3,0-0.5,0-0.8
		c0-0.2,0.1-0.4,0.1-0.6c0-0.1,0-0.3,0.1-0.4c0.1-0.1,0.2-0.2,0.4-0.1s0.1,0.2,0,0.4s-0.1,0.2-0.2,0.4c0.2,0,0.4,0,0.5-0.2
		c0.1-0.1,0.2-0.1,0.3,0c0,0,0,0,0,0c0.4,0.4,0.4,0.4,0,0.8c0.3,0,0.5,0.1,0.5,0.5c0,0.3,0,0.7,0,1c0,0.2,0,0.4,0.1,0.6
		c0.1,0.2-0.1,0.4-0.1,0.6c0.3,0.2,0.1,0.5,0.1,0.7s-0.1,0.1-0.2,0c-0.4-0.4-0.6-0.1-0.8,0.2s-0.3,0.3-0.5,0.3s-0.2,0.1-0.2,0.2
		s-0.2,0.2-0.2,0s-0.1-0.3-0.3-0.2s-0.3,0.1-0.3-0.1s0.2-0.1,0.3-0.2c0.3,0,0.6-0.2,0.7-0.5c0.1-0.2,0-0.2-0.1-0.3s0,0,0.1,0
		s0.3-0.1,0.3-0.3s0-0.2,0.1-0.2s0.1,0.2,0.2,0.2c0.1-0.1,0-0.3,0-0.4s-0.3-0.1-0.1-0.3c0-0.1,0-0.2,0-0.2c0,0,0,0,0,0
		c-0.1,0-0.2,0-0.3,0.1c-0.1,0.1,0,0.1,0,0.2s0.1,0.1,0.1,0.2c-0.1-0.1-0.3-0.1-0.3-0.4s-0.5-0.3-0.7-0.1s-0.5,0.4-0.5,0.8
		c0,0.1-0.1,0.2-0.3,0.2c0,0-0.1,0-0.1,0L244.5,41.6z"/>
	<path class="st3" d="M248,44c0-0.3,0-0.6,0-0.9c0.6-0.3,1.4-0.2,1.9,0.3c0.1,0.1,0.2,0.2,0.3,0.3c0.2,0.1,0.4,0.1,0.5-0.1
		c0.1-0.2,0.2-0.3,0.4-0.4c0.2,0,0.3,0.1,0.4,0.2c0.2,0.3,0.2,0.7,0,0.9c-0.2-0.2-0.5,0.1-0.7,0c-0.3,0-0.6,0-0.8,0
		c-0.1,0-0.2,0-0.2,0.1c0.1,0.1,0.3,0.2,0.4,0.4c0.1,0.2,0.3,0.2,0.5,0.2c0.3-0.1,0.5,0.1,0.7,0.3c0.1,0.1,0.1,0.2,0.1,0.3
		c0,0.1-0.1,0.1-0.2,0.1c0,0,0,0,0,0c-0.4-0.2-0.7,0.1-1,0.4s-0.5,0.3-0.6-0.1c-0.1-0.3-0.2-0.6-0.5-0.9c-0.2-0.1-0.3-0.2-0.5,0
		s-0.3,0.2-0.5,0.1s0-0.4-0.1-0.5l0,0C247.7,44.3,247.9,44.1,248,44z"/>
	<path class="st3" d="M247.8,41.9L247.8,41.9c0.1-0.3,0-0.7-0.2-0.9c0.3-0.2,0-0.5,0.1-0.7c0.1-0.2,0.1-0.5,0-0.7
		c0-0.2-0.2-0.2-0.3,0s-0.1,0-0.1,0s-0.1-0.4,0.2-0.4s0.1-0.1,0.1-0.2s-0.1-0.1-0.2-0.1s0-0.2-0.2-0.3c-0.1,0.3-0.5,0.1-0.7,0.4
		c0,0-0.1,0-0.1-0.1s-0.1-0.3,0.1-0.4s0.2-0.2,0.2-0.4c-0.3,0-0.4,0.1-0.4,0.4c0,0.2,0,0.3-0.1,0.5c-0.1,0.1-0.1,0.3-0.3,0.1
		c0.2-0.3-0.1-0.6,0-0.9c0-0.1,0-0.2,0.1-0.1c0.3,0.2,0.2-0.1,0.2-0.2c0-0.5,0-0.5,0.4-0.4c0.2,0.1,0.5,0,0.6,0.4c0,0.1,0.2,0,0.2,0
		s0-0.1,0-0.2s-0.1-0.5,0.3-0.4c0.1,0.3,0.2,0.6,0.2,0.9c0,0.2,0,0.3,0,0.5c0,0,0,0.1,0,0.1c0,0.2,0.1,0.3,0.2,0.5
		c0,0.1,0,0.3,0,0.4c0,0.3,0.1,0.6,0.1,0.9c0,0.1,0.1,0.1,0.1,0.1c0.1,0.1,0.2,0.2,0.2,0.3c0,0.1-0.1,0.2,0,0.3
		c0.2,0.1,0.3,0.2,0.4,0.4c-0.1,0.4,0.2,0.4,0.4,0.5s0.4,0.2,0.4,0.5c-0.2,0.4-0.6,0.2-0.9,0.1c-0.1,0-0.2,0-0.3-0.1
		c0-0.1,0.2-0.3-0.1-0.4s-0.1-0.2-0.1-0.4s0-0.4-0.2-0.4s-0.1,0.2-0.1,0.3C247.9,41.8,247.9,41.8,247.8,41.9z"/>
	<path class="st3" d="M248.5,42.5h0.3c0.4,0.4,1,0.5,1.6,0.4c0.1,0,0.1,0,0.2,0c0.1,0,0.2-0.1,0.2-0.2c0.1,0,0.1,0,0.2,0.1
		c0.1,0.1,0.1,0.3,0,0.4c-0.1,0.1-0.2,0.2-0.3,0.3c-0.2,0.4-0.6,0.5-0.9,0.1c-0.3-0.5-0.9-0.7-1.5-0.6c-0.1,0-0.3,0-0.5,0
		c-0.1-0.2-0.2,0.3-0.2,0s0-0.3,0.2-0.2c0,0,0.1-0.2,0.2-0.3S248.3,42.3,248.5,42.5z"/>
	<path class="st3" d="M246.4,42L246.4,42c-0.2,0.2-0.7,0-0.7,0.5c-0.1-0.4,0.1-0.5,0.3-0.6S246.4,41.7,246.4,42z"/>
	<path class="st3" d="M248,44c0.1,0.2-0.1,0.3-0.1,0.5c-0.3,0,0-0.4-0.2-0.4C247.7,43.9,247.8,44,248,44z"/>
	<path class="st3" d="M246,47.3c-0.1-0.1,0-0.2,0-0.3c0.5-0.3,1-0.7,1.5-1c0.3-0.1,0.1-0.4,0.3-0.6c0.1-0.1,0.2-0.1,0.2,0
		c0.2,0.7,0.8,0.8,1.2,1.1s1.1,0.7,1.6,1c0.1,0.1,0.3,0.2,0.3,0.4c0,0.1,0,0.2-0.1,0.3c-0.2,0.1-0.3,0-0.4-0.1
		c-0.8-0.5-1.6-1-2.4-1.6c-0.2-0.2-0.5-0.2-0.8,0c-0.4,0.2-0.7,0.5-1.1,0.7C246.3,47.2,246.1,47.3,246,47.3z"/>
	<path class="st3" d="M248,45.4h-0.2c0-0.3-0.2-0.6,0.1-0.9c0.3,0,0.1,0.3,0.2,0.4S248.1,45.2,248,45.4z"/>
	<path class="st3" d="M248.3,50.7c-0.5-0.3-0.3,0.3-0.4,0.4s0,0.3-0.2,0.4c0-0.2,0-0.3,0-0.5c0-0.1,0-0.2-0.1-0.3
		c-0.8-0.4-1.5-1-2.2-1.4c0.1,0,0.2-0.1,0.1-0.3c0.2-0.1,0.3,0.1,0.5,0.1c0.5,0.4,1,0.6,1.5,1c0.2,0.2,0.5,0.2,0.7,0
		c0.1-0.1,0.3-0.3,0.5-0.2C248.9,50.4,248.8,50.6,248.3,50.7z"/>
	<path class="st3" d="M248.7,50c-0.1,0-0.2,0.1-0.3,0.1c-0.8,0.6-0.5,0.4-1.3,0c-0.6-0.3-1.1-0.7-1.6-1.1l-1.1-0.7
		c0.5-0.4,1-0.8,1.5-1.1c0.5-0.3,1.1-0.7,1.6-1c0.2-0.1,0.4-0.1,0.5,0c1,0.6,1.9,1.2,2.9,1.9c0.1,0,0.2,0.1,0.2,0.2
		s-0.1,0.3-0.2,0.4l-1.5,1C249.2,49.8,249,50,248.7,50z"/>
	<path class="st3" d="M259.2,17.4c0-0.2,0-0.4,0-0.7s0-0.3-0.2-0.3c-0.1,0.6-0.1,1.1-0.1,1.7c0,0.5,0,0.5-0.4,0.3l-0.1-0.1
		c-0.4-0.1-0.7-0.2-1-0.5c-0.5-0.3-1-0.7-1.5-1c-0.2-0.1-0.4-0.3-0.6-0.5c-0.1-0.2-0.1-0.4,0-0.6c0-0.6,0-1.2-0.1-1.8
		c0-0.2,0.1-0.3,0.2-0.4c0-0.5,0-0.9,0-1.4c0-0.3,0.1-0.3,0.3-0.2c0.5,0.4,1,0.7,1.5,1l1.1,0.7c0,0,0.1,0.1,0.1,0.1
		c0.5,0.2,0.6,0.6,0.5,1.2c-0.1,0.4,0.1,0.7,0,1c0,0.1,0,0.1,0.1,0.1c0,0,0.1,0,0.1-0.1c0.1-0.1,0-0.3,0-0.4
		c0.3-0.2,0.5-0.3,0.8-0.5s0.3-0.1,0.4,0.1c0.1-0.6,0.4-0.7,0.8-0.5c0.1,0.1,0.3,0.1,0.5,0.1c0.3-0.1,0.5-0.1,0.6,0.2
		c0.2-0.1,0.1-0.3,0.3-0.3c0,0.3,0,0.6,0,0.8c0,0.9-0.1,1.2-1,1.5c-0.5,0.3-1,0.1-1.5-0.2c-0.1,0.4-0.4,0.6-0.6,0.8
		C259.5,17.5,259.3,17.5,259.2,17.4z"/>
	<path class="st3" d="M262.7,14.5c0,0.1-0.1,0.2-0.1,0.3s-0.1,0.3-0.2,0.3s-0.1-0.2-0.1-0.2s-0.2-0.2-0.4-0.1
		c-0.2,0.1-0.4,0.1-0.6,0c-0.5-0.2-0.6-0.2-0.8,0.4v0.1c-0.1-0.2-0.2-0.3-0.4-0.1s-0.4,0.6-0.8,0.4c0-0.2,0-0.4,0-0.6
		c-0.2-0.5,0.1-1.1,0.6-1.4c0.7-0.4,1.4-0.9,2-1.3c0.2-0.2,0.5-0.3,0.8-0.5L262.7,14.5z"/>
	<path class="st3" d="M259.2,17.4c0.2,0,0.4,0,0.5-0.3c0-0.1,0.1-0.1,0.1-0.1c0.2,0,0.3-0.1,0.2-0.4c0-0.1,0-0.2,0-0.2c0,0,0,0,0,0
		c0.1,0,0.1,0,0.2,0c0,0,0,0,0,0c0.3,0.4,0.9,0.6,1.4,0.4c-0.4,0.4-0.9,0.6-1.3,1c-0.4,0.3-0.7,0.5-1.1,0.7L259.2,17.4z"/>
	<path class="st3" d="M259.2,32.7c0.2-0.2,0.5-0.4,0.5-0.8l0,0c0.4-0.1,0.4-0.3,0-0.5c0,0,0-0.2,0.1-0.2s0.3-0.3,0.6-0.3
		s0.2-0.1,0.1-0.3s-0.1-0.1-0.2,0s-0.2,0-0.3-0.1s0-0.2,0.1-0.3c0.1-0.1,0.2-0.2,0.2-0.3c0-0.1-0.1-0.3,0-0.4s0.2,0.2,0.4,0.3
		c0.1-0.3,0.2-0.6,0.6-0.4c0.2,0.1,0.3-0.1,0.4-0.2s0.4-0.3,0.3,0.2c0,0.2,0.1,0.1,0.2,0.1s0.2-0.1,0.3,0s0,0.2,0,0.3
		s-0.2,0.3-0.3,0.5c-0.2,0.4-0.2,0.5,0.2,0.7c0.1,0,0.2,0,0.2,0.1c-0.4,0.3-0.8,0.6-1.3,0.9c-0.2,0.1-0.3,0.2-0.4,0.3h-0.1
		c-0.3,0.3-0.6,0.6-1,0.8c0,0-0.1,0-0.2,0.1s-0.3,0.2-0.4,0.1C259,33.1,259.1,32.8,259.2,32.7C259.2,32.7,259.2,32.7,259.2,32.7z"/>
	<path class="st5" d="M249.1,8.8c0.6,0.1,0.9,0.6,1,1.2c0.1,0.1,0.1,0.3,0.1,0.4c0,0.8,0,1.5,0,2.3c0,0.1,0,0.3,0,0.4
		c0.1,1.5,0,3,0,4.5c0,0.2,0,0.4-0.1,0.6c-0.1,0.6-0.6,1.1-1.3,1.1c-0.8,0-1.6,0-2.4,0c-0.6,0-1.1-0.5-1.2-1.1c-0.1-0.1,0-0.2,0-0.3
		c0.1-0.1,0.1-0.3,0-0.4c0-1.3,0-2.5,0-3.8c0-0.2,0-0.4-0.1-0.6c0.2-0.1,0.1-0.3,0.1-0.4c0-0.7,0-1.3,0.2-2c0.2-0.7,0.7-1.2,1.4-1.6
		C247.6,8.7,248.3,8.7,249.1,8.8z"/>
	<path class="st3" d="M244.9,24.2l-0.4-0.4c0-0.1,0-0.2,0-0.4s-0.1-0.5,0-0.6c0.3-0.3,0.6-0.7,1.1-0.8c0.5,0,0.9-0.1,1.3-0.2
		c0,0,0.1,0,0.1-0.1s-0.1-0.1-0.1-0.2l0,0c-0.8-0.1-1.2-0.9-1.8-1.2c-0.2-0.1-0.5-0.1-0.6-0.5c-0.1-0.1,0-0.3,0.1-0.4
		c0.2,0.1,0.3,0.3,0.5,0.3s0.2,0.1,0.3,0c0.2-0.1,0.3,0,0.4,0.1c0,0,0,0,0,0c0.1,0.2,0.2,0.3,0.2,0.5c0,0.1-0.1,0.2,0,0.3
		s0.1-0.1,0.2-0.2s0.3-0.1,0.3,0.2c0,0,0,0.1,0,0.1c0,0.1-0.1,0.1,0,0.2s0.1-0.1,0.2-0.1c0.2,0,0.3,0,0.5,0c0,0,0.1,0,0.1,0.1
		c0.1,0.2,0.3,0.2,0.4,0.4c0.1,0.3,0.1,0.7,0.1,1c0,0.2,0.1,0.3,0.2,0.4c0.1,0.7,0,1.4-0.2,2c-0.1,0.2,0,0.4,0,0.7s0.1,0.5-0.1,0.6
		s-0.4,0-0.6-0.1C246.4,25.3,245.6,24.8,244.9,24.2z"/>
	<path class="st3" d="M246,19.9c0-0.1-0.2-0.2-0.3-0.1c0,0-0.1,0-0.1,0.1c-0.1-0.1-0.2-0.2-0.2-0.4c-0.2-0.2-0.4-0.3-0.7-0.4
		c-0.1-0.1-0.3-0.2,0-0.3s0.5-0.3,0.7-0.5c0.2,0.7,0.9,1.1,1.7,1c0.5,0,1,0,1.5,0c1.1,0,1.4-0.2,1.6-1.5c0.1-0.1,0.1-0.2,0.1-0.3
		c0-0.2,0-0.3,0-0.5c0.1-0.6,0.4-0.8,0.9-0.5c0-0.3,0-0.6,0.3-0.8c0.2,0.1,0.2,0.2,0.1,0.4c-0.1,0.3,0,0.6,0.1,0.8
		c0,0.1,0.1,0.2,0,0.2c-0.3,0.3,0,0.7-0.2,1c0,0.2,0.1,0.3,0.1,0.5c-0.2,0.3-0.5,0.5-0.7,0.6c-0.9,0.6-1.7,1.2-2.6,1.7
		c-0.2,0.1-0.3,0.3-0.5,0.2c-0.2-0.1-0.3-0.2-0.5-0.3l0,0C246.8,20.6,246.4,20.3,246,19.9z"/>
	<path class="st3" d="M245.3,19.5c0.2,0,0.2,0.2,0.2,0.4c-0.2,0.1-0.2-0.1-0.3-0.2C245.2,19.6,245.2,19.5,245.3,19.5z"/>
	<path class="st3" d="M250.1,12.8V10c0.7,0.1,1.2-0.4,1.9-0.6l1.3,0.9c0.5,0.3,1,0.6,1.5,0.9c0.1,0.1,0.2,0.1,0.3,0.3l-0.1,0.1
		l-0.5,0.3c-0.1,0.4-0.5,0.4-0.8,0.6c-0.1,0.1-0.2,0.1-0.3,0.2c-0.3,0.2-0.6,0.4-1,0.7c-0.3,0.4-1,0.5-1.4,0.2
		c-0.1,0-0.1-0.1-0.2-0.1C250.6,13.3,250.3,13,250.1,12.8z"/>
	<path class="st3" d="M255.5,13.5c-0.1,0.2,0,0.4,0,0.7c0,0.5,0,1.1,0,1.6c-0.1,0.1-0.1,0.1-0.2,0.1c-0.5-0.2-0.9-0.4-1.4-0.6
		c-0.1-0.1-0.2-0.2-0.2-0.3c-0.2-0.5-0.5-1-0.9-1.4c0-0.1,0-0.1,0-0.2c0.1-0.3,0.4-0.5,0.7-0.5c0,0.2,0.2,0.2,0.3,0.3
		s0.4,0.1,0.1,0.4s0.1,0.3,0.2,0.3s0.5,0,0.5-0.1C254.9,13.5,255.2,13.5,255.5,13.5z"/>
	<path class="st3" d="M253.5,12.9c-0.3,0.1-0.5,0.3-0.7,0.5c0,0.1-0.1,0.1-0.1,0.1c-0.1,0-0.2,0-0.2-0.2l1-0.6
		c0.1,0,0.2-0.1,0.3-0.1c0.1,0,0.2,0.1,0.1,0.2L253.5,12.9z"/>
	<path class="st3" d="M253.8,12.7c-0.1-0.3-0.3,0-0.4-0.1l1.1-0.7c0.2,0.1,0.2,0.2,0,0.3C254.2,12.4,254,12.5,253.8,12.7z"/>
	<path class="st3" d="M248.2,20.9c0.9-0.5,1.8-1.1,2.6-1.7c0.1,0.1,0.1,0.2,0.1,0.3c-0.2,0.4-0.5,0.5-0.8,0.7
		c-0.5,0.3-0.5,0.3-0.1,0.8c0.3,0.4,0.8,0.6,1.3,0.4c0.1,0,0.1-0.1,0.2,0c0.2,0.3,0.2,0.7,0.1,1.1c0,0.2,0,0.4,0,0.6
		c0.1,0.4-0.1,0.8-0.4,1.1c-0.1,0.1-0.1,0.1-0.1,0.2c-0.1,0.3-0.4,0.3-0.6,0.5c-0.2,0.2-0.5,0.3-0.7,0.5c-0.5,0.2-0.9,0.6-1.4,0.9
		c0.5,0.3,0.9,0.6,1.4,0.9c0.1,0.1,0.2,0.2,0.3,0.3c0,0.4,0.3,0.8,0.1,1.3l0,0c0.5,0.6,0.9,1.4,1.6,1.7c0.1,0.1,0.2,0.3,0.1,0.5
		c-0.1,0.5,0.2,1-0.2,1.5c0,0,0.2,0.3,0.2,0.5c0,0,0,0.2,0.1,0.1c0.1,0,0.2,0,0.2,0c0.1,0,0.1,0.1,0.1,0.1c0,0.4-0.3,0.3-0.5,0.4
		c-0.6,0-0.8-0.4-0.6-1c0-0.1,0.1-0.3,0.1-0.4c0-0.4,0.1-0.8-0.3-1.1c-0.1-0.1-0.3-0.1-0.5-0.1c-0.5,0.3-1.2,0.1-1.5-0.5
		c0,0,0-0.1,0-0.1c-0.1-0.2-0.2-0.1-0.3,0s-0.2,0.2-0.3,0.3c-0.1,0.1-0.3,0.1-0.5,0c0,0,0,0,0,0c-0.1-0.1-0.1-0.3-0.2-0.4
		c-0.1-0.1-0.1-0.2,0-0.3c0,0,0,0,0,0c0.2-0.2,0-0.4,0-0.7c0-0.8,0-1.7,0-2.5c0-0.4-0.1-0.4-0.4-0.2s-0.8,0.3-1,0.6
		c0,0-0.1,0.1-0.1,0.1c-0.4-0.1-0.5,0-0.7,0.4c0,0.1-0.1,0.4-0.3,0.1c0-0.1-0.2,0-0.2,0.1c0,0.4-0.2,0.5-0.5,0.6
		c-0.2-0.5-0.2-1-0.1-1.6c0-0.8,0.2-1.6,0.2-2.4c0-0.2,0.1-0.2,0.3-0.1s0.2,0.2,0.3,0.1l-0.2-0.4c0.2,0,0.3,0.1,0.5,0.2
		c0.5,0.4,1.1,0.8,1.7,1.1c0,0,0.1,0,0.1,0.1c0.1,0.2,0.3,0.4,0.5,0.2s0.1-0.4,0.1-0.6c0-0.3,0-0.6,0.1-0.9c0.2-0.4,0.2-0.8,0-1.2
		c-0.1-0.1,0.1-0.3,0.1-0.5s-0.2-0.1-0.2-0.3c0-0.3,0-0.5,0-0.8c0-0.2,0.1-0.3,0.2-0.4C248.1,21,248.3,21,248.2,20.9z"/>
	<path class="st3" d="M247.7,30.1c0,0.1,0,0.2,0.1,0.2c0.3,0.1,0.2,0.3,0.2,0.5c0.1,0.2,0.2,0.3,0.3,0.5c0,0.1,0,0.1-0.1,0.1
		c-0.2,0-0.4,0.1-0.6,0s-0.1-0.2-0.3-0.1c-0.3,0.3-0.7,0.5-1.1,0.6c-0.2-0.2-0.3-0.6-0.5-0.1c-0.1,0.1-0.3,0.1-0.5,0
		c-0.2-0.1-0.1-0.2,0-0.2s0.2-0.2,0.2-0.4c0-0.1,0-0.2,0.1-0.2c0.2-0.4,0.2-0.5-0.2-0.6c0.2-0.1,0.3-0.3,0.5,0c0,0,0.1,0.1,0.1,0.1
		c0,0,0,0,0.1-0.1c0,0,0-0.1,0-0.1c-0.3-0.3,0.1-0.4,0.2-0.5s0.3-0.1,0.4,0c0.1,0.2,0.4,0.2,0.5,0.1
		C247.4,29.5,247.5,29.9,247.7,30.1z"/>
	<path class="st3" d="M247.8,38.6c-0.1-0.1-0.1-0.3-0.1-0.5c0.1-0.3-0.1-0.6,0-1c0,0,0-0.1,0-0.1c0.1-0.6-0.2-1.2-0.8-1.4
		c-0.4-0.2-0.7-0.5-1.1-0.8s-0.5-0.2-0.7-0.4l0.2-0.2c0.2-0.1,0.4,0.1,0.5,0.2c0.5,0.4,1.1,0.7,1.7,1.1c0.2,0.2,0.5,0.2,0.7,0
		c0.2-0.2,0.4-0.5,0.8-0.3c0.1,0.2,0,0.5-0.2,0.6c0,0,0,0,0,0c-0.6,0.3-0.7,0.8-0.6,1.4c0,0.2,0,0.3,0,0.5c0,0.2,0,0.4,0,0.6
		C248.1,38.5,248,38.7,247.8,38.6z"/>
	<path class="st3" d="M246,38.9c0.1,0.1,0.2-0.1,0.3-0.1c0,0.3,0,0.6-0.1,0.9C246,39.5,245.6,39.3,246,38.9z"/>
	<path class="st3" d="M249,35.2c0,0-0.1,0-0.1,0.1c-0.7,0.7-1.3,0.6-2,0c-0.3-0.3-0.7-0.5-1.1-0.7c0.2-0.4,0.2-0.9,0.6-1.2
		c0.1-0.2,0.2-0.4,0.1-0.6c-0.1-0.2-0.1-0.3,0-0.4l1.1-0.7c0.2-0.2,0.4-0.2,0.6-0.1c0.5,0.2,0.9,0.5,1.3,0.8
		c0.2,0.1,0.4,0.3,0.6,0.4c0.3,0.2,0.7,0.4,1,0.6c0.3,0.2,0.3,0.4,0,0.5c-0.7,0.4-1.3,0.9-2,1.3C249.1,35.2,249,35.1,249,35.2z"/>
	<path class="st3" d="M246.4,32.2c-0.1,0.1,0,0.3,0.1,0.4c0.1,0.2,0.1,0.5-0.1,0.7c-0.2,0.2-0.4,0.5-0.4,0.8c0,0.2-0.2,0.1-0.2,0.3
		l-0.5-0.3c-0.2-0.2-0.5-0.2-0.7-0.4s-0.1-0.2,0-0.3C245.2,33,245.8,32.6,246.4,32.2z"/>
	<path class="st3" d="M248.7,50c0.8-0.5,1.5-1,2.3-1.5c0.2-0.1,0.3-0.3,0-0.5c0-0.1,0-0.2,0.1-0.2c0.2,0,0.3,0,0.4,0.2
		c0,0.2,0.1,0.4,0.2,0.6c0,0.1,0,0.1-0.1,0.2c-0.1,0.1,0,0.3,0,0.4c0.2,0.3-0.1,0.5-0.1,0.8c0,0.6,0,1.2,0,1.8c0,0.2,0,0.3-0.1,0.5
		c0.1,0.3,0.1,0.6,0.1,0.9c-0.1-0.3-0.4-0.6-0.7-0.5c0,0,0,0,0,0c-0.5,0-1-0.2-1.4-0.5c-0.2-0.1-0.3-0.3-0.3-0.6
		c0-0.2-0.1-0.4-0.4-0.4s-0.4-0.3-0.5-0.4C248.4,50.5,248.8,50.5,248.7,50z"/>
	<path class="st3" d="M251.5,48.7c0.1,0,0.1,0,0.1-0.1c0,0,0,0,0.1,0c0,0,0,0,0,0c0,1-0.1,2.1,0,3.1c-0.1,0.2,0.1,0.5-0.1,0.7
		c0-0.2-0.1-0.2-0.2-0.2c0-0.8,0-1.6,0-2.4c0-0.1-0.1-0.3,0.2-0.4s0-0.2-0.1-0.2C251.5,49.1,251.5,48.9,251.5,48.7z"/>
	<path class="st3" d="M255.5,40.3h-0.2c-0.1-0.2-0.2-0.5-0.1-0.7c0-0.4-0.1-0.5-0.5-0.5c-0.3,0-0.7,0-1,0.1c-0.2,0.1-0.4,0-0.5-0.2
		c0,0,0-0.1,0-0.1c0-0.1-0.1-0.3-0.2-0.4c-0.1-0.4-0.3-0.5-0.7-0.3c-0.5,0.3-0.5,0.3-0.7-0.3c-0.1-0.4-0.1-0.9,0-1.3
		c0-0.5,0-0.9-0.1-1.4c0-0.3,0-0.6,0-0.9c0-0.2,0.1-0.4,0.3-0.4c0,0,0,0,0,0h0.4c0.5,0.3,1,0.6,1.4,1c0.4,0.6,1.1,0.9,1.8,0.9
		c0.1,0,0.3,0,0.4,0.1c0.1,0.1,0.1,0.1,0,0.2s-0.3,0.3-0.3,0.6C255.5,37.8,255.5,39,255.5,40.3z"/>
	<path class="st3" d="M257.6,34.5c-0.2,0.3-0.4,0.6-0.8,0.7c-0.1,0-0.1,0-0.2-0.1c-0.2-0.5,0-1.1,0.4-1.4c0,0,0.1-0.1,0.1-0.2
		s-0.1-0.1-0.2-0.1c-0.1,0-0.2,0.1-0.2,0.2c-0.4,0.5-1,0.8-1.6,0.8c-0.3,0.1-0.5-0.3-0.8-0.5s0.1-0.3,0.2-0.4c-1-0.3-1-0.3-0.8-1.2
		c0.1-0.1,0.2-0.2,0.3-0.3c0.4-0.2,0.8-0.6,1.2-0.7s0.6,0.3,0.9,0.4c0.3,0.3,0.7,0.6,1.1,0.8l0.1,0.1c0.3,0.2,0.6,0.5,0.9,0.7
		c0.2,0.2,0.5,0.1,0.5,0.6C258.5,34,258.1,34.3,257.6,34.5z"/>
	<path class="st3" d="M253.8,32.3c0,0.8,0,0.9,0.8,1c0.1,0,0.2,0.1,0.2,0.2s-0.1,0.2-0.1,0.2s-0.2,0-0.2,0.2s0.1,0,0.2,0.1
		c0,0,0.1,0,0.1,0.1c0.4,0.4,0.6,0.4,1,0.1c0.2-0.1,0.4,0.1,0.6-0.2s0.2-0.2,0.3-0.4s0.5-0.2,0.6-0.1c0.1,0.1,0.1,0.2,0.1,0.2
		c0,0.1-0.1,0.2-0.2,0.2c-0.2,0-0.3,0.1-0.3,0.3c0,0,0,0,0,0c0,0.4,0,0.7,0.1,1.1c-0.1,0.2-0.2,0.2-0.4,0.2c0,0,0-0.1,0-0.1
		c-0.1,0.2-0.4,0.1-0.4,0.4s-0.1,0.4-0.3,0.2c0-0.1,0.1-0.2,0-0.1s-0.5-0.1-0.8,0s-0.5-0.2-0.7-0.3s-0.4,0-0.3-0.4
		c0-0.1-0.3-0.1-0.5-0.1c0.1-0.3,0-0.4-0.2-0.5c-0.3-0.2-0.6-0.4-0.9-0.6c-0.2-0.1-0.4-0.1-0.5-0.4c0.1-0.2,0.4,0,0.5-0.3
		c0.5-0.2,0.9-0.6,1.3-0.9C253.6,32.3,253.7,32.2,253.8,32.3z"/>
	<path class="st3" d="M259.2,32.7c0,0.1,0,0.2,0,0.2c0,0.3,0.1,0.4,0.3,0.2l1.2-0.8c0,0.1,0.2,0.1,0,0.3s-0.6,0.6-1.1,0.6
		c-0.2,0-0.3,0.2-0.3,0.4s0.2,0.1,0.3,0.2s0.4,0.2,0.3,0.4c-0.3-0.1-0.5-0.6-0.9-0.2c-0.1,0.1,0-0.2-0.1-0.2l-0.2,0.1
		c-0.2-0.1-0.1-0.2,0-0.3c0.1-0.3,0.1-0.7,0.1-1.1c0-0.2,0-0.4,0.1-0.6c0.1-0.3,0.2-0.2,0.3,0L259.2,32.7z"/>
	<path class="st3" d="M258.8,33.7c0,0.1-0.1,0.2,0,0.3c-0.2,0.2-0.6,0.3-0.8,0.6c-0.1,0.1-0.2,0-0.3-0.1c0.1-0.4,0.4-0.3,0.6-0.5
		C258.4,33.9,258.6,33.7,258.8,33.7C258.8,33.6,258.8,33.7,258.8,33.7C258.8,33.7,258.8,33.7,258.8,33.7z"/>
	<path class="st3" d="M256.1,35.7c-0.1,0-0.2,0-0.3-0.1c0.1-0.4,0.6-0.1,0.7-0.6c0.1,0.3,0,0.4,0,0.4
		C256.4,35.6,256.2,35.7,256.1,35.7z"/>
	<path class="st3" d="M255.8,46.3c-0.2-0.2-0.6-0.2-0.8,0c0,0,0,0,0,0c-0.4,0.3-0.9,0.6-1.3,0.8c-0.2-0.2-0.1-0.3,0-0.5
		c0.1-0.1,0.3-0.3,0.5-0.4c0.1,0,0.2-0.2,0.1-0.2c-0.3-0.1-0.2-0.5-0.3-0.6c-0.3-0.4-0.4-0.9-0.3-1.4c0-0.5,0-0.9-0.2-1.4
		c0-0.1-0.1-0.1-0.2,0s-0.3,0.2-0.4,0.1c-0.1-0.1-0.1-0.3,0-0.4c0.3-0.1,0.5-0.4,0.7-0.6c0.1-0.1,0.2-0.2,0.4-0.2s0.4-0.1,0.6-0.2
		s0.1-0.2,0.3-0.2s0.2,0.1,0.2,0.4c0,0.4,0,0.4,0.2,0.5c0,0,0.1,0.1,0,0.2c0,0,0,0,0,0c-0.1,0.2-0.1,0.4-0.1,0.6c0,0.4,0,0.8,0,1.3
		c0,0.1,0,0.2,0.1,0.2c0,0.4,0,0.8,0,1.1c0,0.1,0,0.3,0.1,0.4l0.5,0.3L255.8,46.3z"/>
	<path class="st3" d="M255.5,44.3c-0.2,0.1-0.3,0-0.2-0.2c0-0.4,0-0.9,0-1.3c0-0.2,0.1-0.4,0.2-0.6L255.5,44.3z"/>
	<path class="st3" d="M255.5,52.9c0-0.2,0-0.4,0.1-0.6c0.1,0.5,0.5,0.2,0.7,0.2s0.3-0.1,0.4,0.1s0.3,0.4,0.4-0.1
		c0-0.1,0.1-0.1,0.1-0.1c0.2,0.3,0,0.6,0,0.9c0,0.1-0.1,0.1-0.2,0.1c-0.2-0.4-0.5-0.2-0.8-0.2C256,52.9,255.8,52.9,255.5,52.9z"/>
	<path class="st3" d="M254.1,41.6c-0.3,0.2-0.7,0.2-0.8,0.8c0,0.1-0.1-0.3-0.2-0.1c-0.5,0.4-0.9,1-1.6,1c-0.2-0.1-0.3-0.2-0.4-0.4
		l-0.2-0.1c-0.4,0.1-0.6-0.3-0.9-0.4c-0.2-0.2-0.5-0.4-0.8-0.6c-0.1-0.1-0.3-0.2-0.3-0.4l-0.6-0.5c0-0.2,0.2-0.1,0.2-0.2
		c0-0.1,0.1-0.2,0.1-0.2c0.5-0.4,1-0.7,1.6-0.9c0.1,0.1,0.3,0,0.4-0.1c0.5-0.4,1.3-0.3,1.7,0.2c0.3,0.3,0.7,0.2,1,0.1h0.1
		c0.1,0,0.3,0.1,0.4,0.2l0.2,0.1c0.2,0.1,0.3,0.2,0.5,0.3c0.2,0.2,0.5,0.2,0.6,0.5l-0.1,0.2C254.7,41.4,254.4,41.6,254.1,41.6z"/>
	<path class="st3" d="M253.8,40.1c-0.1,0-0.1,0-0.1-0.1s-0.2-0.2-0.3-0.4c-0.4-0.4-1-0.8-1.6-0.9h-0.1c0-0.2-0.4-0.1-0.4-0.3
		s0-0.3,0-0.5c0-0.5,0-0.9,0-1.4c0-0.7,0-1.4,0-2c0-0.4,0-0.5-0.4-0.2s-0.9,0.5-1.3,0.9c-0.1,0.1-0.3,0.2-0.5,0.2
		c-0.1,0-0.2-0.1-0.1-0.2l2.2-1.5c-0.4-0.3-0.8-0.6-1.2-0.9c0-0.1-0.1-0.2,0-0.3s0.2,0,0.3,0.1l0.2,0.1c0.2,0.2,0.4,0.2,0.5-0.1
		c0-0.1,0.1-0.3,0.3-0.2c0,0.2,0,0.4-0.1,0.6c-0.2,0.2-0.1,0.5,0.2,0.5s0.1,0.4,0.3,0.2c0.2,0.1,0.4,0.2,0.5,0.4
		c-0.1,0-0.3,0.1-0.5,0.1c-0.2,0-0.2,0.1-0.2,0.4c0,0.7,0.2,1.3,0.1,2c-0.1,0.5-0.1,1,0,1.4c0.1,0.2,0,0.3,0,0.5
		c0.2-0.1,0.4-0.3,0.6-0.4c0.4-0.1,0.7,0,0.7,0.5c0,0.2,0.2,0.3,0.2,0.5s0.3,0,0.4,0c0.4,0.1,0.7-0.1,1.1,0s0.6,0.3,0.5,0.6
		s0,0.6,0,0.8v0.2c-0.2,0-0.2-0.2-0.2-0.4s-0.1-0.4-0.4-0.3s-0.4,0-0.5,0.3C254.1,40.3,254,40.2,253.8,40.1z"/>
	<path class="st3" d="M253.8,40.1c0.4,0,0.3-0.1,0-0.4c0.3,0.1,0.7,0,1-0.1c0.1-0.1,0.2,0.1,0.2,0.2s0,0.5,0.1,0.7s-0.1,0.2-0.1,0.2
		c-0.2,0-0.4-0.4-0.7-0.1C254.2,40.4,254,40.3,253.8,40.1z"/>
	<path class="st3" d="M254.4,40.5c0-0.2,0-0.3,0.2-0.2c0.2,0.1,0.3,0.2,0.5,0.4c0,0.1,0,0.2-0.1,0.3L254.4,40.5z"/>
	<path class="st3" d="M254.1,41.6l0.8-0.6l0.1,0.1c-0.1,0.2-0.3,0.4-0.6,0.5C254.3,41.8,254.2,41.9,254.1,41.6z"/>
	<path class="st3" d="M253,42.7c0.1-0.1,0.2-0.1,0.3-0.2c0.3-0.2,0.4-0.2,0.4,0.2c0,0.1,0,0.3,0.1,0.4c0.1,0.3,0.1,0.7,0,1
		c-0.2,0.5,0,1.1,0.5,1.4c0,0.2-0.2,0.1-0.2,0.3s0.1,0.1,0.1,0.1c0.1,0,0.2,0.1,0.3,0.2c0,0.1-0.1,0.2-0.2,0.2s-0.3,0.2-0.5,0.3
		s-0.3,0.2-0.2,0.5l-1.4,0.9c-0.3,0.2-0.3,0.3,0,0.5c0.2,0.1,0.3,0.2,0.5,0.3c0,0.2-0.1,0.2-0.2,0.1s-0.2,0-0.4-0.1l-0.4-0.2h-0.1
		c-0.3-0.1-0.3-0.3-0.2-0.6c-0.1-0.1-0.1-0.2-0.1-0.4c0-1,0-2,0-2.9c0.2-0.3,0.3-0.6,0.2-0.9c0-0.3,0.1-0.5,0.3-0.6
		C252.3,43,252.5,42.7,253,42.7z"/>
	<path class="st3" d="M252.2,48.9c0.1,0,0.3-0.1,0.4,0.1s0.1,0,0.2-0.1l1.5,1L254,50C253.3,49.7,252.7,49.3,252.2,48.9z"/>
	<path class="st3" d="M255.7,20.9c-0.5,0.2-0.8,0-1.1-0.3c-0.2,0.1-0.3,0-0.4-0.1c-0.1-0.1-0.2-0.2-0.4-0.3
		c-0.6-0.4-1.2-0.8-1.8-1.2c-0.1-0.1-0.2-0.2-0.1-0.3c0.9-0.5,1.7-1.1,2.5-1.7c0.1-0.1,0.2-0.2,0.3-0.3c0.1-0.2,0.4-0.4,0.6-0.3
		l0.7,0.4c0.7,0.5,1.5,1,2.2,1.5c0.2,0.1,0.3,0.2,0.4,0.3c0,0.1,0.1,0.1,0.2,0.1s0,0.1,0,0.1s-0.2,0.3-0.3,0.3
		c-0.5,0.3-0.9,0.6-1.4,1c-0.2,0.1-0.4,0.2-0.4,0.5c-0.1,0.1-0.1,0-0.2,0s-0.2,0.1-0.4,0.2C256,20.9,255.8,20.9,255.7,20.9z"/>
	<path class="st3" d="M258.5,18.6c-0.6-0.3-1.2-0.7-1.8-1.1c-0.3-0.2-0.6-0.4-0.8-0.6c0-0.1,0-0.1,0.1-0.2c0.9,0.4,1.6,1,2.5,1.6
		L258.5,18.6z"/>
	<path class="st3" d="M256.7,20.6c-0.2-0.3,0-0.4,0.2-0.5c0.6-0.4,1.3-0.9,1.9-1.3c0.1,0.1,0.1,0.2,0.1,0.3
		c-0.6,0.5-1.2,0.8-1.8,1.2L256.7,20.6z"/>
	<path class="st3" d="M256.1,20.7c0.1-0.1,0.2-0.2,0.3-0.2c0.1-0.1,0.1,0.1,0.1,0.1c0,0.2-0.2,0.3-0.4,0.4
		C255.9,21,256,20.8,256.1,20.7z"/>
	<path class="st3" d="M256.1,20.7c0,0.1-0.1,0.2,0,0.3c-0.1,0.1-0.2,0.2-0.4,0.3v-0.3C255.8,20.8,255.9,20.7,256.1,20.7z"/>
	<path class="st3" d="M258.8,33.7L258.8,33.7c-0.1-0.4-0.4-0.3-0.5-0.5c-0.2-0.4-0.5-0.6-0.9-0.7h-0.1c-0.3-0.4-0.7-0.6-1.1-0.8
		c-0.3,0-0.5-0.4-0.8-0.3c-0.1-0.2,0.3-0.2,0.1-0.5c-0.1-0.1-0.1-0.4,0-0.6c-0.1,0.3,0.2,0.6-0.2,0.8c0,0-0.1-0.1-0.1-0.1
		c-0.1-0.2-0.3-0.3-0.4-0.5s0-0.4-0.1-0.6c0.2,0.4-0.1,0.8-0.3,1.2c0,0.1-0.2,0.1-0.3,0c-0.1-0.1-0.2-0.2-0.2-0.4
		c0-0.2,0.1-0.3,0.1-0.5c0.1-0.2,0.1-0.5-0.1-0.6s-0.4-0.2-0.6,0.1c0,0.1-0.1,0.1-0.1,0.1c-0.3-0.2-0.4,0.1-0.6,0.2
		c-0.2,0.2-0.6,0.3-0.8,0.1c-0.1-0.4-0.1-0.8,0-1.1c0-0.2,0.2-0.4,0.4-0.5c0.4-0.3,0.8-0.5,1.2-0.8c0.1-0.1,0.1-0.2,0.2-0.3
		s0.2-0.4,0.4-0.4s0.3-0.2,0.5-0.4s0.3,0,0.5,0s0.2-0.3,0.4-0.1c0.1,0.5,0.1,0.9,0.1,1.4c0,0.5,0,1,0,1.5c0,0.2,0,0.4,0.2,0.4
		c0.1-0.1,0-0.3,0-0.4c0.3,0.1,0.7,0,1-0.2c0.2-0.1,0.3,0.1,0.4,0.2c0.2,0.3,0.4,0.4,0.6,0.1c0.1-0.1,0.2-0.1,0.3-0.1
		c0.4,0.1,0.7,0,0.7-0.6c0-0.1,0-0.2,0.1-0.3c0.1-0.1,0-0.3-0.1-0.4c0,0,0,0,0-0.1l0,0c0.3,0,0.3,0.3,0.4,0.5s0.1,0.1,0.2,0
		s0-0.1,0.1,0c0.3,0.2,0.5-0.1,0.6-0.3c0.1-0.1,0.2-0.2,0.3-0.3c0.2-0.1,0.1,0.1,0.1,0.2c-0.4,0-0.4,0.6-0.6,0.7
		c-0.1,0-0.1,0.3-0.3,0.3c0.1,0.5-0.1,1.1,0,1.6c0,0.2-0.1,0.6,0.2,0.7c0,0.2,0,0.3,0,0.5c-0.1,0-0.2-0.3-0.2,0.1
		c-0.1,0.3,0.1,0.8-0.1,1.2C259,33.5,258.9,33.6,258.8,33.7z"/>
	<path class="st3" d="M253.7,20c0.3,0.1,0.5,0.4,0.8,0.5c-0.1,0.2,0,0.4,0.1,0.5c0,0,0.1,0,0.1,0c0.3,0.1,0.5,0.4,0.5,0.8
		c0,0.5-0.1,1,0,1.5c-0.2,0.1-0.4,0.2-0.6,0.4c-0.3,0.2-0.6,0-0.9,0s-0.9-0.2-1.4-0.2c-0.4,0-0.6-0.4-0.6-0.7c0-0.6,0-1.1,0-1.7
		c0-0.3,0-0.6,0-0.9c0-0.2,0-0.4,0-0.6c0-0.2,0-0.3-0.2-0.3c-0.1,0-0.1-0.1-0.1-0.1c0.1-0.4,0.4-0.2,0.6-0.1
		c0.4,0.2,0.9,0.5,1.3,0.8C253.3,20,253.5,20.2,253.7,20z"/>
	<path class="st3" d="M254.8,26.8c-0.1,0-0.2,0.1-0.2,0s-0.1-0.1-0.2-0.1c-0.2-0.5-0.3-0.5-0.7-0.2s-0.8,0.4-1.2,0.6
		c-0.2,0.1-0.4,0.1-0.5-0.1c0,0,0,0,0-0.1c-0.1-0.2-0.2-0.2-0.4-0.1s-0.4,0.3-0.6,0.1s-0.3-0.5,0-0.7c0,0,0.1-0.1,0-0.2
		s-0.2,0-0.2,0c-0.3,0.1-0.5,0.1-0.6-0.2c-0.1-0.3-0.1-0.6,0.1-0.8c0.1-0.1,0.2-0.1,0.3-0.2c0-0.1,0-0.2,0-0.2
		c0.2,0.1,0.4-0.2,0.5-0.3c0.3-0.5,0.6-0.6,1-0.3c0.4,0.3,0.8,0.5,1.2,0.6c0.2,0,0.4,0.1,0.2,0.4c0.4,0.4,0.9,0.7,1.5,1
		c0.1,0,0.1,0.1,0.2,0.2C255.1,26.5,254.7,26.5,254.8,26.8z"/>
	<path class="st3" d="M253.4,25c0.1-0.5-0.4-0.3-0.5-0.3c-0.3-0.1-0.7-0.3-1-0.5c-0.2-0.2-0.5-0.2-0.7-0.1c0,0,0,0-0.1,0.1l-0.2,0.2
		c0-0.1-0.2-0.1,0-0.3c0.3-0.2,0.5-0.6,0.5-1c0-0.3,0-0.6,0.1-0.9c0.1-0.2-0.2-0.5-0.1-0.8c-0.1-0.1-0.1-0.3-0.1-0.5
		c0.1-0.2,0.2-0.4,0.3-0.6c0.1,0.7,0.1,1.4,0,2.1c0,0.2,0.1,0.3,0,0.5c-0.1,0.6,0.1,0.9,0.5,0.8c0.5-0.1,1,0.1,1.3,0.5
		c0.2,0.2,0.5,0.2,0.7,0.2s0.5,0.3,0.4,0.7c0.3,0.1,0.5,0.3,0.5,0.5c0,0.2,0.1,0.4-0.2,0.4c-0.4-0.3-0.9-0.5-1.3-0.8
		C253.6,24.9,253.5,24.9,253.4,25z"/>
	<path class="st3" d="M255,25.8c0.1-0.2,0.1-0.6-0.2-0.7c-0.1,0-0.1-0.1-0.2-0.1c-0.1,0-0.2,0-0.4,0c0-0.1,0-0.1,0.1-0.1
		s0.3,0,0.3-0.1s-0.1-0.4-0.3-0.4c-0.4,0.1-0.9-0.1-1.1-0.5c-0.2-0.2-0.4-0.2-0.7-0.2c-0.2,0-0.4,0-0.6,0s-0.4-0.1-0.3-0.4
		s-0.3-0.4,0.1-0.6c0,0.3,0.2,0.6,0.5,0.6c0.7,0.1,1.4,0.2,2.1,0.3c0.1,0,0.2,0,0.2-0.1c0.1-0.4,0.4-0.3,0.6-0.2c0,0.7,0,1.4,0,2.1
		c0,0.1,0,0.3-0.1,0.4s0,0.2-0.1,0.1S255,25.9,255,25.8z"/>
	<path class="st3" d="M254.8,26.8c-0.2-0.4,0.2-0.3,0.2-0.5c0.1,0,0.2,0.1,0.1,0.3C255,26.5,255,26.7,254.8,26.8z"/>
	<path class="st3" d="M258.3,28L258.3,28c-0.2,0.2-0.3,0.1-0.4,0s0-0.1,0-0.2s0.1,0,0.1,0L258.3,28z"/>
	<path class="st3" d="M260.8,27.7c-0.1,0.1-0.2,0.2-0.3,0.2c0-0.1-0.1-0.2,0-0.3S260.7,27.6,260.8,27.7z"/>
	<path class="st3" d="M259.2,31.4c-0.1,0-0.3,0.1-0.3-0.2c0-0.6,0-1.2,0.1-1.7c0-0.1-0.2-0.3,0-0.4c0.1,0.1,0.2,0.3,0.2,0.5
		C259.2,30.2,259.2,30.8,259.2,31.4z"/>
	<path class="st3" d="M251.5,44.7V48l-0.4-0.2c-0.9-0.6-1.8-1.2-2.8-1.8c-0.2-0.1-0.4-0.4-0.4-0.7v-0.4c0.1,0.1,0.3,0.1,0.4,0
		c0,0,0,0,0-0.1c0.2-0.3,0.4-0.2,0.7,0c0.3,0.2,0.4,0.5,0.5,0.9c0,0.1,0,0.4,0.2,0.4s0.2-0.1,0.3-0.3c0.1-0.3,0.5-0.2,0.6-0.5
		c0-0.1,0.2,0.1,0.3,0.1s0.2,0.1,0.2,0s0-0.2-0.1-0.2s-0.4-0.3-0.5-0.2s-0.5,0-0.6-0.2s-0.2-0.3-0.4-0.3s-0.1-0.2,0-0.3
		s0.3-0.2,0.4-0.2c0.3,0.1,0.6,0,0.9,0c0.2,0.1,0.4,0,0.6-0.2c0.2,0,0.1,0.2,0.2,0.3C251.6,44.3,251.6,44.5,251.5,44.7
		C251.5,44.6,251.5,44.6,251.5,44.7z"/>
	<path class="st3" d="M251.5,44.7v-0.4c0-0.3,0.1-0.5-0.1-0.8s0.3,0,0.1-0.1c0,0,0-0.1,0-0.1c0.2,0,0.5-0.1,0.6-0.2
		c0.3-0.2,0.6-0.4,0.9-0.6l-0.1,0.4l-1,0.6c-0.3,0.2-0.2,0.6-0.2,0.9S251.7,44.6,251.5,44.7z"/>
	<path class="st3" d="M251.4,43.2c0,0.1,0.1,0.1,0.1,0.2s-0.1,0-0.2,0l-0.4-0.2c-0.1-0.1,0-0.3,0-0.4L251.4,43.2z"/>
	<path class="st3" d="M251.4,38c0,0.1,0,0.3-0.1,0.4c-0.1,0.3-0.4,0.3-0.6,0.5c-0.7,0.5-1.4,0.9-2.1,1.4c-0.1,0.1-0.2,0.2-0.4,0.1
		s-0.2,0.2-0.2,0.1s0-0.2,0.1-0.3s0,0,0-0.1c-0.4-0.1,0-0.5-0.2-0.7c0.1-0.1,0.1-0.3,0.2-0.3c0.4-0.1,0.4-0.4,0.3-0.7
		c0-0.2,0-0.4,0-0.6c0.1-0.5,0.5-0.9,1-0.6s0.8,0.2,1.1,0.7c0.1,0.2,0.4,0.1,0.5,0S251.3,37.8,251.4,38z"/>
	<path class="st3" d="M251.4,38c-0.3,0-0.5,0.2-0.8,0.1c-0.1,0-0.2,0-0.2-0.1c-0.2-0.6-0.8-0.4-1.1-0.8c-0.2-0.1-0.3,0.1-0.5,0.1
		s-0.1,0.3-0.2,0.4c-0.1,0.3-0.1,0.6,0,0.8c0.1,0.2,0,0.4-0.2,0.5c0,0,0,0-0.1,0c-0.2,0-0.3,0.2-0.4,0.3V39c0-0.1-0.2-0.2-0.1-0.4
		l0,0c0.2-0.1,0.1-0.3,0.1-0.4s0-0.3,0-0.5c0.2-0.3,0.5-0.5,0.7-0.8c0.1-0.2,0.4-0.3,0.6-0.2c0,0,0,0,0,0c0.1,0.1,0.2,0.1,0.3,0.1
		c0-0.1,0-0.1-0.1-0.1s-0.3-0.1-0.2-0.3s0.3-0.2,0.4-0.1c0.2,0.1,0.3,0.3,0.4,0.5c0,0.2,0.2,0.4,0.4,0.4c0.2,0.1,0.4,0.1,0.4-0.2
		s0.2-0.5,0.5-0.3L251.4,38z"/>
	<path class="st3" d="M248.3,40.5l2.5-1.6c0.1,0,0.1,0.1,0.1,0.2c-0.2,0.3-0.4,0.5-0.8,0.5l-1.7,1.1
		C248.4,40.7,248.3,40.6,248.3,40.5z"/>
	<path class="st3" d="M250.7,43c-0.7,0-1.4,0.3-1.9-0.5c0,0,0.1-0.1,0.1-0.1c0.3,0.2,0.5,0.1,0.8,0c0.1-0.1,0.2,0,0.3,0
		c0.2,0.2,0.4,0.3,0.6,0.4C250.7,42.8,250.8,42.8,250.7,43z"/>
	<path class="st3" d="M250,42.5l-0.2-0.1c-0.2-0.4-0.5-0.4-0.8-0.6s-0.2-0.2,0-0.4c0.4,0.3,0.9,0.4,1.2,0.9
		C250,42.4,250,42.4,250,42.5z"/>
	<path class="st3" d="M247.8,38.6c0.1,0.1,0.2,0.2,0.1,0.4C248,38.9,247.6,38.8,247.8,38.6z"/>
	<path class="st3" d="M246.8,37.7c-0.1,0.1-0.2,0-0.3,0C246.7,37.6,246.7,37.6,246.8,37.7z"/>
	<path class="st3" d="M250,42.5l0.1-0.2c0.3,0,0.5,0.3,0.8,0.4c0,0.1,0,0.2-0.1,0.2C250.5,42.8,250.1,42.8,250,42.5z"/>
	<path class="st3" d="M252.6,13.4h0.1c0.4,0.4,0.8,1,1,1.5c0.1,0.4,0.5,0.4,0.7,0.5c0.3,0.1,0.7,0.3,1,0.3c-0.1,0.2-0.1,0.4,0,0.5
		c-0.1,0.1-0.2,0.1-0.3,0.1c-0.2-0.2-0.5-0.3-0.7-0.2c-0.4,0.1-0.8-0.1-1-0.4c-0.4-0.6-0.9-0.6-1.5-0.7c-0.1,0-0.1,0-0.1,0.1
		s0,0.2-0.2,0.3s-0.4-0.1-0.4-0.4c0-0.4,0-0.7,0-1.1c0,0,0-0.1,0.1-0.1C251.9,13.8,252.2,13.5,252.6,13.4z"/>
	<path class="st3" d="M255.2,16.3c0.1-0.1,0.1-0.1,0.2-0.1l0.5,0.4c0,0.1,0,0.1-0.1,0.2c-0.2,0-0.4-0.2-0.6-0.3
		C255.3,16.5,255.2,16.4,255.2,16.3z"/>
	<path class="st3" d="M251.5,13.9c0,0.3,0,0.6,0,0.9s-0.2,0.5,0.2,0.5v0.1c0,0,0,0,0,0.1l0,0c-0.1,0.1-0.2,0.2-0.2,0.2
		c-0.1,0.2-0.3,0.5-0.1,0.8c0,0.1,0,0.1,0,0.2c-0.1,0-0.2,0-0.2-0.1c-0.1-0.2-0.3-0.4-0.5-0.2c-0.2,0.2-0.3,0.4-0.3,0.7
		c0,0.2,0,0.4,0,0.6s-0.1,0.2-0.2,0.1v-4.6c0.2-0.1,0.3,0,0.4,0.1s0.4,0.2,0.6,0.4S251.3,13.8,251.5,13.9z"/>
	<path class="st6" d="M248.7,16.4c0,0.6-0.4,1.1-1,1.2c0,0-0.1,0-0.1,0c-0.5,0-1.1-0.7-1.1-1.2c0-0.7,0.5-1.2,1.2-1.2
		C248.3,15.3,248.8,15.8,248.7,16.4C248.7,16.4,248.7,16.4,248.7,16.4z"/>
	<path class="st6" d="M248.7,11.5c0.1,0.5-0.3,1.1-0.8,1.2c-0.1,0-0.2,0-0.2,0c-0.6-0.1-1.1-0.6-1.1-1.2c0-0.6,0.5-1.1,1.1-1.1
		C248.3,10.3,248.7,10.8,248.7,11.5C248.7,11.4,248.7,11.4,248.7,11.5z"/>
	<path class="st7" d="M248.2,14c0,0.3-0.2,0.6-0.5,0.6c0,0,0,0,0,0c-0.3,0-0.5-0.3-0.5-0.6c0-0.3,0.2-0.6,0.5-0.6c0,0,0,0,0,0
		C248,13.4,248.2,13.7,248.2,14z"/>
	<path class="st3" d="M251.1,13.7c-0.4-0.1-0.6-0.5-1-0.5v-0.3c0.3,0.1,0.6,0.4,0.9,0.5C251,13.4,251.2,13.5,251.1,13.7z"/>
	<path class="st3" d="M248.2,20.9c0.1,0,0.2,0,0.2,0.1c0,0.1,0,0.2-0.1,0.2c-0.4,0-0.3,0.3-0.3,0.6s-0.1,0.6,0,0.9
		c-0.2,0.1-0.3,0.1-0.3-0.2c0-0.4,0-0.8,0-1.2c0-0.1,0-0.1,0.1-0.1S248.1,20.9,248.2,20.9z"/>
	<path class="st3" d="M246,19.9c0.5,0.3,1,0.6,1.4,1c-0.2,0-0.3,0-0.5,0c-0.1,0-0.2-0.1-0.2-0.2s0-0.3-0.2-0.2s-0.2,0-0.2-0.2
		C246,20.3,245.9,20.1,246,19.9z"/>
	<path class="st3" d="M246.1,20.3l0.2,0.2c0,0.1,0,0.3-0.2,0.3c-0.1,0-0.1,0-0.2-0.1C245.9,20.6,246,20.4,246.1,20.3z"/>
	<path class="st3" d="M246.6,20.7l0.2,0.2c-0.1,0.1-0.1,0.4-0.3,0.2S246.4,20.8,246.6,20.7z"/>
	<path class="st3" d="M247.8,21.1l-0.1,0.1c-0.2,0-0.5,0-0.4-0.4C247.5,20.8,247.6,21,247.8,21.1z"/>
	<path class="st3" d="M251.7,15.5C251.7,15.4,251.7,15.4,251.7,15.5c0-0.1,0.1-0.2,0.1-0.3c0-0.4,0.1-0.5,0.4-0.2c0.1,0,0.2,0,0.2,0
		c0.5-0.2,0.8,0.1,1.1,0.5c0.3,0.4,0.7,0.6,1.2,0.5c0.3-0.1,0.5,0,0.6,0.3l0.1,0.2c-0.3-0.1-0.5,0.1-0.6,0.3
		c-0.2,0.4-0.6,0.5-0.9,0.7c-0.5,0.4-1.1,0.7-1.6,1.1c-0.1,0.1-0.2,0.2-0.4,0.1s-0.3,0.1-0.2-0.2c-0.1-0.1-0.2-0.3-0.1-0.4
		c0.1-0.2,0.1-0.5,0.2-0.7c0.1-0.2,0.1-0.4,0-0.7C251.6,16.3,251.6,15.9,251.7,15.5z"/>
	<path class="st3" d="M251.6,18.6c0,0.1,0.3,0,0.2,0.2s0.3,0.2,0.4,0.3c0.5,0.4,1,0.7,1.5,1c-0.1,0.2-0.3,0.1-0.5,0l-1.3-0.9
		c-0.2-0.2-0.5-0.2-0.7-0.1c0,0.2-0.2,0.3-0.4,0.3c0,0,0,0,0,0v-0.3C251.2,19,251.3,18.6,251.6,18.6z"/>
	<path class="st3" d="M251.7,15.5c0.1,0.7,0.1,1.5,0,2.2c-0.1,0.2-0.1,0.3-0.2,0.5c0-0.3,0-0.5,0-0.8c0-0.1-0.1-0.4,0.2-0.2
		c0.1,0.1,0.1-0.1,0-0.1c-0.4-0.3-0.2-0.7-0.1-1c0-0.1,0-0.2-0.1-0.3C251.4,15.5,251.5,15.5,251.7,15.5z"/>
	<path class="st3" d="M250.7,18.3l0.5,0.3C251,18.6,250.8,18.6,250.7,18.3z"/>
	<path class="st3" d="M251.1,13.7l-0.1-0.4c0.3,0.4,0.9,0.4,1.3,0.1c0.1-0.1,0.1-0.1,0.2-0.2l0.2,0.2c-0.3,0.3-0.7,0.4-1.2,0.5
		C251.3,13.9,251.1,13.9,251.1,13.7z"/>
	<path class="st3" d="M251.8,30c0.2,0.1,0.4-0.2,0.7-0.1c0.1,0,0.1-0.1,0.1-0.2s0-0.3,0.2-0.4s0.2,0.1,0.4,0.2
		c0.1-0.2,0.1-0.6,0.5-0.4c0.6,0.3,0.7,0.4,0.5,0.9c-0.1,0.1-0.1,0.3-0.1,0.4c0,0.1,0,0.3,0.2,0.3c0,0,0,0,0,0c0.1,0,0.2,0,0.2-0.2
		s0.2-0.4,0.2-0.5s0.1-0.3-0.1-0.4s-0.2-0.1-0.1-0.2c0,0,0.1,0,0.1,0c0,0,0,0,0,0c0.1,0.1,0.3,0,0.3,0.2s0.1,0.3,0.1,0.4
		c-0.1,0.2,0,0.4,0.2,0.5c0,0,0,0,0,0c0.2,0.1,0.1,0.3,0.1,0.4s-0.1,0.2-0.2,0.3c-0.6,0.4-1.1,0.8-1.7,1.1c-0.1,0.1-0.2,0.1-0.4,0.1
		c-0.4-0.2-0.8,0-1,0.3c0,0.1-0.1,0.1-0.1,0.2s0-0.4-0.3-0.4c0,0-0.1-0.3,0-0.3c0.4-0.2,0.2-0.5,0.2-0.8s0.1-0.7,0-1.1
		c0,0,0-0.1,0-0.1C251.7,30.3,251.7,30.2,251.8,30z"/>
	<path class="st3" d="M250.5,24.8c0,0.1-0.1,0.2-0.2,0.3c-0.2,0.2-0.3,0.5-0.1,0.7c0,0,0.1,0.1,0.1,0.1c0.1,0.1,0.2,0.2,0.4,0
		c0.1-0.1,0.3-0.2,0.4-0.1c0,0,0.1,0.1,0.1,0.1c0.1,0.2,0,0.3-0.2,0.4s-0.1,0.3,0,0.4s0.2,0.3,0.3,0.2c0.1-0.1,0.2-0.1,0.2-0.2
		c0.2-0.2,0.3-0.2,0.5,0.1s0.3,0.4,0.6,0.2c0.4-0.3,0.9-0.4,1.3-0.7c0.1-0.1,0.3-0.1,0.5,0c0.2,0.2,0,0.3,0,0.5s-0.1,0.1-0.1,0.3
		s0,0.4-0.2,0.1c-0.1-0.1-0.4,0.1-0.5,0.4s0,0.2-0.2,0.3c-0.2,0-0.4,0.1-0.6,0.2c-0.1,0.1-0.2,0.1-0.3,0.2c-0.6,0.6-1.2,0.4-1.8-0.1
		c0,0,0-0.1,0-0.1c0.2-0.3,0.5-0.3,0.7-0.5s0.3,0.1,0.5,0.2c-0.1-0.1-0.2-0.2-0.4-0.2c-0.2,0-0.4,0-0.6-0.1
		c-0.3-0.1-0.4-0.1-0.4,0.3c0,0.1,0,0.1,0,0.2c-0.2,0.1-0.4,0-0.5-0.3s-0.2-0.1-0.2-0.3s0.3-0.3,0.4-0.6c-0.1-0.1-0.3-0.1-0.5-0.2
		c-0.4-0.3-0.4-0.4-0.2-0.8c0.1-0.1,0.2-0.2,0.3-0.4C249.9,25,250.2,24.9,250.5,24.8z"/>
	<path class="st3" d="M251.4,32.2c-0.1,0-0.2,0.1-0.2,0.2c-0.2,0.6-0.3,0.6-0.8,0.2c-0.2-0.1-0.3-0.2-0.3,0.1l-0.6-0.4
		c-0.4-0.4-0.8-0.7-1.2-1c-0.2-0.1-0.3-0.3-0.2-0.5c0.4,0.1,0.5-0.3,0.7-0.5s0.3-0.1,0.4,0c0.4,0.7,0.7,0.8,1.3,0.6
		c0.3-0.1,0.5-0.1,0.7,0.2c0.1,0.1,0.1,0.1,0.2,0.1c0.1,0,0.2,0.1,0.1,0.1C251.3,31.6,251.6,32,251.4,32.2z"/>
	<path class="st3" d="M250.8,19.5l0.5-0.3h0.2c0.2,0.5,0.2,1.1,0,1.6v0.5c-0.1,0.1-0.2,0.4-0.4,0.1c0,0-0.1,0-0.1,0
		c-0.2,0.3-0.4,0.1-0.6-0.1s-0.5-0.5-0.7-0.8s-0.2-0.3,0.1-0.4C250.1,20,250.5,19.8,250.8,19.5z"/>
	<path class="st3" d="M250,27.5c0.2,0.1,0.3,0.2,0.5,0.3c0.1,0,0.1,0.1,0.1,0.2V28c0.1,0.2,0.3,0.3,0.5,0.4c0.4,0.2,0.6,0.6,0.5,1
		c0,0.4,0.1,0.7,0.1,1.1v0.1c-0.1,0-0.1,0.2-0.3,0c-0.2-0.3-0.5-0.6-0.8-0.8c-0.2-0.2-0.3-0.6-0.6-0.8c0,0,0-0.1,0-0.1
		C250.2,28.4,249.7,27.9,250,27.5z"/>
	<path class="st3" d="M249.7,25.2c0,0.1-0.1,0.2-0.1,0.3c-0.3,0.5-0.2,0.8,0.4,0.9c0.1,0,0.3,0,0.3,0.1s-0.1,0.2-0.2,0.3l-0.4,0.4
		c-0.6-0.3-1.1-0.6-1.6-1C248.7,25.9,249.1,25.4,249.7,25.2z"/>
	<path class="st3" d="M253,32.5c0.5-0.2,1-0.5,1.4-0.9c0.3-0.1,0.6-0.3,0.8-0.6c0.3-0.2,0-0.5,0-0.8c0-0.1,0-0.2,0.1-0.2
		s0.2,0.1,0.2,0.2s0,0.2,0,0.3c0,0.3,0,0.7,0.4,0.8c-0.2,0.3-0.4-0.2-0.5,0.1l-1.5,1l-1.1,0.8c-0.1,0.1-0.3,0.1-0.4,0.1l-0.1-0.1
		C252.3,32.8,252.6,32.6,253,32.5z"/>
	<path class="st3" d="M253,32.5c-0.2,0.2-0.5,0.4-0.8,0.6c-0.1-0.1-0.3,0.4-0.4-0.1s0.8-0.9,1.1-0.7C253,32.4,253,32.4,253,32.5z"/>
	<path class="st3" d="M248.2,31.4c0.3-0.1,0.5,0.1,0.7,0.3s0.5,0.3,0.6,0.7C249,32.1,248.6,31.8,248.2,31.4L248.2,31.4z"/>
	<path class="st3" d="M251.4,36.5c-0.3,0-0.5,0.1-0.4,0.5c0,0.2-0.1,0.2-0.2,0.2c-0.4,0.1-0.8-0.2-0.9-0.6c-0.1-0.4-0.4-0.5-0.7-0.3
		c0.1,0.1,0.2,0.1,0.3,0.1s0.2,0.1,0.1,0.3s-0.1,0.2-0.3,0.1s-0.1-0.1-0.2-0.1c-0.5-0.3-0.6,0.3-0.8,0.5s-0.2,0.4-0.5,0.4
		c0-0.4,0-0.8,0-1.2c0-0.2,0.1-0.4,0.3-0.4c0.3-0.1,0.5-0.3,0.7-0.6c0-0.1,0-0.1,0-0.2c0-0.1,0.1-0.1,0.1-0.1c0.2,0.3,0.4,0.1,0.5,0
		c0.6-0.4,1.1-0.7,1.7-1.1c0.3-0.2,0.2,0.1,0.2,0.2C251.5,35,251.4,35.7,251.4,36.5z"/>
	<path class="st3" d="M251.5,48.7c0.1,0.2,0.2,0.4,0,0.5C251.4,49.1,251.4,48.9,251.5,48.7z"/>
	<path class="st3" d="M256.1,31.7L256.1,31.7c0.5,0,1,0.3,1.1,0.8C256.8,32.3,256.4,32,256.1,31.7z"/>
	<path class="st3" d="M257.3,32.5c0-0.1,0-0.2,0.1-0.1c0.3,0.2,0.8,0.3,0.8,0.8C258,33,257.5,32.9,257.3,32.5z"/>
	<path class="st3" d="M250.1,39.7l0.7-0.5c0.2-0.3,0.5-0.6,0.9-0.4h0.1c0.5,0.2,1,0.4,1.4,0.7c0.1,0.1,0.2,0.2,0.2,0.3
		c-0.3,0.3-0.8,0.3-1.1,0c0,0-0.1-0.1-0.1-0.1c-0.5-0.4-1.1-0.4-1.5,0C250.5,39.8,250.3,39.8,250.1,39.7
		C250.1,39.7,250.1,39.7,250.1,39.7z"/>
	<path class="st3" d="M253.3,39.9c-0.4-0.5-1.1-0.7-1.6-1.1c0.2-0.1,0.3-0.1,0.5,0c0.4,0.2,0.8,0.5,1.2,0.8
		C253.5,39.7,253.5,39.8,253.3,39.9L253.3,39.9z"/>
	<path class="st3" d="M253.4,39.9l0.1-0.2c0.1,0.1,0.5,0.1,0.2,0.4L253.4,39.9z"/>
	<path class="st3" d="M251.7,38.7c-0.3,0.1-0.6,0.2-0.9,0.4c0-0.1,0-0.2-0.1-0.3c0.2-0.2,0.4-0.3,0.6-0.4c0.1,0.1,0.1,0.1,0.2,0.1
		s0.1-0.1,0.2,0S251.7,38.7,251.7,38.7z"/>
	<path class="st3" d="M251.7,30.4c-0.2-0.2-0.1-0.6-0.2-0.9c0-0.1,0-0.2,0-0.3c0-0.4,0-0.6-0.4-0.8c-0.2-0.1-0.4-0.3-0.5-0.5
		c0.2,0,0.3,0.1,0.4,0.2c0.3,0.3,0.8,0.3,1.1,0c0,0,0,0,0,0c0.3-0.2,0.6-0.3,0.9-0.5c0.1-0.1,0.2-0.1,0.3,0.1
		c-0.4,0.3-0.8,0.6-1.2,0.8c-0.3,0.1-0.4,0.4-0.3,0.7c0,0.3,0,0.6,0,0.9C251.8,30.2,251.8,30.3,251.7,30.4z"/>
	<path class="st3" d="M251.5,20.8v-1.6c0.2-0.1,0.3,0.1,0.3,0.3s0,0.4,0,0.6C251.7,20.4,251.6,20.6,251.5,20.8z"/>
	<path class="st8" d="M248.4,16.5c0,0.4-0.3,0.8-0.7,0.8c0,0-0.1,0-0.1,0c-0.5,0-0.8-0.4-0.7-1c0-0.4,0.3-0.8,0.7-0.8
		c0,0,0.1,0,0.1,0c0.4,0,0.8,0.4,0.7,0.9C248.5,16.4,248.5,16.5,248.4,16.5z"/>
	<path class="st9" d="M247.7,10.6c0.5,0.1,0.8,0.5,0.7,1c-0.1,0.4-0.4,0.7-0.7,0.7c-0.5,0-0.8-0.4-0.8-1
		C246.9,10.9,247.3,10.6,247.7,10.6C247.7,10.6,247.7,10.6,247.7,10.6z"/>
	<path class="st3" d="M250.6,27.9l-0.1-0.2c0-0.2-0.2-0.5,0-0.6s0.4-0.1,0.6,0.1c0.1,0.1,0.3,0.1,0.4,0.1c0.1,0,0.2,0,0.3,0
		s0.2,0.1,0.2,0.2c0,0.1,0,0.2-0.1,0.2c-0.1,0.1-0.2,0-0.3-0.1c0,0,0,0,0,0c-0.2-0.3-0.3-0.2-0.4,0S250.7,27.7,250.6,27.9z"/>
	<path class="st10" d="M248.1,16.4c0,0.3-0.1,0.4-0.4,0.4s-0.4-0.2-0.4-0.4s0.1-0.4,0.4-0.4S248.1,16.1,248.1,16.4z"/>
</g>
<rect x="257.6" y="30.1" class="st3" width="9.2" height="4.2"/>
</svg>
